<svg width="24" height="24" viewBox="0 0 24 24" fill="none" xmlns="http://www.w3.org/2000/svg">
<mask id="path-1-inside-1_1571_7274" fill="white">
<path d="M8.08248 2.24993L7.28967 2.48877C6.58375 2.70166 5.95333 3.11177 5.47262 3.67084C4.99191 4.2299 4.68091 4.91466 4.57622 5.64452C4.24782 7.93116 4.98202 10.6048 6.75229 13.671C8.51813 16.7294 10.462 18.6998 12.6016 19.5623C13.289 19.8394 14.0416 19.9132 14.7698 19.775C15.498 19.6368 16.1712 19.2924 16.7094 18.7828L17.3087 18.2144C17.6978 17.8461 17.94 17.349 17.9903 16.8156C18.0405 16.2821 17.8953 15.7486 17.5818 15.3141L16.0824 13.2353C15.8797 12.9547 15.5943 12.7445 15.2661 12.6343C14.9379 12.524 14.5835 12.5192 14.2524 12.6205L11.9846 13.3138L11.926 13.3249C11.6761 13.3614 11.0989 12.8207 10.3802 11.5756C9.62828 10.2731 9.47348 9.51124 9.68025 9.31442L10.8335 8.23855C11.2548 7.84514 11.5426 7.32987 11.6566 6.76482C11.7706 6.19977 11.7051 5.61322 11.4693 5.08723L10.7373 3.4607C10.5172 2.97125 10.1266 2.57853 9.63838 2.35577C9.15012 2.133 8.59642 2.09538 8.08248 2.24993ZM9.73112 3.91405L10.4609 5.54058C10.6025 5.85606 10.642 6.20792 10.5738 6.54694C10.5056 6.88597 10.3331 7.19519 10.0805 7.43137L8.92394 8.50835C8.1831 9.20938 8.42857 10.4058 9.42372 12.1285C10.3592 13.7495 11.2128 14.55 12.1305 14.4107L12.2677 14.382L14.5764 13.6776C14.6868 13.6437 14.805 13.6452 14.9144 13.6819C15.0239 13.7186 15.1191 13.7886 15.1868 13.8822L16.6861 15.9609C16.8431 16.1782 16.9159 16.445 16.8909 16.7119C16.8659 16.9787 16.7448 17.2274 16.5501 17.4117L15.9497 17.98C15.5653 18.3438 15.0845 18.5896 14.5645 18.6882C14.0445 18.7868 13.5071 18.734 13.0162 18.5362C11.1387 17.7799 9.36402 15.9809 7.71095 13.1181C6.05347 10.2488 5.38229 7.80842 5.67089 5.80153C5.74559 5.2801 5.96772 4.79087 6.31112 4.39144C6.65453 3.99202 7.1049 3.69902 7.60923 3.54695L8.40203 3.30811C8.65907 3.23088 8.93542 3.24977 9.17956 3.36125C9.42369 3.47274 9.61895 3.66922 9.7289 3.91405"/>
</mask>
<path d="M8.08248 2.24993L7.28967 2.48877C6.58375 2.70166 5.95333 3.11177 5.47262 3.67084C4.99191 4.2299 4.68091 4.91466 4.57622 5.64452C4.24782 7.93116 4.98202 10.6048 6.75229 13.671C8.51813 16.7294 10.462 18.6998 12.6016 19.5623C13.289 19.8394 14.0416 19.9132 14.7698 19.775C15.498 19.6368 16.1712 19.2924 16.7094 18.7828L17.3087 18.2144C17.6978 17.8461 17.94 17.349 17.9903 16.8156C18.0405 16.2821 17.8953 15.7486 17.5818 15.3141L16.0824 13.2353C15.8797 12.9547 15.5943 12.7445 15.2661 12.6343C14.9379 12.524 14.5835 12.5192 14.2524 12.6205L11.9846 13.3138L11.926 13.3249C11.6761 13.3614 11.0989 12.8207 10.3802 11.5756C9.62828 10.2731 9.47348 9.51124 9.68025 9.31442L10.8335 8.23855C11.2548 7.84514 11.5426 7.32987 11.6566 6.76482C11.7706 6.19977 11.7051 5.61322 11.4693 5.08723L10.7373 3.4607C10.5172 2.97125 10.1266 2.57853 9.63838 2.35577C9.15012 2.133 8.59642 2.09538 8.08248 2.24993ZM9.73112 3.91405L10.4609 5.54058C10.6025 5.85606 10.642 6.20792 10.5738 6.54694C10.5056 6.88597 10.3331 7.19519 10.0805 7.43137L8.92394 8.50835C8.1831 9.20938 8.42857 10.4058 9.42372 12.1285C10.3592 13.7495 11.2128 14.55 12.1305 14.4107L12.2677 14.382L14.5764 13.6776C14.6868 13.6437 14.805 13.6452 14.9144 13.6819C15.0239 13.7186 15.1191 13.7886 15.1868 13.8822L16.6861 15.9609C16.8431 16.1782 16.9159 16.445 16.8909 16.7119C16.8659 16.9787 16.7448 17.2274 16.5501 17.4117L15.9497 17.98C15.5653 18.3438 15.0845 18.5896 14.5645 18.6882C14.0445 18.7868 13.5071 18.734 13.0162 18.5362C11.1387 17.7799 9.36402 15.9809 7.71095 13.1181C6.05347 10.2488 5.38229 7.80842 5.67089 5.80153C5.74559 5.2801 5.96772 4.79087 6.31112 4.39144C6.65453 3.99202 7.1049 3.69902 7.60923 3.54695L8.40203 3.30811C8.65907 3.23088 8.93542 3.24977 9.17956 3.36125C9.42369 3.47274 9.61895 3.66922 9.7289 3.91405" fill="#2C2C2C"/>
<path d="M8.08248 2.24993L8.02488 2.05841L8.02479 2.05843L8.08248 2.24993ZM7.28967 2.48877L7.23198 2.29727L7.23193 2.29729L7.28967 2.48877ZM4.57622 5.64452L4.77419 5.67295L4.77419 5.67291L4.57622 5.64452ZM6.75229 13.671L6.57908 13.771L6.57908 13.771L6.75229 13.671ZM12.6016 19.5623L12.5268 19.7478L12.5268 19.7478L12.6016 19.5623ZM16.7094 18.7828L16.8469 18.928L16.847 18.9279L16.7094 18.7828ZM17.3087 18.2144L17.1712 18.0692L17.171 18.0693L17.3087 18.2144ZM17.5818 15.3141L17.4196 15.4311L17.4196 15.4311L17.5818 15.3141ZM16.0824 13.2353L16.2446 13.1183L16.2445 13.1182L16.0824 13.2353ZM14.2524 12.6205L14.3109 12.8118L14.311 12.8118L14.2524 12.6205ZM11.9846 13.3138L12.0217 13.5104L12.0325 13.5083L12.0431 13.5051L11.9846 13.3138ZM11.926 13.3249L11.9549 13.523L11.9631 13.5214L11.926 13.3249ZM10.3802 11.5756L10.207 11.6756L10.207 11.6756L10.3802 11.5756ZM9.68025 9.31442L9.54382 9.16817L9.54236 9.16956L9.68025 9.31442ZM10.8335 8.23855L10.97 8.38479L10.97 8.38473L10.8335 8.23855ZM11.4693 5.08723L11.6518 5.00541L11.6517 5.00515L11.4693 5.08723ZM10.7373 3.4607L10.5549 3.54273L10.5549 3.54278L10.7373 3.4607ZM10.4609 5.54058L10.2784 5.62245L10.2784 5.62249L10.4609 5.54058ZM10.0805 7.43137L10.2168 7.57774L10.2171 7.57746L10.0805 7.43137ZM8.92394 8.50835L8.78764 8.36197L8.78647 8.36308L8.92394 8.50835ZM9.42372 12.1285L9.59695 12.0285L9.59691 12.0285L9.42372 12.1285ZM12.1305 14.4107L12.1606 14.6088L12.1716 14.6065L12.1305 14.4107ZM12.2677 14.382L12.3087 14.5777L12.3175 14.5759L12.326 14.5733L12.2677 14.382ZM14.5764 13.6776L14.6348 13.8689L14.6351 13.8688L14.5764 13.6776ZM15.1868 13.8822L15.349 13.7652L15.3488 13.765L15.1868 13.8822ZM16.6861 15.9609L16.5239 16.0779L16.524 16.0781L16.6861 15.9609ZM16.5501 17.4117L16.6876 17.5569L16.6876 17.5569L16.5501 17.4117ZM15.9497 17.98L16.0872 18.1253L16.0872 18.1253L15.9497 17.98ZM13.0162 18.5362L13.091 18.3507L13.091 18.3507L13.0162 18.5362ZM7.71095 13.1181L7.88415 13.0181L7.88414 13.0181L7.71095 13.1181ZM5.67089 5.80153L5.86885 5.83L5.86887 5.82989L5.67089 5.80153ZM7.60923 3.54695L7.55154 3.35545L7.55149 3.35547L7.60923 3.54695ZM8.40203 3.30811L8.34448 3.11657L8.34434 3.11662L8.40203 3.30811ZM8.08248 2.24993L8.02479 2.05843L7.23198 2.29727L7.28967 2.48877L7.34736 2.68027L8.14017 2.44143L8.08248 2.24993ZM7.28967 2.48877L7.23193 2.29729C6.48952 2.52117 5.82653 2.95248 5.32097 3.54044L5.47262 3.67084L5.62427 3.80123C6.08014 3.27105 6.67798 2.88214 7.34742 2.68025L7.28967 2.48877ZM5.47262 3.67084L5.32097 3.54044C4.81542 4.1284 4.48834 4.84855 4.37824 5.61612L4.57622 5.64452L4.77419 5.67291C4.87347 4.98078 5.1684 4.33141 5.62427 3.80123L5.47262 3.67084ZM4.57622 5.64452L4.37825 5.61608C4.04079 7.96578 4.79813 10.6863 6.57908 13.771L6.75229 13.671L6.92549 13.571C5.16591 10.5233 4.45484 7.89654 4.77419 5.67295L4.57622 5.64452ZM6.75229 13.671L6.57908 13.771C8.35562 16.8479 10.3284 18.8616 12.5268 19.7478L12.6016 19.5623L12.6764 19.3768C10.5956 18.538 8.68065 16.6109 6.92549 13.571L6.75229 13.671ZM12.6016 19.5623L12.5268 19.7478C13.2498 20.0392 14.0413 20.1168 14.8071 19.9715L14.7698 19.775L14.7325 19.5785C14.0419 19.7096 13.3283 19.6395 12.6763 19.3768L12.6016 19.5623ZM14.7698 19.775L14.8071 19.9715C15.5729 19.8262 16.2809 19.464 16.8469 18.928L16.7094 18.7828L16.5718 18.6375C16.0615 19.1209 15.4231 19.4475 14.7325 19.5785L14.7698 19.775ZM16.7094 18.7828L16.847 18.9279L17.4463 18.3595L17.3087 18.2144L17.171 18.0693L16.5717 18.6376L16.7094 18.7828ZM17.3087 18.2144L17.4461 18.3597C17.8705 17.9581 18.1346 17.416 18.1894 16.8343L17.9903 16.8156L17.7911 16.7968C17.7454 17.282 17.5251 17.7342 17.1712 18.0692L17.3087 18.2144ZM17.9903 16.8156L18.1894 16.8343C18.2442 16.2526 18.0859 15.6708 17.744 15.1971L17.5818 15.3141L17.4196 15.4311C17.7048 15.8263 17.8368 16.3116 17.7911 16.7968L17.9903 16.8156ZM17.5818 15.3141L17.744 15.1971L16.2446 13.1183L16.0824 13.2353L15.9202 13.3523L17.4196 15.4311L17.5818 15.3141ZM16.0824 13.2353L16.2445 13.1182C16.0174 12.8037 15.6975 12.5682 15.3298 12.4447L15.2661 12.6343L15.2024 12.8239C15.491 12.9208 15.742 13.1056 15.9203 13.3524L16.0824 13.2353ZM15.2661 12.6343L15.3298 12.4447C14.962 12.3211 14.5648 12.3158 14.1939 12.4293L14.2524 12.6205L14.311 12.8118C14.6021 12.7227 14.9138 12.7269 15.2024 12.8239L15.2661 12.6343ZM14.2524 12.6205L14.194 12.4293L11.9261 13.1226L11.9846 13.3138L12.0431 13.5051L14.3109 12.8118L14.2524 12.6205ZM11.9846 13.3138L11.9475 13.1173L11.8889 13.1284L11.926 13.3249L11.9631 13.5214L12.0217 13.5104L11.9846 13.3138ZM11.926 13.3249L11.8971 13.127C11.9085 13.1253 11.8779 13.1318 11.7887 13.0741C11.7072 13.0214 11.6019 12.9311 11.4756 12.7949C11.2238 12.5233 10.9083 12.0904 10.5534 11.4756L10.3802 11.5756L10.207 11.6756C10.5708 12.3059 10.9033 12.7659 11.1822 13.0668C11.3213 13.2168 11.452 13.3327 11.5715 13.41C11.6833 13.4823 11.8185 13.5427 11.9549 13.5228L11.926 13.3249ZM10.3802 11.5756L10.5534 11.4756C10.1817 10.8318 9.96376 10.3317 9.86317 9.97597C9.8127 9.79746 9.79442 9.66435 9.79659 9.57231C9.79887 9.47555 9.82244 9.4552 9.81814 9.45929L9.68025 9.31442L9.54236 9.16956C9.43468 9.27206 9.40006 9.42074 9.3967 9.56289C9.39324 9.70975 9.42189 9.88542 9.47826 10.0848C9.59135 10.4848 9.82672 11.0169 10.207 11.6756L10.3802 11.5756ZM9.68025 9.31442L9.81668 9.46067L10.97 8.38479L10.8335 8.23855L10.6971 8.09231L9.54382 9.16818L9.68025 9.31442ZM10.8335 8.23855L10.97 8.38473C11.4218 7.96286 11.7304 7.4103 11.8527 6.80437L11.6566 6.76482L11.4606 6.72526C11.3548 7.24943 11.0879 7.72743 10.697 8.09237L10.8335 8.23855ZM11.6566 6.76482L11.8527 6.80437C11.9749 6.19844 11.9047 5.56945 11.6518 5.00541L11.4693 5.08723L11.2868 5.16905C11.5056 5.65698 11.5663 6.2011 11.4606 6.72526L11.6566 6.76482ZM11.4693 5.08723L11.6517 5.00515L10.9197 3.37863L10.7373 3.4607L10.5549 3.54278L11.2869 5.16931L11.4693 5.08723ZM10.7373 3.4607L10.9197 3.37868C10.6797 2.84495 10.2538 2.41672 9.72139 2.17381L9.63838 2.35577L9.55536 2.53772C9.99946 2.74034 10.3547 3.09754 10.5549 3.54273L10.7373 3.4607ZM9.63838 2.35577L9.72139 2.17381C9.18896 1.93089 8.58528 1.88989 8.02488 2.05841L8.08248 2.24993L8.14007 2.44146C8.60755 2.30088 9.11128 2.33511 9.55536 2.53772L9.63838 2.35577ZM9.73112 3.91405L9.54864 3.99592L10.2784 5.62245L10.4609 5.54058L10.6434 5.45871L9.91359 3.83218L9.73112 3.91405ZM10.4609 5.54058L10.2784 5.62249C10.403 5.89993 10.4377 6.20936 10.3777 6.5075L10.5738 6.54694L10.7699 6.58639C10.8463 6.20648 10.8021 5.81219 10.6434 5.45867L10.4609 5.54058ZM10.5738 6.54694L10.3777 6.5075C10.3177 6.80564 10.1661 7.07758 9.94393 7.28528L10.0805 7.43137L10.2171 7.57746C10.5002 7.31281 10.6934 6.96629 10.7699 6.58639L10.5738 6.54694ZM10.0805 7.43137L9.94423 7.285L8.78764 8.36198L8.92394 8.50835L9.06023 8.65472L10.2168 7.57774L10.0805 7.43137ZM8.92394 8.50835L8.78647 8.36308C8.35588 8.77053 8.22492 9.31784 8.32519 9.96587C8.42405 10.6048 8.74898 11.3603 9.25054 12.2285L9.42372 12.1285L9.59691 12.0285C9.10331 11.174 8.80793 10.4699 8.72048 9.90471C8.63444 9.3486 8.75115 8.9472 9.0614 8.65362L8.92394 8.50835ZM9.42372 12.1285L9.2505 12.2285C9.72228 13.046 10.1828 13.6739 10.6529 14.0809C11.1267 14.4912 11.6263 14.6896 12.1606 14.6085L12.1305 14.4107L12.1005 14.213C11.7171 14.2712 11.3309 14.1389 10.9147 13.7785C10.4946 13.4148 10.0606 12.832 9.59695 12.0285L9.42372 12.1285ZM12.1305 14.4107L12.1716 14.6065L12.3087 14.5777L12.2677 14.382L12.2266 14.1862L12.0895 14.215L12.1305 14.4107ZM12.2677 14.382L12.326 14.5733L14.6348 13.8689L14.5764 13.6776L14.5181 13.4863L12.2093 14.1907L12.2677 14.382ZM14.5764 13.6776L14.6351 13.8688C14.7056 13.8472 14.781 13.8481 14.8509 13.8715L14.9144 13.6819L14.978 13.4923C14.8289 13.4423 14.668 13.4403 14.5177 13.4864L14.5764 13.6776ZM14.9144 13.6819L14.8509 13.8715C14.9207 13.895 14.9815 13.9397 15.0247 13.9994L15.1868 13.8822L15.3488 13.765C15.2567 13.6376 15.1271 13.5422 14.978 13.4923L14.9144 13.6819ZM15.1868 13.8822L15.0246 13.9992L16.5239 16.0779L16.6861 15.9609L16.8483 15.8439L15.349 13.7652L15.1868 13.8822ZM16.6861 15.9609L16.524 16.0781C16.6526 16.256 16.7122 16.4746 16.6918 16.6932L16.8909 16.7119L17.09 16.7305C17.1196 16.4154 17.0336 16.1003 16.8482 15.8438L16.6861 15.9609ZM16.8909 16.7119L16.6918 16.6932C16.6713 16.9118 16.5721 17.1155 16.4126 17.2664L16.5501 17.4117L16.6876 17.5569C16.9175 17.3393 17.0605 17.0457 17.09 16.7305L16.8909 16.7119ZM16.5501 17.4117L16.4126 17.2664L15.8122 17.8348L15.9497 17.98L16.0872 18.1253L16.6876 17.5569L16.5501 17.4117ZM15.9497 17.98L15.8122 17.8347C15.4556 18.1722 15.0097 18.4003 14.5273 18.4917L14.5645 18.6882L14.6018 18.8847C15.1594 18.779 15.675 18.5154 16.0872 18.1253L15.9497 17.98ZM14.5645 18.6882L14.5273 18.4917C14.0449 18.5832 13.5464 18.5342 13.091 18.3507L13.0162 18.5362L12.9415 18.7217C13.4679 18.9339 14.0441 18.9904 14.6018 18.8847L14.5645 18.6882ZM13.0162 18.5362L13.091 18.3507C11.2734 17.6185 9.52744 15.8639 7.88415 13.0181L7.71095 13.1181L7.53776 13.2181C9.20059 16.0978 11.004 17.9412 12.9415 18.7217L13.0162 18.5362ZM7.71095 13.1181L7.88414 13.0181C6.23641 10.1656 5.5895 7.77263 5.86885 5.83L5.67089 5.80153L5.47292 5.77306C5.17509 7.84421 5.87053 10.3319 7.53777 13.2182L7.71095 13.1181ZM5.67089 5.80153L5.86887 5.82989C5.93817 5.34619 6.14423 4.89236 6.46278 4.52183L6.31112 4.39144L6.15947 4.26106C5.79122 4.68939 5.55302 5.21401 5.47291 5.77316L5.67089 5.80153ZM6.31112 4.39144L6.46278 4.52183C6.78134 4.1513 7.19913 3.8795 7.66697 3.73844L7.60923 3.54695L7.55149 3.35547C7.01068 3.51854 6.52772 3.83273 6.15947 4.26106L6.31112 4.39144ZM7.60923 3.54695L7.66692 3.73845L8.45972 3.49961L8.40203 3.30811L8.34434 3.11662L7.55154 3.35545L7.60923 3.54695ZM8.40203 3.30811L8.45959 3.49965C8.67013 3.43639 8.8965 3.45186 9.09648 3.54318L9.17956 3.36125L9.26264 3.17933C8.97434 3.04767 8.648 3.02537 8.34448 3.11658L8.40203 3.30811ZM9.17956 3.36125L9.09648 3.54318C9.29645 3.63451 9.45639 3.79545 9.54646 3.99599L9.7289 3.91405L9.91135 3.83211C9.7815 3.543 9.55093 3.31098 9.26264 3.17933L9.17956 3.36125Z" fill="#F1F1F1" mask="url(#path-1-inside-1_1571_7274)"/>
</svg>
