<svg width="32" height="32" viewBox="0 0 32 32" fill="none" xmlns="http://www.w3.org/2000/svg">
<path d="M16 3.5C13.5277 3.5 11.111 4.23311 9.05538 5.60663C6.99976 6.98015 5.39761 8.93238 4.45151 11.2165C3.50542 13.5005 3.25787 16.0139 3.74019 18.4386C4.2225 20.8634 5.41301 23.0907 7.16117 24.8388C8.90933 26.587 11.1366 27.7775 13.5614 28.2598C15.9861 28.7421 18.4995 28.4946 20.7835 27.5485C23.0676 26.6024 25.0199 25.0002 26.3934 22.9446C27.7669 20.889 28.5 18.4723 28.5 16C28.4964 12.6859 27.1782 9.5086 24.8348 7.16518C22.4914 4.82177 19.3141 3.50364 16 3.5ZM16 27.3263C15.2088 26.565 13.125 24.275 12.0913 20.5H19.9088C18.875 24.275 16.7913 26.565 16 27.3263ZM11.8525 19.5C11.3824 17.1903 11.3824 14.8097 11.8525 12.5H20.1475C20.6176 14.8097 20.6176 17.1903 20.1475 19.5H11.8525ZM16 4.67375C16.7913 5.435 18.875 7.725 19.9088 11.5H12.0913C13.125 7.725 15.2088 5.435 16 4.67375ZM21.1763 12.5H26.955C27.6816 14.7768 27.6816 17.2232 26.955 19.5H21.1763C21.6078 17.1866 21.6078 14.8134 21.1763 12.5ZM26.5825 11.5H20.9575C20.3265 8.92776 19.0736 6.5498 17.3088 4.575C19.3277 4.80957 21.2488 5.57361 22.8774 6.78973C24.506 8.00584 25.7842 9.63081 26.5825 11.5ZM14.6925 4.575C12.9276 6.5498 11.6747 8.92776 11.0438 11.5H5.41876C6.21709 9.63081 7.4953 8.00584 9.12388 6.78973C10.7525 5.57361 12.6735 4.80957 14.6925 4.575ZM5.04501 12.5H10.8238C10.3922 14.8134 10.3922 17.1866 10.8238 19.5H5.04501C4.31844 17.2232 4.31844 14.7768 5.04501 12.5ZM5.42001 20.5H11.045C11.676 23.0722 12.9289 25.4502 14.6938 27.425C12.6744 27.1908 10.7527 26.427 9.12369 25.2109C7.49464 23.9947 6.21605 22.3695 5.41751 20.5H5.42001ZM17.31 27.425C19.074 25.4499 20.326 23.072 20.9563 20.5H26.5813C25.7829 22.3692 24.5047 23.9942 22.8761 25.2103C21.2476 26.4264 19.3265 27.1904 17.3075 27.425H17.31Z" fill="black"/>
</svg>
