<svg width="32" height="32" viewBox="0 0 32 32" fill="none" xmlns="http://www.w3.org/2000/svg">
<path d="M22.3999 11.1993C22.8243 11.1993 23.2313 11.0307 23.5313 10.7307C23.8314 10.4306 23.9999 10.0236 23.9999 9.59929C23.9999 9.17495 23.8314 8.76798 23.5313 8.46792C23.2313 8.16786 22.8243 7.99929 22.3999 7.99929C21.9756 7.99929 21.5686 8.16786 21.2686 8.46792C20.9685 8.76798 20.7999 9.17495 20.7999 9.59929C20.7999 10.0236 20.9685 10.4306 21.2686 10.7307C21.5686 11.0307 21.9756 11.1993 22.3999 11.1993ZM17.8079 3.19929C17.3847 3.19643 16.9652 3.27754 16.5735 3.43793C16.1819 3.59832 15.826 3.83481 15.5263 4.13369L4.83514 14.7977C4.5374 15.0947 4.30112 15.4474 4.13981 15.8358C3.9785 16.2242 3.89532 16.6405 3.89502 17.061C3.89472 17.4816 3.97732 17.898 4.13808 18.2866C4.29884 18.6752 4.53462 19.0283 4.83194 19.3257L12.7503 27.2425C13.3504 27.8424 14.1642 28.1794 15.0127 28.1794C15.8613 28.1794 16.675 27.8424 17.2751 27.2425L27.8847 16.6345C28.1827 16.3367 28.4189 15.9829 28.5798 15.5936C28.7407 15.2042 28.8231 14.787 28.8223 14.3657L28.8095 6.44569C28.8083 5.6017 28.4737 4.79237 27.8785 4.19393C27.2834 3.59549 26.4759 3.2564 25.6319 3.25049L17.8079 3.19929ZM16.6559 5.26649C16.8057 5.11705 16.9837 4.99881 17.1795 4.91861C17.3754 4.83842 17.5851 4.79786 17.7967 4.79929L25.6207 4.85049C26.0429 4.85345 26.4467 5.0231 26.7443 5.32249C27.0419 5.62189 27.2091 6.02676 27.2095 6.44889L27.2223 14.3689C27.2225 14.5793 27.1812 14.7876 27.1007 14.982C27.0203 15.1764 26.9023 15.353 26.7535 15.5017L16.1455 26.1113C15.9969 26.2601 15.8205 26.3781 15.6262 26.4586C15.432 26.5391 15.2238 26.5805 15.0135 26.5805C14.8033 26.5805 14.5951 26.5391 14.4008 26.4586C14.2066 26.3781 14.0301 26.2601 13.8815 26.1113L5.96314 18.1945C5.81448 18.0458 5.69659 17.8692 5.61621 17.675C5.53583 17.4807 5.49453 17.2724 5.49468 17.0622C5.49483 16.8519 5.53642 16.6437 5.61707 16.4495C5.69773 16.2554 5.81587 16.079 5.96474 15.9305L16.6559 5.26649Z" fill="black"/>
</svg>
