<svg width="32" height="32" viewBox="0 0 32 32" fill="none" xmlns="http://www.w3.org/2000/svg">
<path d="M28 20V16C28 14.4241 27.6896 12.8637 27.0866 11.4078C26.4835 9.95189 25.5996 8.62902 24.4853 7.51472C23.371 6.40042 22.0481 5.5165 20.5922 4.91345C19.1363 4.31039 17.5759 4 16 4C14.4241 4 12.8637 4.31039 11.4078 4.91345C9.95189 5.5165 8.62902 6.40042 7.51472 7.51472C6.40042 8.62902 5.5165 9.95189 4.91345 11.4078C4.31039 12.8637 4 14.4241 4 16V20" stroke="black" stroke-linecap="round"/>
<path d="M4.00016 20.0007V19.334H3.3335V20.0007H4.00016ZM4.00016 20.6673H8.00016V19.334H4.00016V20.6673ZM8.66683 21.334V25.334H10.0002V21.334H8.66683ZM4.66683 25.334V20.0007H3.3335V25.334H4.66683ZM6.66683 27.334C6.1364 27.334 5.62769 27.1233 5.25262 26.7482C4.87754 26.3731 4.66683 25.8644 4.66683 25.334H3.3335C3.3335 26.218 3.68469 27.0659 4.30981 27.691C4.93493 28.3161 5.78277 28.6673 6.66683 28.6673V27.334ZM8.66683 25.334C8.66683 25.8644 8.45612 26.3731 8.08104 26.7482C7.70597 27.1233 7.19726 27.334 6.66683 27.334V28.6673C7.55088 28.6673 8.39873 28.3161 9.02385 27.691C9.64897 27.0659 10.0002 26.218 10.0002 25.334H8.66683ZM8.00016 20.6673C8.17697 20.6673 8.34654 20.7376 8.47157 20.8626C8.59659 20.9876 8.66683 21.1572 8.66683 21.334H10.0002C10.0002 20.8036 9.78945 20.2948 9.41438 19.9198C9.0393 19.5447 8.5306 19.334 8.00016 19.334V20.6673ZM28.0002 20.0007H28.6668V19.334H28.0002V20.0007ZM24.0002 20.6673H28.0002V19.334H24.0002V20.6673ZM27.3335 20.0007V25.334H28.6668V20.0007H27.3335ZM23.3335 25.334V21.334H22.0002V25.334H23.3335ZM25.3335 27.334C24.8031 27.334 24.2944 27.1233 23.9193 26.7482C23.5442 26.3731 23.3335 25.8644 23.3335 25.334H22.0002C22.0002 26.218 22.3514 27.0659 22.9765 27.691C23.6016 28.3161 24.4494 28.6673 25.3335 28.6673V27.334ZM27.3335 25.334C27.3335 25.8644 27.1228 26.3731 26.7477 26.7482C26.3726 27.1233 25.8639 27.334 25.3335 27.334V28.6673C26.2176 28.6673 27.0654 28.3161 27.6905 27.691C28.3156 27.0659 28.6668 26.218 28.6668 25.334H27.3335ZM24.0002 19.334C23.4697 19.334 22.961 19.5447 22.586 19.9198C22.2109 20.2948 22.0002 20.8036 22.0002 21.334H23.3335C23.3335 21.1572 23.4037 20.9876 23.5288 20.8626C23.6538 20.7376 23.8234 20.6673 24.0002 20.6673V19.334Z" fill="black"/>
</svg>
