<svg width="174" height="40" viewBox="0 0 174 40" fill="none" xmlns="http://www.w3.org/2000/svg">
<g clip-path="url(#clip0_828_5030)">
<path d="M31.9015 39.7759L12.933 39.7905L12.9258 39.2797L26.892 38.7217C29.5433 38.6199 32.1168 38.4817 34.6071 37.6311C39.7144 35.9152 43.7846 32.4235 44.9809 28.0975C46.2676 23.4626 43.3141 18.9548 37.7507 18.5658C42.4634 17.1771 46.483 14.1799 47.5508 10.3155C48.9425 5.30248 46.4269 2.7705 42.1847 1.84169C49.2411 1.72899 54.7628 4.11011 52.8842 10.8954C51.8165 14.756 47.701 17.6952 43.0209 18.9766C48.519 19.3892 51.5323 24.6495 50.0736 29.2318C48.5588 34.0067 44.7239 36.9713 39.6166 38.6817C37.1246 39.5342 34.5546 39.6741 31.9015 39.7759Z" fill="white"/>
<path d="M21.9453 37.3752L12.985 37.8024C12.9814 37.5715 12.9723 37.5025 12.947 37.2807L35.5712 30.7245L35.5857 30.3591L12.6502 35.9011C12.5796 35.6848 12.5597 35.6248 12.4638 35.4194L36.5521 21.9852L36.3983 21.6126L11.7634 34.2634C11.6114 34.0508 11.6349 34.0417 11.4648 33.8545L40.0993 6.73884L39.8496 6.43348L10.3771 32.9329C10.2413 32.8329 10.1671 32.753 10.0187 32.6639L30.9327 2.02387L30.5617 1.92027L8.76454 32.1004C8.64329 32.0604 8.52203 32.0205 8.40078 31.9859L20.3671 2.34923L20.0504 2.3147L6.55659 31.7242C6.39009 31.7242 6.22359 31.7278 6.05347 31.7387L5.93945 31.7479L14.6337 0.202658L30.8748 0.253552C38.5574 -0.188135 44.6256 1.8967 42.6312 9.10184C41.5598 12.9625 37.5439 15.9634 32.8565 17.2467L32.8294 17.3485C38.3927 17.7375 41.5236 22.2343 40.2423 26.8711C39.0442 31.1935 34.7659 34.5688 29.6586 36.2829C27.1647 37.1354 24.5912 37.2771 21.9453 37.3752Z" fill="white"/>
<path d="M73.6777 15.3363C74.5422 15.3363 74.9101 14.5356 75.4027 12.6263C75.7904 11.1025 76.0792 10.0495 75.0268 10.0495C73.921 10.0495 73.6698 11.1025 73.2821 12.6263C72.7915 14.5356 72.748 15.3363 73.6777 15.3363ZM66.1131 6.18325L63.9905 3.54483L65.765 2.24151L68.028 6.18325H68.7105L66.9024 1.38919L69.0408 0.435547L70.2911 6.18325H84.4489L84.0869 7.34948H79.1691L78.5618 9.81505C79.2206 9.07399 80.0356 8.79187 81.0148 8.79187C83.6596 8.79187 83.082 11.3051 82.6784 12.8707C82.2907 14.4084 81.6201 16.6277 79.0485 16.6277C78.5401 16.6277 78.0811 16.5283 77.82 16.2899L78.002 15.6025C78.0693 15.6105 78.1662 15.6661 78.2414 15.6661C79.3472 15.6661 79.6498 14.3349 80.0395 12.8131C80.5301 10.9018 80.5697 10.1031 79.6439 10.1031C78.8724 10.1031 78.4194 10.6793 77.9842 12.1455L76.5421 17.9687L74.1287 17.9667L74.7538 15.6522C74.0575 16.3932 73.2821 16.6455 72.3068 16.6455C69.658 16.6455 70.2614 13.9952 70.6629 12.4276C71.0546 10.8919 71.6975 8.74221 74.2712 8.74221C75.1969 8.74221 75.7746 8.9667 76.1366 9.61241L76.7043 7.34948H70.1565L67.4385 17.9687H65.0053L65.6463 15.6522C64.948 16.3932 63.7334 16.6257 62.7502 16.6257C60.1074 16.6257 60.6296 13.9118 61.0312 12.3462C61.4268 10.8124 62.1469 8.71638 64.7185 8.71638C65.6463 8.71638 66.671 8.96671 67.031 9.61241L67.6007 7.34948H61.6761L62.0381 6.18325L66.1131 6.18325ZM74.1287 17.9667C74.7677 15.6482 74.7538 15.6522 74.7538 15.6522L74.1287 17.9667ZM65.6977 14.3866L63.7571 11.8614C63.6898 12.0978 63.6226 12.3482 63.5553 12.6184C63.0628 14.5316 63.0865 15.3164 64.2517 15.3164C64.9361 15.3164 65.3594 15.0323 65.6977 14.3866ZM64.2437 10.7071L66.1428 13.1826L66.2931 12.6263C66.6809 11.1025 66.9855 10.0455 65.6047 10.0336C64.948 10.0238 64.5385 10.278 64.2437 10.7071ZM71.2663 3.28655H73.5808L73.0645 5.22364H70.75L71.2663 3.28655Z" fill="white"/>
<path d="M133.854 14.482L131.931 11.9866L131.765 12.6184C131.272 14.5316 131.296 15.3164 132.463 15.3164C133.112 15.3164 133.527 15.0621 133.854 14.482ZM145.038 9.54684L145.553 7.34948H138.364L135.646 17.9687H133.215L133.856 15.6522C133.161 16.3932 131.941 16.6257 130.964 16.6257C128.315 16.6257 128.746 14.0667 129.15 12.4972C129.543 10.9614 130.358 8.71637 132.932 8.71637C133.856 8.71637 134.874 8.96671 135.236 9.6124L135.812 7.34948H129.923L130.287 6.18325H147.568L145.446 3.54483L147.214 2.24151L149.479 6.18325H150.168L148.352 1.38919L150.492 0.435547L151.742 6.18325H168.06L167.696 7.34948H166.333L163.613 17.9806H161.184L163.9 7.34948H161.796L160.951 10.0495H157.554C156.449 10.0495 156.146 11.3786 155.693 13.3376C155.149 15.6959 154.727 17.1164 156.253 17.1164C156.359 17.1164 156.53 17.0747 156.741 17.0012C156.581 15.5488 157.41 13.8581 159.119 13.8581C160.684 13.8581 160.686 14.7164 160.472 15.4753C160.175 16.5442 159.629 17.1184 158.577 17.4144C159.119 18.4376 160.425 18.5191 160.425 18.5191L157.813 19.9614C157.21 19.2462 156.852 18.6204 156.747 17.8893C156.104 18.0601 155.392 18.1098 154.854 18.1098C151.721 18.1098 152.243 15.0283 152.771 12.9482C153.311 10.8045 154.243 8.92499 156.818 8.92499C157.742 8.92499 158.785 8.98458 158.785 8.98458L159.244 7.34948H152.401L149.681 17.9806H147.252L149.97 7.34948H148.023L147.054 11.0945H144.617C144.825 10.276 144.445 9.97002 143.408 9.97002C142.471 9.97002 142.194 10.1031 141.806 11.4462C141.529 12.5945 141.857 12.8389 142.989 12.8111H144.93C146.354 12.8111 146.613 13.3455 146.105 15.4753C145.479 17.8714 144.318 18.0104 142.86 18.0104H140.02C137.537 18.0104 137.446 16.8979 138.006 15.082H140.809C140.552 16.0396 139.99 16.9833 141.616 16.9833C142.601 16.9833 142.932 16.7429 143.303 15.3661C143.612 14.3747 143.689 13.8581 142.194 13.8581C142.194 13.8581 140.864 13.8403 140.231 13.8403C138.566 13.8403 138.831 12.4237 139.131 11.2515C139.725 9.08991 140.144 8.80779 142.625 8.80779C144.15 8.80779 144.825 8.97861 145.038 9.54684ZM132.392 10.7985L134.313 13.3098L134.503 12.6263C134.89 11.1025 135.195 10.0455 133.814 10.0336C133.114 10.0238 132.692 10.3098 132.392 10.7985ZM139.98 19.0912H142.293L141.77 21.0264H139.46L139.98 19.0912Z" fill="white"/>
<path d="M109.548 2.32227C108.948 4.62691 107.896 4.75406 106.583 4.75406H104.023C101.882 4.75406 101.708 3.83221 102.141 2.32227H104.674C104.428 3.10704 104.118 3.82426 105.463 3.82426C106.351 3.82426 106.648 3.60969 106.99 2.36597L109.548 2.32227ZM92.9054 17.8011H89.2754L89.584 16.5991H92.7451C93.5463 16.5991 94.7292 16.1462 95.1387 14.5528C95.39 13.5435 94.9587 12.3773 93.5166 12.3773H91.1408L91.4553 11.06H94.209C95.1842 11.06 95.932 10.2236 96.2208 9.12295C96.4344 8.28653 96.385 7.16599 94.935 7.16599H91.9816L92.2882 5.964H95.841C97.6431 5.964 99.5995 6.74281 99.0753 8.91236C98.6876 10.5296 97.8587 11.3402 95.9616 11.6442C97.926 11.9144 98.3137 13.2256 97.9181 14.7912C97.1763 17.672 94.1239 17.8011 92.9054 17.8011ZM114.798 7.19182H112.875L111.376 12.9912C111.204 13.6667 111.221 14.1654 112.036 14.1654C112.853 14.1654 113.164 13.3925 113.336 12.713L114.798 7.19182ZM100.371 6.02559H122.123L121.759 7.19182H117.36L116.632 9.99117C117.31 9.3256 118.131 9.0256 119.087 9.0256C120.303 9.0256 121.217 9.62958 120.95 10.6806L119.387 16.7839H116.828L118.171 11.5428C118.345 10.8614 118.335 10.3349 117.518 10.3349C116.928 10.3349 116.525 10.8316 116.278 11.362L115.643 13.8157C115.518 14.3144 114.804 17.3124 114.735 17.8111H112.088L112.897 14.5548C112.181 15.2342 111.431 15.4766 110.468 15.4766C109.251 15.4766 108.337 14.8687 108.61 13.8157L110.319 7.19182H108.296L105.574 17.823H103.142L105.862 7.19182H103.938L101.224 17.823H98.7924L100.223 12.2382H98.2484L98.5827 11.0481H100.527L101.516 7.19182H100.003L100.371 6.02559ZM108.357 17.0283H110.667L110.149 18.9594H107.835L108.357 17.0283Z" fill="white"/>
<path d="M63.9695 33.6215H65.6302C67.0659 33.6215 67.3606 34.3594 67.1057 35.5754C66.7015 37.4872 65.3375 37.5112 64.7301 37.5112H63.1491L63.9695 33.6215ZM65.1563 28.0258H66.9125C67.8723 28.0258 68.396 28.7698 68.1829 29.7717C67.9002 31.0996 66.9444 31.5156 66.3211 31.5156H64.4155L65.1563 28.0258ZM64.8914 39.6111C66.1001 39.6111 69.1368 39.4611 69.8675 35.9913C70.2678 34.1194 70.0149 32.8035 68.0555 32.5215L68.0614 32.4815C69.6743 32.1796 70.6899 31.0416 71.0244 29.4677C71.6437 26.5499 69.981 25.9199 67.8046 25.9199H62.7488L59.8535 39.6111L64.8914 39.6111Z" fill="white"/>
<path d="M76.0255 34.9913C75.8045 36.0332 75.6053 38.1591 74.0342 38.1591C73.1661 38.1591 73.2258 37.3211 73.3712 36.6432C73.7316 34.9293 74.6914 35.0473 76.0255 34.9913ZM79.0402 33.0574C79.4086 31.3095 79.2812 29.8516 75.906 29.8516C74.8845 29.8516 73.9805 30.0215 73.2796 30.4775C72.5667 30.9135 72.047 31.6555 71.806 32.8074H74.4106C74.5739 32.0554 74.7969 31.3495 75.7188 31.3495C76.6846 31.3495 76.6707 31.9394 76.4974 32.7574L76.3441 33.4913C73.8809 33.4553 71.4138 33.5853 70.7467 36.7532C70.3903 38.4211 70.7766 39.807 72.6264 39.807C73.7774 39.807 74.6535 39.333 75.4301 38.3491H75.4679L75.3106 39.615H77.7858C77.8515 39.029 77.9032 38.4211 78.0287 37.8351L79.0402 33.0574Z" fill="white"/>
<path d="M83.7538 30.0436H81.0915L79.0684 39.615H81.7287L83.1265 33.0174C83.3057 32.1654 83.5965 31.4995 84.4447 31.4995C85.297 31.4995 85.3049 32.1654 85.1257 33.0174L83.7279 39.615H86.3902L88.017 31.9394C88.2978 30.6135 87.344 29.8516 86.0795 29.8516C85.0759 29.8516 84.2974 30.1535 83.5865 31.0095H83.5507L83.7538 30.0436Z" fill="white"/>
<path d="M90.3127 39.615L91.4158 34.4013H91.4536L92.8256 39.615H95.8304L93.9467 34.3073L97.5488 30.0436H94.775L91.5233 34.0773H91.4875L93.2139 25.9238H90.5476L87.6523 39.615H90.3127Z" fill="white"/>
<path d="M102.904 38.1011C101.922 38.1011 101.81 37.4751 102.428 34.5533C102.848 32.5614 103.157 31.5575 104.29 31.5575C105.423 31.5575 105.305 32.5614 104.883 34.5533C104.264 37.4751 103.885 38.1011 102.904 38.1011ZM102.547 39.807C105.98 39.807 106.878 37.7031 107.515 34.7053C108.065 32.0874 108.161 29.8516 104.652 29.8516C101.137 29.8516 100.287 32.0874 99.7336 34.7053C99.1003 37.7031 99.1083 39.807 102.547 39.807Z" fill="white"/>
<path d="M114.573 25.868C114.256 25.8481 113.954 25.832 113.635 25.832C110.385 25.832 110.306 27.2899 109.742 30.0418H108.534L108.185 31.6877H109.374L107.697 39.6132H110.36L112.034 31.6877H113.283L113.631 30.0418H112.385L112.63 28.8839C112.837 27.9139 113.147 27.4959 114.209 27.5739L114.573 25.868Z" fill="white"/>
<path d="M119.694 33.6215H121.355C122.789 33.6215 123.085 34.3594 122.83 35.5754C122.422 37.4872 121.058 37.5112 120.455 37.5112H118.87L119.694 33.6215ZM120.877 28.0258H122.631C123.595 28.0258 124.119 28.7698 123.906 29.7717C123.627 31.0996 122.667 31.5156 122.046 31.5156H120.138L120.877 28.0258ZM120.614 39.6111C121.821 39.6111 124.857 39.4611 125.592 35.9913C125.988 34.1194 125.738 32.8035 123.778 32.5215L123.784 32.4815C125.395 32.1796 126.411 31.0416 126.747 29.4677C127.362 26.5499 125.704 25.9199 123.529 25.9199H118.469L115.574 39.6111L120.614 39.6111Z" fill="white"/>
<path d="M131.745 34.9913C131.52 36.0332 131.321 38.1591 129.754 38.1591C128.886 38.1591 128.95 37.3211 129.097 36.6432C129.455 34.9293 130.413 35.0473 131.745 34.9913ZM134.762 33.0574C135.13 31.3095 135.005 29.8516 131.624 29.8516C130.606 29.8516 129.702 30.0215 129.001 30.4775C128.285 30.9135 127.769 31.6555 127.524 32.8074H130.13C130.292 32.0554 130.517 31.3495 131.439 31.3495C132.402 31.3495 132.391 31.9394 132.219 32.7574L132.062 33.4913C129.597 33.4553 127.134 33.5853 126.465 36.7532C126.114 38.4211 126.498 39.807 128.346 39.807C129.499 39.807 130.375 39.333 131.15 38.3491H131.188L131.032 39.615H133.502C133.573 39.029 133.627 38.4211 133.751 37.8351L134.762 33.0574Z" fill="white"/>
<path d="M136.812 30.0436L134.789 39.615H137.451L138.555 34.4033C138.754 33.4553 139.08 32.0874 141.39 32.2414L141.894 29.8516C140.819 29.8516 139.845 30.1735 139.12 31.2735H139.082L139.343 30.0436H136.812Z" fill="white"/>
<path d="M144.255 38.1011C143.275 38.1011 143.16 37.4751 143.781 34.5533C144.201 32.5614 144.51 31.5575 145.643 31.5575C146.776 31.5575 146.656 32.5614 146.234 34.5533C145.615 37.4751 145.24 38.1011 144.255 38.1011ZM143.898 39.807C147.331 39.807 148.227 37.7031 148.863 34.7053C149.42 32.0874 149.514 29.8516 146.001 29.8516C142.491 29.8516 141.638 32.0874 141.085 34.7053C140.452 37.7031 140.461 39.807 143.898 39.807Z" fill="white"/>
<path d="M152.774 38.1571C151.814 38.1571 151.86 37.1532 152.366 34.7413C152.77 32.8274 153.033 31.4975 154.188 31.4975C155.279 31.4975 154.98 32.8274 154.578 34.7413C154.07 37.1532 153.682 38.1571 152.774 38.1571ZM156.207 39.613L159.104 25.9238H156.44L155.374 30.9495H155.343C154.964 30.1316 154.363 29.8496 153.401 29.8496C150.719 29.8496 150.167 32.8274 149.757 34.7573C149.341 36.7352 148.594 39.805 151.352 39.805C152.372 39.805 153.178 39.483 153.865 38.5531H153.899L153.68 39.613H156.207Z" fill="white"/>
<path d="M163.162 34.9913C162.943 36.0332 162.738 38.1591 161.171 38.1591C160.304 38.1591 160.364 37.3211 160.51 36.6432C160.872 34.9293 161.828 35.0473 163.162 34.9913ZM166.181 33.0574C166.549 31.3095 166.424 29.8516 163.042 29.8516C162.023 29.8516 161.121 30.0215 160.418 30.4775C159.703 30.9135 159.185 31.6555 158.944 32.8074H161.549C161.708 32.0554 161.931 31.3495 162.859 31.3495C163.821 31.3495 163.811 31.9394 163.64 32.7574L163.479 33.4913C161.019 33.4553 158.55 33.5853 157.879 36.7532C157.527 38.4211 157.915 39.807 159.765 39.807C160.916 39.807 161.792 39.333 162.563 38.3491H162.6L162.447 39.615H164.924C164.988 39.029 165.04 38.4211 165.171 37.8351L166.181 33.0574Z" fill="white"/>
</g>
<defs>
<clipPath id="clip0_828_5030">
<rect width="174" height="40" fill="white"/>
</clipPath>
</defs>
</svg>
