<svg width="144" height="40" viewBox="0 0 144 40" fill="none" xmlns="http://www.w3.org/2000/svg">
<g clip-path="url(#clip0_828_4984)">
<path d="M24.3859 37.4645L29.8414 30.2442L25.7403 29.6795L23.4333 32.4669C22.9315 33.0738 22.0941 32.7091 21.6578 32.3977L9.83781 23.9456C9.3905 23.6259 9.76809 23.0647 10.232 22.9879L22.0755 21.0337L23.4906 18.6172L4.9988 21.6689C4.30988 21.781 3.78594 22.5699 4.4148 23.0868L21.7579 37.3607C22.3709 37.8652 23.6846 38.396 24.3859 37.4645Z" fill="white"/>
<path d="M35.9212 1.63624L50.1525 27.6299C51.6042 30.2796 50.1455 33.0393 47.657 32.696L31.1602 30.4249L32.7962 27.6264L44.7012 29.1682C45.9389 29.3384 45.8091 28.4859 45.2872 27.5302L35.2475 6.54738C35.0356 6.16124 34.319 5.95987 34.076 6.37714L22.9622 25.356C22.6329 25.9186 22.5411 26.2929 23.2562 26.3912L27.9572 27.0002L25.74 29.6782L19.7716 28.8561C18.6588 28.7025 18.1722 27.6984 18.8314 26.5725L33.1476 2.12341C33.7916 1.02451 35.0218 -0.00518799 35.9212 1.63624Z" fill="white"/>
<path d="M31.9044 27.5115L33.0585 25.9829L38.1495 19.2456C39.2823 17.7474 39.0448 16.0499 37.5061 16.3025L28.5267 17.7848L27.3822 20.1569L32.1977 19.3618C33.2359 19.1909 33.4416 20.3729 32.6319 21.3513L29.3689 25.293L27.9551 27.0001L24.0508 31.7175L27.2628 33.6531L31.9044 27.5115Z" fill="white"/>
<path d="M62.0113 19.8682H61.6213C61.3486 19.0378 61.1132 18.3777 60.9124 17.8877C60.7115 17.3978 60.5134 17.0227 60.318 16.7632C60.124 16.5037 59.9073 16.3335 59.6712 16.2525C59.4337 16.1722 59.1445 16.1314 58.8021 16.1314C58.341 16.1314 57.9247 16.2262 57.552 16.4172C57.1799 16.6075 56.8603 16.9307 56.5945 17.386C56.3288 17.842 56.1244 18.4475 55.9822 19.2025C55.8407 19.9575 55.7689 20.8952 55.7689 22.0134C55.7689 23.1442 55.8338 24.0839 55.9643 24.8333C56.0941 25.5835 56.2929 26.1855 56.5579 26.6408C56.8244 27.0969 57.1544 27.4193 57.5506 27.6096C57.9461 27.7999 58.4162 27.8948 58.9602 27.8948C59.326 27.8948 59.6394 27.8228 59.8997 27.6782C60.1599 27.5342 60.3932 27.2976 60.6003 26.9695C60.8067 26.6402 60.9959 26.2056 61.1671 25.663C61.3383 25.1205 61.5247 24.4465 61.7262 23.6389H62.1156V27.5481C61.6192 27.802 61.1022 27.9868 60.5644 28.1024C60.0267 28.2172 59.4917 28.2754 58.9602 28.2754C58.2029 28.2754 57.4974 28.128 56.8417 27.8339C56.1852 27.5398 55.6157 27.1218 55.1304 26.5793C54.6451 26.0367 54.2641 25.38 53.9873 24.6064C53.7091 23.8341 53.5703 22.9691 53.5703 22.0114C53.5703 21.0543 53.7091 20.1893 53.9873 19.4163C54.2641 18.6434 54.6458 17.9867 55.1304 17.4441C55.615 16.9023 56.1845 16.4836 56.8417 16.1895C57.4974 15.8954 58.2036 15.748 58.9602 15.748C59.5635 15.748 60.113 15.8089 60.6093 15.93C61.1056 16.0511 61.573 16.2096 62.0099 16.4061V19.8682H62.0113Z" fill="white" stroke="white" stroke-width="0.23"/>
<path d="M64.476 22.359V19.5564C64.9033 19.3723 65.3202 19.2222 65.7261 19.1066C66.1313 18.991 66.5531 18.9336 66.9922 18.9336C67.5071 18.9336 67.9517 19 68.3244 19.1329C68.6972 19.2658 69.0064 19.436 69.2536 19.6429C69.5007 19.8498 69.6816 20.0872 69.7962 20.3522C69.9114 20.6179 69.9687 20.883 69.9687 21.1473V27.6182H70.7584V27.9988H68.5225V26.4764H68.4894C68.292 27.0189 67.9737 27.4542 67.5354 27.7829C67.0964 28.1116 66.5814 28.2763 65.9898 28.2763C65.2443 28.2763 64.6417 28.0652 64.1812 27.6445C63.7208 27.2238 63.4902 26.6328 63.4902 25.8709C63.4902 25.3637 63.5751 24.9575 63.7449 24.6509C63.9148 24.3457 64.1426 24.1035 64.4277 23.9243C64.7121 23.7458 65.0331 23.6129 65.3899 23.5264C65.7461 23.4399 66.1106 23.3624 66.4834 23.2932C66.8561 23.2233 67.2199 23.1458 67.5768 23.0593C67.933 22.9728 68.2485 22.8427 68.5225 22.6697V20.8539C68.5225 20.3003 68.3928 19.9059 68.136 19.6692C67.8778 19.4325 67.5299 19.3142 67.0908 19.3142C66.8058 19.3142 66.5648 19.3599 66.3674 19.4526C66.17 19.5453 65.9919 19.7038 65.8331 19.9287C65.6744 20.1529 65.5184 20.4643 65.3644 20.8629C65.2105 21.2615 65.0351 21.7597 64.8377 22.359H64.476ZM68.5219 23.1209C68.0614 23.3513 67.6252 23.5077 67.2137 23.588C66.803 23.669 66.444 23.7755 66.1369 23.9084C65.8297 24.0406 65.5853 24.2454 65.4045 24.5222C65.2236 24.799 65.1332 25.2495 65.1332 25.8716C65.1332 26.529 65.245 26.9906 65.47 27.2556C65.6944 27.5213 66.0264 27.6535 66.4648 27.6535C67.0888 27.6307 67.5879 27.3276 67.9606 26.7449C68.3334 26.1622 68.5205 25.3927 68.5205 24.435V23.1209H68.5219Z" fill="white" stroke="white" stroke-width="0.23"/>
<path d="M71.793 19.2104H74.0951V20.3868H74.1283C74.325 20.018 74.6156 19.683 75.0001 19.3834C75.3839 19.0838 75.8658 18.9336 76.447 18.9336C76.7763 18.9336 77.0745 18.9772 77.3437 19.0637C77.6122 19.1502 77.8455 19.2941 78.0423 19.4962C78.2397 19.6976 78.3936 19.9605 78.5027 20.283C78.6125 20.6062 78.667 21.0041 78.667 21.4774V27.6189H79.5554V27.9995H76.1674V27.6189H77.1214V21.2698C77.1214 20.6235 77.0255 20.1771 76.8336 19.9287C76.6423 19.681 76.3545 19.5564 75.9707 19.5564C75.7401 19.5564 75.5213 19.6083 75.3128 19.7128C75.1043 19.8159 74.9207 19.9778 74.762 20.1965C74.6032 20.4159 74.4741 20.6899 74.3754 21.0186C74.276 21.348 74.227 21.7369 74.227 22.1867V27.6196H75.181V28.0002H71.7937V27.6196H72.6814V19.591H71.7937V19.2104H71.793Z" fill="white" stroke="white" stroke-width="0.23"/>
<path d="M81.8432 22.359V19.5564C82.2705 19.3723 82.6874 19.2222 83.0933 19.1066C83.4985 18.991 83.9203 18.9336 84.3593 18.9336C84.8743 18.9336 85.3189 19 85.6916 19.1329C86.0644 19.2658 86.3737 19.436 86.6208 19.6429C86.8679 19.8498 87.0488 20.0872 87.1634 20.3522C87.2786 20.6179 87.3359 20.883 87.3359 21.1473V27.6182H88.1256V27.9988H85.8897V26.4764H85.8566C85.6592 27.0189 85.3409 27.4542 84.9026 27.7829C84.4636 28.1116 83.9486 28.2763 83.357 28.2763C82.6115 28.2763 82.0088 28.0652 81.5484 27.6445C81.088 27.2238 80.8574 26.6328 80.8574 25.8709C80.8574 25.3637 80.9423 24.9575 81.1121 24.6509C81.282 24.3457 81.5098 24.1035 81.7948 23.9243C82.0792 23.7458 82.4002 23.6129 82.7571 23.5264C83.1133 23.4399 83.4778 23.3624 83.8506 23.2932C84.2233 23.2233 84.5871 23.1458 84.944 23.0593C85.3002 22.9728 85.6157 22.8427 85.8897 22.6697V20.8539C85.8897 20.3003 85.7599 19.9059 85.5032 19.6692C85.245 19.4325 84.8971 19.3142 84.458 19.3142C84.1729 19.3142 83.932 19.3599 83.7346 19.4526C83.5372 19.5453 83.3591 19.7038 83.2003 19.9287C83.0415 20.1529 82.8855 20.4643 82.7316 20.8629C82.5776 21.2615 82.4023 21.7597 82.2049 22.359H81.8432ZM85.8884 23.1209C85.4279 23.3513 84.9917 23.5077 84.5802 23.588C84.1695 23.669 83.8106 23.7755 83.5034 23.9084C83.1962 24.0406 82.9518 24.2454 82.771 24.5222C82.5901 24.799 82.4997 25.2495 82.4997 25.8716C82.4997 26.529 82.6115 26.9906 82.8365 27.2556C83.0609 27.5213 83.3929 27.6535 83.8313 27.6535C84.4553 27.6307 84.9544 27.3276 85.3271 26.7449C85.6999 26.1622 85.887 25.3927 85.887 24.435V23.1209H85.8884Z" fill="white" stroke="white" stroke-width="0.23"/>
<path d="M90.1787 19.5923H89.291V19.2117H91.6919V20.4926H91.725C91.9004 19.9853 92.144 19.5985 92.4574 19.3334C92.7695 19.0684 93.1892 18.9355 93.7152 18.9355C93.9236 18.9355 94.1342 18.9729 94.3482 19.0483C94.5622 19.1238 94.7292 19.1895 94.85 19.2476V22.6384H94.4883L93.9133 20.8565C93.7593 20.3957 93.6275 20.0635 93.5184 19.8614C93.4087 19.6601 93.2554 19.5583 93.058 19.5583C92.8937 19.5583 92.7287 19.6331 92.5644 19.7832C92.4001 19.9334 92.2579 20.1382 92.1371 20.3977C92.0163 20.6572 91.9176 20.9576 91.841 21.2973C91.7644 21.6378 91.7257 22.0039 91.7257 22.3962V27.6209H92.8109V28.0015H89.2917V27.6209H90.1794V19.5923H90.1787Z" fill="white" stroke="white" stroke-width="0.23"/>
<path d="M97.0698 22.359V19.5564C97.497 19.3723 97.914 19.2222 98.3199 19.1066C98.7251 18.991 99.1469 18.9336 99.5859 18.9336C100.101 18.9336 100.545 19 100.918 19.1329C101.291 19.2658 101.6 19.436 101.847 19.6429C102.094 19.8498 102.275 20.0872 102.39 20.3522C102.505 20.6179 102.562 20.883 102.562 21.1473V27.6182H103.352V27.9988H101.116V26.4764H101.083C100.886 27.0189 100.567 27.4542 100.129 27.7829C99.6901 28.1116 99.1752 28.2763 98.5836 28.2763C97.838 28.2763 97.2354 28.0652 96.775 27.6445C96.3145 27.2238 96.084 26.6328 96.084 25.8709C96.084 25.3637 96.1689 24.9575 96.3387 24.6509C96.5085 24.3457 96.7363 24.1035 97.0214 23.9243C97.3058 23.7458 97.6268 23.6129 97.9837 23.5264C98.3399 23.4399 98.7044 23.3624 99.0771 23.2932C99.4499 23.2233 99.8137 23.1458 100.171 23.0593C100.527 22.9728 100.842 22.8427 101.116 22.6697V20.8539C101.116 20.3003 100.987 19.9059 100.73 19.6692C100.472 19.4325 100.124 19.3142 99.6846 19.3142C99.3995 19.3142 99.1586 19.3599 98.9612 19.4526C98.7637 19.5453 98.5856 19.7038 98.4269 19.9287C98.2681 20.1529 98.1121 20.4643 97.9582 20.8629C97.8042 21.2615 97.6289 21.7597 97.4314 22.359H97.0698ZM101.115 23.1209C100.654 23.3513 100.218 23.5077 99.8068 23.588C99.3961 23.669 99.0371 23.7755 98.7299 23.9084C98.4227 24.0406 98.1784 24.2454 97.9975 24.5222C97.8167 24.799 97.7262 25.2495 97.7262 25.8716C97.7262 26.529 97.8381 26.9906 98.0631 27.2556C98.2874 27.5213 98.6195 27.6535 99.0578 27.6535C99.6819 27.6307 100.181 27.3276 100.554 26.7449C100.926 26.1622 101.114 25.3927 101.114 24.435V23.1209H101.115Z" fill="white" stroke="white" stroke-width="0.23"/>
<path d="M110.109 16.4099H109.122V16.0293H113.825C114.352 16.0293 114.828 16.0985 115.256 16.2369C115.684 16.3753 116.046 16.5656 116.342 16.8078C116.638 17.05 116.868 17.3386 117.032 17.6728C117.196 18.007 117.278 18.3703 117.278 18.7627C117.278 19.2125 117.199 19.6049 117.04 19.9391C116.881 20.274 116.67 20.5536 116.407 20.7785C116.144 21.0034 115.847 21.1826 115.519 21.3148C115.19 21.447 114.855 21.5425 114.516 21.5999V21.6345C115.678 21.7501 116.566 22.0732 117.18 22.6033C117.793 23.1341 118.101 23.797 118.101 24.5928C118.101 25.0772 118.001 25.527 117.804 25.9422C117.607 26.3574 117.305 26.7179 116.899 27.0238C116.494 27.3297 115.981 27.5684 115.361 27.7414C114.742 27.9144 114.005 28.0009 113.15 28.0009H109.121V27.6203H110.108V16.4099H110.109ZM111.885 21.5314H112.822C113.655 21.5314 114.294 21.3321 114.737 20.9342C115.182 20.537 115.404 19.8526 115.404 18.8845C115.404 18.0077 115.231 17.3766 114.886 16.9898C114.54 16.6037 114.044 16.4106 113.398 16.4106H111.885V21.5314ZM111.885 27.621H112.658C113.83 27.621 114.691 27.3989 115.239 26.9546C115.787 26.5104 116.061 25.7346 116.061 24.6281C116.061 23.6358 115.842 22.9362 115.404 22.5265C114.965 22.1168 114.28 21.912 113.348 21.912H111.884V27.621H111.885Z" fill="white" stroke="white" stroke-width="0.23"/>
<path d="M120.535 22.359V19.5564C120.962 19.3723 121.379 19.2222 121.785 19.1066C122.19 18.991 122.612 18.9336 123.051 18.9336C123.566 18.9336 124.01 19 124.383 19.1329C124.756 19.2658 125.065 19.436 125.312 19.6429C125.559 19.8498 125.74 20.0872 125.855 20.3522C125.97 20.6179 126.027 20.883 126.027 21.1473V27.6182H126.817V27.9988H124.581V26.4764H124.548C124.351 27.0189 124.032 27.4542 123.594 27.7829C123.155 28.1116 122.64 28.2763 122.048 28.2763C121.303 28.2763 120.7 28.0652 120.24 27.6445C119.779 27.2238 119.549 26.6328 119.549 25.8709C119.549 25.3637 119.634 24.9575 119.804 24.6509C119.973 24.3457 120.201 24.1035 120.486 23.9243C120.771 23.7458 121.092 23.6129 121.449 23.5264C121.805 23.4399 122.169 23.3624 122.542 23.2932C122.915 23.2233 123.279 23.1458 123.635 23.0593C123.992 22.9728 124.307 22.8427 124.581 22.6697V20.8539C124.581 20.3003 124.451 19.9059 124.195 19.6692C123.936 19.4325 123.588 19.3142 123.149 19.3142C122.864 19.3142 122.623 19.3599 122.426 19.4526C122.229 19.5453 122.05 19.7038 121.892 19.9287C121.733 20.1529 121.577 20.4643 121.423 20.8629C121.269 21.2615 121.094 21.7597 120.896 22.359H120.535ZM124.58 23.1209C124.12 23.3513 123.684 23.5077 123.272 23.588C122.862 23.669 122.503 23.7755 122.195 23.9084C121.888 24.0406 121.644 24.2454 121.463 24.5222C121.282 24.799 121.192 25.2495 121.192 25.8716C121.192 26.529 121.304 26.9906 121.529 27.2556C121.753 27.5213 122.085 27.6535 122.523 27.6535C123.147 27.6307 123.646 27.3276 124.019 26.7449C124.392 26.1622 124.579 25.3927 124.579 24.435V23.1209H124.58Z" fill="white" stroke="white" stroke-width="0.23"/>
<path d="M127.854 19.2104H130.156V20.3868H130.189C130.386 20.018 130.676 19.683 131.061 19.3834C131.444 19.0838 131.926 18.9336 132.508 18.9336C132.837 18.9336 133.135 18.9772 133.404 19.0637C133.673 19.1502 133.906 19.2941 134.103 19.4962C134.3 19.6976 134.454 19.9605 134.563 20.283C134.673 20.6062 134.728 21.0041 134.728 21.4774V27.6189H135.616V27.9995H132.228V27.6189H133.182V21.2698C133.182 20.6235 133.086 20.1771 132.894 19.9287C132.703 19.681 132.415 19.5564 132.031 19.5564C131.801 19.5564 131.582 19.6083 131.373 19.7128C131.165 19.8159 130.981 19.9778 130.823 20.1965C130.664 20.4159 130.535 20.6899 130.436 21.0186C130.337 21.348 130.288 21.7369 130.288 22.1867V27.6196H131.242V28.0002H127.854V27.6196H128.742V19.591H127.854V19.2104H127.854Z" fill="white" stroke="white" stroke-width="0.23"/>
<path d="M136.781 28.0009V27.6203H137.669V16.4099H136.781V16.0293H139.215V23.2607L142.306 19.5924H141.254V19.2118H143.623V19.5924H142.833L140.482 22.4469L143.853 27.6203H144.314V28.0009H142.275L139.248 23.3991H139.215V27.621H140.268V28.0016H136.781V28.0009Z" fill="white" stroke="white" stroke-width="0.23"/>
</g>
<defs>
<clipPath id="clip0_828_4984">
<rect width="144" height="40" fill="white"/>
</clipPath>
</defs>
</svg>
