<svg width="40" height="40" viewBox="0 0 40 40" fill="none" xmlns="http://www.w3.org/2000/svg">
<path d="M5 36.6673V20.0007C5 16.8573 5 15.2873 5.97667 14.3107C6.95333 13.334 8.52333 13.334 11.6667 13.334C14.81 13.334 16.38 13.334 17.3567 14.3107C18.3333 15.2873 18.3333 16.8573 18.3333 20.0007" stroke="#1B1A1F"/>
<path d="M28.3327 36.6667V26.6667C28.3327 23.5233 28.3327 21.9533 27.356 20.9767C26.3793 20 24.8093 20 21.666 20H18.3327C15.1893 20 13.6193 20 12.6427 20.9767C11.666 21.9533 11.666 23.5233 11.666 26.6667V36.6667" stroke="#1B1A1F"/>
<path d="M34.9993 36.6683V12.9549C34.9993 10.7216 34.9993 9.60326 34.406 8.74659C33.8127 7.88992 32.766 7.49659 30.6727 6.71326C26.581 5.17826 24.536 4.41159 23.101 5.40492C21.666 6.40159 21.666 8.58492 21.666 12.9549V20.0016" stroke="#1B1A1F"/>
<path d="M6.66634 13.334V10.834C6.66634 9.26232 6.66634 8.47732 7.15467 7.98898C7.64301 7.50065 8.42801 7.50065 9.99967 7.50065H13.333C14.9047 7.50065 15.6897 7.50065 16.178 7.98898C16.6663 8.47732 16.6663 9.26232 16.6663 10.834V13.334M11.6663 6.66732V3.33398M36.6663 36.6673H3.33301M16.6663 25.0007H23.333M16.6663 30.0007H23.333" stroke="#1B1A1F" stroke-linecap="round"/>
</svg>
