<svg width="40" height="40" viewBox="0 0 40 40" fill="none" xmlns="http://www.w3.org/2000/svg">
<path d="M20.333 22.5516V36.5M26.3324 10.5178V4.5M14.3336 10.5178V4.5M29.333 14.0733V18.996C29.333 19.939 28.9537 20.8434 28.2786 21.5102C27.6035 22.177 26.6878 22.5516 25.733 22.5516H14.933C13.9782 22.5516 13.0626 22.177 12.3874 21.5102C11.7123 20.8434 11.333 19.939 11.333 18.996V14.0716C11.333 13.1286 11.7123 12.2242 12.3874 11.5574C13.0626 10.8906 13.9782 10.516 14.933 10.516H25.733C26.6878 10.516 27.6035 10.8906 28.2786 11.5574C28.9537 12.2242 29.333 13.1286 29.333 14.0716V14.0733Z" stroke="black" stroke-linecap="round"/>
</svg>
