<svg width="40" height="40" viewBox="0 0 40 40" fill="none" xmlns="http://www.w3.org/2000/svg">
<path d="M13.518 26.4827L26.483 13.516M3.33464 36.666L6.41464 33.586M36.668 3.33268L33.588 6.41268M3.5013 16.4627L23.5363 36.4993L23.2413 36.7927L20.3463 36.446C17.4296 36.096 14.4763 36.676 11.8496 37.9894L11.163 38.3327L1.66797 28.8377L2.0113 28.151C3.32464 25.5244 3.90464 22.571 3.55464 19.6544L3.20797 16.7593L3.5013 16.4627ZM16.468 3.50268L36.5013 23.536L36.7963 23.241L36.4496 20.346C36.0996 17.4294 36.6796 14.476 37.993 11.8493L38.3346 11.161L28.8396 1.66602L28.1513 2.00935C25.5263 3.32268 22.5713 3.90268 19.6563 3.55268L16.7596 3.20602L16.468 3.50268Z" stroke="#1B1A1F"/>
</svg>
