<svg width="40" height="40" viewBox="0 0 40 40" fill="none" xmlns="http://www.w3.org/2000/svg">
<g clip-path="url(#clip0_828_4781)">
<path d="M0 39.1673C1.32608 39.1673 2.59785 38.6405 3.53553 37.7029C4.47322 36.7652 5 35.4934 5 34.1673C5 35.4934 5.52678 36.7652 6.46447 37.7029C7.40215 38.6405 8.67392 39.1673 10 39.1673C11.3261 39.1673 12.5979 38.6405 13.5355 37.7029C14.4732 36.7652 15 35.4934 15 34.1673C15 35.4934 15.5268 36.7652 16.4645 37.7029C17.4021 38.6405 18.6739 39.1673 20 39.1673C21.3261 39.1673 22.5979 38.6405 23.5355 37.7029C24.4732 36.7652 25 35.4934 25 34.1673C25 35.4934 25.5268 36.7652 26.4645 37.7029C27.4021 38.6405 28.6739 39.1673 30 39.1673C31.3261 39.1673 32.5979 38.6405 33.5355 37.7029C34.4732 36.7652 35 35.4934 35 34.1673C35 35.4934 35.5268 36.7652 36.4645 37.7029C37.4021 38.6405 38.6739 39.1673 40 39.1673M5 5.00065V4.16732C5 3.28326 5.35119 2.43542 5.97631 1.8103C6.60143 1.18517 7.44928 0.833984 8.33333 0.833984C9.21739 0.833984 10.0652 1.18517 10.6904 1.8103C11.3155 2.43542 11.6667 3.28326 11.6667 4.16732V20.834C11.6667 23.8123 12.3333 27.4573 14.2583 28.794C14.7117 29.109 15.2817 29.1673 15.8333 29.1673M21.6667 5.00065V4.16732C21.6667 3.28326 22.0179 2.43542 22.643 1.8103C23.2681 1.18517 24.1159 0.833984 25 0.833984C25.8841 0.833984 26.7319 1.18517 27.357 1.8103C27.9821 2.43542 28.3333 3.28326 28.3333 4.16732V20.834C28.3333 23.8123 29 27.4573 30.925 28.794C31.3783 29.109 31.9483 29.1673 32.5 29.1673M11.6667 15.834H28.3333M11.6667 9.16732H28.3333M11.735 22.5007H28.4017" stroke="#1B1A1F"/>
</g>
<defs>
<clipPath id="clip0_828_4781">
<rect width="40" height="40" fill="white"/>
</clipPath>
</defs>
</svg>
