<svg width="40" height="40" viewBox="0 0 40 40" fill="none" xmlns="http://www.w3.org/2000/svg">
<path d="M7.32955 32.6698C10.5721 35.9123 15.0512 37.9173 19.9987 37.9173C24.9462 37.9173 29.4262 35.9115 32.6679 32.6698C34.2635 31.0793 35.5433 29.2009 36.4396 27.134M32.6679 7.33148C34.3342 8.99332 35.6556 10.9681 36.5561 13.1423C37.4567 15.3165 37.9186 17.6473 37.9154 20.0007M2.08205 20.0007C2.08205 10.1057 10.1037 2.08398 19.9987 2.08398C22.1854 2.21565 24.3846 2.75315 26.4904 3.73482M2.08205 20.0007H8.06122C8.06122 18.3523 8.39455 16.7823 8.99955 15.354M2.08205 20.0007C2.07851 22.2534 2.5018 24.4864 3.32955 26.5815M14.0404 20.0007C14.0404 18.3557 14.7071 16.8657 15.7854 15.7873C16.8637 14.709 18.3537 14.0423 19.9987 14.0423V8.06315M15.7854 24.214C16.8637 25.2923 18.3537 25.959 19.9987 25.959V31.9382C18.4306 31.9402 16.8776 31.6324 15.4289 31.0323C13.9802 30.4322 12.6644 29.5518 11.5571 28.4415M24.2121 15.7873C25.2904 16.8657 25.9571 18.3557 25.9571 20.0007M25.9571 20.0007C25.9571 21.6457 25.2904 23.1357 24.2121 24.214M25.9571 20.0007H31.9362C31.9383 21.5687 31.6305 23.1218 31.0304 24.5705C30.4303 26.0192 29.5498 27.335 28.4396 28.4423M11.5571 11.559C13.7179 9.39898 16.7021 8.06315 19.9987 8.06315M19.9987 8.06315C23.2954 8.06315 26.2796 9.39898 28.4404 11.5598L32.6629 7.33648M11.5579 28.4415L7.33205 32.6673M11.5654 11.5673L7.33205 7.33398M28.4221 28.424L32.6587 32.6607" stroke="#1B1A1F" stroke-linecap="round" stroke-linejoin="round"/>
<path d="M19.9987 21.6673C20.9192 21.6673 21.6654 20.9211 21.6654 20.0007C21.6654 19.0802 20.9192 18.334 19.9987 18.334C19.0782 18.334 18.332 19.0802 18.332 20.0007C18.332 20.9211 19.0782 21.6673 19.9987 21.6673Z" stroke="#1B1A1F" stroke-width="0.5" stroke-linecap="round" stroke-linejoin="round"/>
</svg>
