<svg width="40" height="40" viewBox="0 0 40 40" fill="none" xmlns="http://www.w3.org/2000/svg">
<path d="M27.9173 19.9991H33.9707C34.2546 19.9993 34.5339 20.072 34.7819 20.2104C35.0299 20.3487 35.2384 20.5482 35.3876 20.7898C35.5369 21.0314 35.622 21.3071 35.6347 21.5908C35.6475 21.8745 35.5876 22.1568 35.4607 22.4108L32.0707 29.1925C31.9421 29.4494 31.7493 29.6688 31.511 29.8293C31.2726 29.9898 30.9969 30.0859 30.7104 30.1084C30.424 30.1309 30.1366 30.0789 29.8761 29.9576C29.6157 29.8362 29.391 29.6496 29.224 29.4158L25.684 24.4658M3.33398 31.6658H9.60065C10.2219 31.6701 10.8319 31.5008 11.362 31.1768C11.8921 30.8529 12.3211 30.3872 12.6007 29.8325L15.0007 24.9991M3.33398 34.9991V28.3325M11.6673 14.9991H11.684M28.5107 15.0875C28.9057 15.2852 29.206 15.6317 29.3457 16.0508C29.4854 16.4699 29.453 16.9273 29.2557 17.3225L24.079 27.6741C23.9811 27.8699 23.8455 28.0445 23.6801 28.188C23.5147 28.3314 23.3227 28.4408 23.115 28.51C22.9073 28.5792 22.688 28.6068 22.4696 28.5912C22.2512 28.5756 22.0381 28.5171 21.8423 28.4191L6.01732 20.4991C4.86787 19.9202 3.99457 18.9094 3.58852 17.6881C3.18246 16.4668 3.27671 15.1344 3.85065 13.9825L6.15065 9.33246C6.43732 8.76116 6.83372 8.25193 7.31721 7.83385C7.80071 7.41577 8.36183 7.09703 8.96852 6.89583C9.57521 6.69463 10.2156 6.61491 10.8531 6.66123C11.4906 6.70756 12.1127 6.87901 12.684 7.16579L28.5107 15.0875Z" stroke="#1B1A1F" stroke-linecap="round" stroke-linejoin="round"/>
</svg>
