<svg width="24" height="24" viewBox="0 0 24 24" fill="none" xmlns="http://www.w3.org/2000/svg">
<path d="M13.4174 2.25C12.7709 2.25004 12.1509 2.50687 11.6939 2.964L2.96385 11.694C2.50678 12.1511 2.25 12.7711 2.25 13.4175C2.25 14.0639 2.50678 14.6839 2.96385 15.141L8.85885 21.0368C9.08521 21.2632 9.35395 21.4428 9.64974 21.5654C9.94553 21.6879 10.2626 21.751 10.5827 21.751C10.9029 21.751 11.2199 21.6879 11.5157 21.5654C11.8115 21.4428 12.0803 21.2632 12.3066 21.0368L21.0366 12.3068C21.4935 11.8495 21.75 11.2296 21.7499 10.5833V4.6875C21.7499 4.04103 21.493 3.42105 21.0359 2.96393C20.5788 2.50681 19.9588 2.25 19.3124 2.25H13.4174ZM12.2241 3.49425C12.3808 3.33755 12.5668 3.21325 12.7716 3.12845C12.9763 3.04364 13.1957 3 13.4174 3H19.3124C19.7599 3 20.1891 3.17779 20.5056 3.49426C20.8221 3.81073 20.9999 4.23995 20.9999 4.6875V10.5825C21.0001 10.8042 20.9566 11.0237 20.8719 11.2286C20.7872 11.4335 20.663 11.6196 20.5064 11.7765L11.7764 20.5065C11.6197 20.6632 11.4336 20.7875 11.2289 20.8723C11.0241 20.9571 10.8047 21.0008 10.5831 21.0008C10.3615 21.0008 10.1421 20.9571 9.93732 20.8723C9.73258 20.7875 9.54655 20.6632 9.38985 20.5065L3.4941 14.61C3.3374 14.4533 3.2131 14.2673 3.1283 14.0625C3.04349 13.8578 2.99984 13.6384 2.99984 13.4167C2.99984 13.1951 3.04349 12.9757 3.1283 12.771C3.2131 12.5662 3.3374 12.3802 3.4941 12.2235L12.2241 3.49425ZM17.2499 8.25C17.6477 8.25 18.0292 8.09196 18.3105 7.81066C18.5918 7.52936 18.7499 7.14782 18.7499 6.75C18.7499 6.35218 18.5918 5.97064 18.3105 5.68934C18.0292 5.40804 17.6477 5.25 17.2499 5.25C16.852 5.25 16.4705 5.40804 16.1892 5.68934C15.9079 5.97064 15.7499 6.35218 15.7499 6.75C15.7499 7.14782 15.9079 7.52936 16.1892 7.81066C16.4705 8.09196 16.852 8.25 17.2499 8.25Z" fill="#8B8E72"/>
</svg>
