<svg width="89" height="40" viewBox="0 0 89 40" fill="none" xmlns="http://www.w3.org/2000/svg">
<g clip-path="url(#clip0_828_5022)">
<path d="M19.1126 22.8047L19.0977 22.8286L19.1005 22.8435L19.1104 22.8497H19.1179L19.1291 22.846L19.1344 22.837L19.1366 22.828L19.1304 22.8162L19.1126 22.8047Z" fill="white"/>
<path d="M41.6165 0.0138285H45.9013V21.2663H54.8943V24.9119H41.6165V0.0138285ZM59.5472 24.9126H63.8564V0.01476H59.5472V24.9126ZM78.8135 16.1087L83.0986 16.1056C83.0986 19.0024 82.5436 21.2843 81.4353 22.9486C80.3248 24.613 79.0264 25.4456 76.321 25.4456C73.1292 25.4456 71.6042 24.6555 70.3591 23.0759C69.1255 21.4867 68.5093 18.8624 68.5093 15.2053V9.9316C68.5093 6.00435 69.1529 3.2826 70.4436 1.76821C71.7432 0.243254 73.1105 -0.519531 75.9271 -0.519531C78.5741 -0.519531 80.0804 0.157259 81.2561 1.5096C82.4332 2.86194 83.022 4.95688 83.022 7.79133L78.6274 7.79443C78.6274 6.26141 78.4638 5.12235 78.1371 4.37726C77.8105 3.63217 77.1909 3.25901 76.279 3.25901C73.9919 3.25901 72.8493 4.98761 72.8493 8.44452V16.5135C72.8493 18.3719 73.1417 19.6954 73.7276 20.4827C74.3251 21.2725 75.1866 21.6661 76.3129 21.6661C77.1688 21.6661 77.7996 21.2511 78.206 20.4215C78.6103 19.5818 78.8135 18.1447 78.8135 16.1087ZM0.00585938 36.9029H0.631072V39.4207H1.94071V39.9423H0.00585938V36.9029ZM2.50484 39.9432H3.13005V36.9029H2.50484V39.9432ZM3.9245 36.9029H5.87899V37.4248H4.55626V38.2279H5.31985V38.7495H4.55626V39.9426H3.9245V36.9029ZM6.4054 36.9029H8.53817V37.4248H7.03062V38.1028H7.95223V38.5549H7.03062V39.421H8.53817V39.9426H6.4054V36.9029ZM10.483 39.9432H11.1079V36.9029H10.483V39.9432ZM11.8958 36.9029H12.5647L13.8568 38.9426V36.9029H14.4821V39.9423H13.8553L12.5207 37.8231V39.9423H11.8955V36.9029M15.6134 39.0888C15.7188 39.2431 15.8216 39.3512 15.9242 39.4117C16.0258 39.4732 16.1451 39.5033 16.2838 39.5033C16.4499 39.5033 16.5793 39.4642 16.6719 39.3856C16.765 39.3061 16.8118 39.2139 16.8118 39.1068C16.8118 39.0131 16.775 38.9302 16.7018 38.8588C16.6267 38.7877 16.4602 38.7197 16.2022 38.653C15.8484 38.5645 15.5957 38.4558 15.4439 38.3282C15.2534 38.1671 15.1587 37.9681 15.1587 37.7303C15.1587 37.4748 15.2534 37.2643 15.4432 37.097C15.6321 36.9299 15.8924 36.8467 16.2224 36.8467C16.4107 36.8467 16.5774 36.8768 16.7248 36.9368C16.8624 36.9903 16.9891 37.0681 17.0988 37.1665C17.1649 37.2286 17.2313 37.3137 17.2983 37.4214L16.7719 37.625C16.6837 37.5052 16.5942 37.4173 16.5017 37.3618C16.4092 37.3069 16.3033 37.2784 16.1956 37.2795C16.0566 37.2795 15.946 37.3168 15.8631 37.391C15.7795 37.4658 15.7384 37.5558 15.7384 37.6614C15.7384 37.7458 15.773 37.8188 15.8422 37.8793C15.9098 37.9402 16.08 38.0029 16.3515 38.0674C16.6239 38.1326 16.8299 38.2075 16.9704 38.2938C17.105 38.3739 17.2142 38.4902 17.2855 38.6294C17.3557 38.7666 17.3899 38.9081 17.3899 39.0534C17.3899 39.2071 17.3457 39.3608 17.2553 39.5157C17.1649 39.6709 17.0312 39.7895 16.8545 39.873C16.6768 39.9565 16.4736 39.9981 16.2442 39.9981C16.0261 39.9981 15.8372 39.9631 15.6776 39.8932C15.5241 39.8287 15.3858 39.733 15.2715 39.6123C15.2001 39.5368 15.1272 39.4319 15.054 39.2959L15.6134 39.0888ZM17.9968 36.9029H18.622V38.7548C18.622 38.9855 18.6784 39.1593 18.7906 39.2742C18.9025 39.3894 19.0555 39.4465 19.2478 39.4465C19.3712 39.4465 19.4813 39.4232 19.5766 39.3766C19.6753 39.3276 19.7556 39.2486 19.806 39.1509C19.8634 39.0469 19.8927 38.914 19.8927 38.7548V36.9029H20.5244V38.8439C20.5244 39.2146 20.4185 39.4996 20.2062 39.6989C19.994 39.8991 19.6842 39.9994 19.2749 39.9994C19.0396 39.9994 18.8199 39.9634 18.6161 39.8923C18.5177 39.8585 18.4262 39.8075 18.3458 39.7417C18.2416 39.6474 18.1569 39.5336 18.0968 39.4067C18.0298 39.2711 17.9968 39.0891 17.9968 38.8597V36.9029ZM21.2572 36.9029H22.1155C22.5774 36.9029 22.8962 36.9358 23.0723 37.0026C23.25 37.0684 23.3868 37.1786 23.4853 37.331C23.5838 37.4838 23.6327 37.6586 23.6327 37.856C23.6327 38.0383 23.5881 38.1879 23.5003 38.3071C23.4114 38.4257 23.2581 38.5275 23.039 38.612L23.6121 39.942H22.9916L22.4596 38.7244H21.8817V39.942H21.2565V36.9029H21.2572ZM21.8824 37.4307V38.2534H22.3848C22.5684 38.2534 22.7248 38.2034 22.8542 38.1038C22.9392 38.037 22.9813 37.9448 22.9813 37.8256C22.9813 37.7126 22.934 37.6188 22.8398 37.544C22.7451 37.4683 22.5936 37.4307 22.3848 37.4307H21.8824ZM24.9473 36.9029H25.6227L26.6475 39.9423H26.0329L25.7935 39.2329H24.7772L24.5378 39.9423H23.9223L24.9473 36.9029ZM25.2849 37.7259L24.9252 38.7936H25.6452L25.2849 37.7259ZM27.0957 36.9029H27.7645L29.0567 38.9426V36.9029H29.6819V39.9423H29.0552L27.7206 37.8231V39.9423H27.0954L27.0957 36.9029ZM32.8283 39.0702C32.7837 39.2413 32.7276 39.3766 32.659 39.4772C32.5499 39.6405 32.4078 39.7681 32.2333 39.8609C32.0588 39.9538 31.8571 39.9994 31.6277 39.9994C31.3834 39.9993 31.1429 39.9394 30.9274 39.8249C30.7066 39.7084 30.529 39.5244 30.4209 39.2999C30.3059 39.0674 30.2479 38.7933 30.2479 38.4772C30.2479 38.1482 30.3065 37.8576 30.4247 37.6049C30.5418 37.3525 30.7126 37.1625 30.937 37.0367C31.1519 36.9126 31.3959 36.8473 31.6442 36.8474C31.8262 36.8474 32.0045 36.8855 32.1791 36.9619C32.3536 37.0392 32.4979 37.1469 32.6123 37.2873C32.6911 37.3844 32.7547 37.5142 32.8018 37.6753L32.2227 37.8337C32.1806 37.6704 32.1067 37.5465 31.9992 37.4636C31.8923 37.3795 31.7645 37.3376 31.6149 37.3376C31.3915 37.3376 31.2169 37.4403 31.0929 37.6449C30.9688 37.8486 30.9071 38.1162 30.9071 38.4465C30.9071 38.6548 30.9349 38.838 30.9919 38.9945C31.0492 39.1519 31.1275 39.268 31.2275 39.3422C31.3205 39.414 31.4346 39.4532 31.5523 39.4536C31.7274 39.4536 31.8839 39.394 32.0217 39.2739C32.1186 39.1907 32.1946 39.0708 32.2489 38.9144L32.8283 39.0702ZM33.3541 36.9029H35.4868V37.4248H33.9793V38.1028H34.9009V38.5549H33.9793V39.421H35.4868V39.9426H33.3541V36.9029ZM39.7885 39.0702C39.7439 39.2413 39.6875 39.3766 39.6199 39.4772C39.512 39.6385 39.3653 39.7704 39.1932 39.8609C39.0187 39.9538 38.817 39.9994 38.5876 39.9994C38.3434 39.9994 38.1028 39.9394 37.8873 39.8249C37.6663 39.7089 37.489 39.5247 37.3818 39.2999C37.2658 39.0674 37.2079 38.7933 37.2079 38.4772C37.2079 38.1482 37.2665 37.8576 37.3846 37.6049C37.5018 37.3525 37.6726 37.1625 37.897 37.0367C38.1118 36.9126 38.3558 36.8473 38.6042 36.8474C38.7862 36.8474 38.9644 36.8855 39.139 36.9619C39.3135 37.0392 39.4578 37.1469 39.5725 37.2873C39.6514 37.3844 39.7146 37.5142 39.762 37.6753L39.1829 37.8337C39.1409 37.6704 39.067 37.5465 38.9595 37.4636C38.8526 37.3795 38.7248 37.3376 38.5752 37.3376C38.3517 37.3376 38.1781 37.4403 38.0537 37.6449C37.9291 37.8486 37.8664 38.1162 37.8664 38.4465C37.8664 38.6548 37.8951 38.838 37.9521 38.9945C38.0095 39.1519 38.0877 39.268 38.1875 39.3422C38.2875 39.4164 38.3956 39.4536 38.5131 39.4536C38.6877 39.4536 38.8441 39.394 38.9816 39.2739C39.0788 39.1907 39.1546 39.0708 39.2088 38.9144L39.7885 39.0702ZM41.4728 36.847C41.772 36.847 42.0129 36.8949 42.1965 36.9892C42.43 37.108 42.6214 37.2951 42.745 37.5254C42.8706 37.7576 42.9339 38.0631 42.9339 38.4418C42.9339 38.9541 42.8074 39.3422 42.553 39.6048C42.2996 39.8678 41.9649 39.9994 41.5473 39.9994C41.1259 39.9994 40.7859 39.8653 40.5265 39.5977C40.2669 39.3304 40.137 38.9392 40.137 38.4251C40.137 38.1156 40.1896 37.8383 40.295 37.5924C40.3514 37.4562 40.4387 37.3295 40.5552 37.2118C40.6716 37.0947 40.8109 37.0026 40.9644 36.9411C41.1262 36.8773 41.2988 36.8454 41.4728 36.847ZM41.5367 37.3683C41.3216 37.3683 41.1446 37.4503 41.0046 37.6142C40.8647 37.7775 40.7949 38.0485 40.7949 38.4273C40.7949 38.7979 40.8656 39.0655 41.0078 39.2282C41.1499 39.39 41.3313 39.4716 41.5532 39.4716C41.7639 39.4716 41.939 39.3906 42.079 39.2288C42.2189 39.0671 42.2887 38.801 42.2887 38.4332C42.2887 38.0202 42.203 37.7303 42.0328 37.5623C41.9016 37.4329 41.7361 37.3683 41.5367 37.3683ZM43.513 36.9029H44.3713C44.8323 36.9029 45.1514 36.9358 45.3291 37.0026C45.499 37.0639 45.6438 37.1794 45.7411 37.331C45.8396 37.4838 45.8885 37.6586 45.8885 37.856C45.8885 38.0383 45.844 38.1879 45.7564 38.3071C45.6676 38.4257 45.5142 38.5275 45.2951 38.612L45.8686 39.942H45.2477L44.716 38.7244H44.1382V39.942H43.513V36.9029ZM44.1382 37.4307V38.2534H44.6406C44.8242 38.2534 44.9806 38.2034 45.11 38.1038C45.1951 38.037 45.2371 37.9448 45.2371 37.8256C45.2371 37.7126 45.1898 37.6188 45.095 37.544C45.0009 37.4683 44.8488 37.4307 44.6406 37.4307H44.1382ZM46.4717 36.9029H47.479C47.8374 36.9029 48.1054 36.9309 48.2825 36.9864C48.452 37.0372 48.6016 37.1388 48.711 37.2773C48.8195 37.4158 48.8734 37.585 48.8734 37.7846C48.8734 37.9398 48.8422 38.083 48.7802 38.2134C48.7313 38.3127 48.6571 38.4012 48.5589 38.4779C48.4589 38.5542 48.3595 38.6123 48.2604 38.6505C48.0911 38.7172 47.8907 38.7498 47.6607 38.7498H47.1031V39.9429H46.4714V36.9029H46.4717ZM47.1034 37.4248V38.2534H47.6164C47.8075 38.2534 47.9677 38.2025 48.0949 38.1013C48.1796 38.0345 48.222 37.9395 48.222 37.8135C48.222 37.6983 48.1765 37.6045 48.0861 37.5319C47.9961 37.4608 47.8449 37.4248 47.632 37.4248H47.1034ZM50.6088 36.847C50.9074 36.847 51.1486 36.8949 51.3316 36.9892C51.5652 37.1078 51.7567 37.295 51.8801 37.5254C52.0063 37.7576 52.0687 38.0631 52.0687 38.4418C52.0687 38.9541 51.9424 39.3422 51.6887 39.6048C51.4353 39.8678 51.0997 39.9994 50.6827 39.9994C50.2613 39.9994 49.9216 39.8653 49.6613 39.5977C49.4017 39.3304 49.2717 38.9392 49.2717 38.4251C49.2717 38.1156 49.3241 37.8383 49.4294 37.5924C49.4868 37.4562 49.5731 37.3295 49.6906 37.2118C49.8081 37.0942 49.944 37.0041 50.0998 36.9411C50.2618 36.8772 50.4346 36.8453 50.6088 36.847ZM50.6721 37.3683C50.4576 37.3683 50.28 37.4503 50.14 37.6142C50.0001 37.7775 49.93 38.0485 49.93 38.4273C49.93 38.7979 50.0013 39.0655 50.1438 39.2282C50.2853 39.39 50.4673 39.4716 50.6886 39.4716C50.8993 39.4716 51.0744 39.3906 51.2147 39.2288C51.3543 39.0671 51.4244 38.801 51.4244 38.4332C51.4244 38.0202 51.3397 37.7303 51.1695 37.5623C51.0373 37.4329 50.8709 37.3683 50.6721 37.3683ZM52.6487 36.9029H53.507C53.968 36.9029 54.2878 36.9358 54.4648 37.0026C54.6347 37.0639 54.7795 37.1794 54.8768 37.331C54.9753 37.4838 55.0249 37.6586 55.0249 37.856C55.0249 38.0383 54.9797 38.1879 54.8918 38.3071C54.8033 38.4257 54.6499 38.5275 54.4308 38.612L55.0043 39.942H54.3834L53.8517 38.7244H53.2739V39.942H52.649L52.6487 36.9029ZM53.2736 37.4307V38.2534H53.7769C53.9599 38.2534 54.1163 38.2034 54.2457 38.1038C54.3308 38.037 54.3728 37.9448 54.3728 37.8256C54.3728 37.7126 54.3255 37.6188 54.2313 37.544C54.1366 37.4683 53.9854 37.4307 53.7769 37.4307H53.2736ZM56.3386 36.9029H57.0143L58.0387 39.9423H57.4241L57.1838 39.2329H56.1684L55.929 39.9423H55.3135L56.3386 36.9029ZM56.6764 37.7259L56.3167 38.7936H57.037L56.6764 37.7259ZM57.8982 36.9029H60.3136V37.4248H59.4185V39.9423H58.7936V37.4248H57.8982V36.9029ZM60.8768 39.9432H61.502V36.9029H60.8768V39.9432ZM63.4537 36.847C63.7532 36.847 63.9938 36.8949 64.1765 36.9892C64.4104 37.1077 64.6022 37.2948 64.7259 37.5254C64.8515 37.7576 64.9145 38.0631 64.9145 38.4418C64.9145 38.9541 64.7877 39.3422 64.5336 39.6048C64.2806 39.8678 63.9455 39.9994 63.5285 39.9994C63.1071 39.9994 62.7665 39.8653 62.5072 39.5977C62.2475 39.3304 62.1176 38.9392 62.1176 38.4251C62.1176 38.1156 62.1699 37.8383 62.2753 37.5924C62.3364 37.4499 62.4249 37.3206 62.5358 37.2118C62.6522 37.0948 62.7913 37.0027 62.9447 36.9411C63.1067 36.8774 63.2795 36.8454 63.4537 36.847ZM63.5179 37.3683C63.3025 37.3683 63.1249 37.4503 62.9859 37.6142C62.8459 37.7775 62.7752 38.0485 62.7752 38.4273C62.7752 38.7979 62.8466 39.0655 62.9881 39.2282C63.1302 39.39 63.3122 39.4716 63.5344 39.4716C63.7451 39.4716 63.9203 39.3906 64.0605 39.2288C64.1992 39.0671 64.2703 38.801 64.2703 38.4332C64.2703 38.0202 64.1846 37.7303 64.0144 37.5623C63.8826 37.4329 63.7171 37.3683 63.5179 37.3683ZM65.4811 36.9029H66.15L67.4422 38.9426V36.9029H68.0674V39.9423H67.4406L66.106 37.8231V39.9423H65.4808V36.9029M71.2994 36.847C71.5989 36.847 71.8395 36.8949 72.0225 36.9892C72.2562 37.1079 72.4479 37.295 72.5716 37.5254C72.6969 37.7576 72.7602 38.0631 72.7602 38.4418C72.7602 38.9541 72.633 39.3422 72.3796 39.6048C72.1259 39.8678 71.7909 39.9994 71.3736 39.9994C70.9528 39.9994 70.6125 39.8653 70.3529 39.5977C70.0926 39.3304 69.963 38.9392 69.963 38.4251C69.963 38.1156 70.0159 37.8383 70.1213 37.5924C70.1823 37.45 70.2706 37.3207 70.3812 37.2118C70.4978 37.0948 70.6372 37.0026 70.7907 36.9411C70.9526 36.8774 71.1254 36.8455 71.2994 36.847ZM71.3627 37.3683C71.1482 37.3683 70.9712 37.4503 70.8316 37.6142C70.6916 37.7775 70.6206 38.0485 70.6206 38.4273C70.6206 38.7979 70.6923 39.0655 70.8344 39.2282C70.9762 39.39 71.1582 39.4716 71.3792 39.4716C71.5905 39.4716 71.7657 39.3906 71.9056 39.2288C72.0449 39.0671 72.1157 38.801 72.1157 38.4332C72.1157 38.0202 72.03 37.7303 71.8601 37.5623C71.7283 37.4329 71.5628 37.3683 71.3627 37.3683ZM73.3331 36.9029H75.2882V37.4248H73.9648V38.2279H74.7284V38.7495H73.9648V39.9426H73.3331V36.9029ZM77.1909 39.9432H77.8161V36.9029H77.1909V39.9432ZM78.6028 36.9029H79.2716L80.5638 38.9426V36.9029H81.19V39.9423H80.5626L79.228 37.8231V39.9423H78.6028V36.9029ZM81.933 36.9029H83.0877C83.3623 36.9029 83.6076 36.9666 83.8233 37.0948C84.0399 37.2221 84.2051 37.4034 84.317 37.6365C84.4304 37.8703 84.4868 38.1236 84.4868 38.3962C84.4868 38.6682 84.4382 38.9125 84.34 39.1304C84.2425 39.3487 84.1175 39.5204 83.9648 39.6445C83.8548 39.733 83.7136 39.805 83.539 39.8594C83.3602 39.915 83.1738 39.9429 82.9865 39.942H81.933V36.9029ZM82.5654 37.418V39.4089H82.9977C83.1519 39.4089 83.2891 39.3692 83.4091 39.2912C83.5297 39.2127 83.6216 39.1084 83.6868 38.9805C83.782 38.796 83.8305 38.5912 83.8283 38.3838C83.8283 38.0901 83.7388 37.8563 83.5599 37.6809C83.3817 37.5055 83.151 37.4177 82.8714 37.4177H82.5654M85.1295 39.9432H85.7547V36.9029H85.1295V39.9432ZM87.2738 36.9029H87.9501L88.974 39.9423H88.359L88.1197 39.2329H87.103L86.8636 39.9423H86.2484L87.2738 36.9029ZM87.6123 37.7259L87.252 38.7936H87.9719L87.6123 37.7259Z" fill="white"/>
<path d="M18.6285 11.5037C19.6327 10.953 20.3362 9.92164 20.3362 9.32308C20.3362 8.89155 19.6327 8.53173 18.6285 8.36409V8.53173C19.432 8.67578 19.9849 8.93936 19.9849 9.15544C19.9849 9.34699 19.5071 9.53885 18.8292 9.63509H18.8037C18.7538 9.63509 18.6781 9.63509 18.6285 9.65899V11.5037ZM17.4482 8.26878C17.5233 8.02911 17.6234 7.76522 17.7244 7.45353C18.0507 6.61499 17.5988 5.6324 17.4732 5.36852C17.3226 5.08072 16.9707 4.24219 16.9707 4.24219C16.7956 5.53647 16.1919 6.11143 15.9912 6.73451C15.8902 7.07043 16.0417 7.45322 16.1919 7.76491C16.2929 7.93256 16.4175 8.12442 16.5191 8.29237C16.274 8.31807 16.0306 8.35808 15.7901 8.41221V8.55626C16.0413 8.50752 16.3175 8.46002 16.6192 8.43611C16.6441 8.4833 16.6946 8.50721 16.7192 8.55626C16.8704 8.77202 16.996 8.96358 16.996 9.25075C16.996 9.68259 16.2424 9.68259 15.7901 9.63447V11.3833C16.2424 11.672 16.7697 11.839 17.3226 11.839C17.779 11.8361 18.2277 11.7208 18.6285 11.5034V9.65899C18.1507 9.65899 17.4978 9.63478 17.3226 9.22684C17.2466 9.08279 17.2977 8.79593 17.398 8.41221C17.8503 8.41221 18.2766 8.46002 18.6288 8.53142V8.36378C18.2763 8.31659 17.8749 8.26878 17.4482 8.26878ZM15.7901 8.41221C14.886 8.57923 14.2832 8.93936 14.2832 9.32308C14.2832 9.85054 14.886 10.8092 15.7901 11.3839V9.63509C15.0621 9.53885 14.5843 9.34699 14.5843 9.15544C14.5843 8.93967 15.0621 8.69969 15.7901 8.55657V8.41221Z" fill="white"/>
<path d="M10.5921 4.8186C10.5921 4.8186 10.7423 4.24364 10.7423 4.12411C10.7423 3.98006 10.6417 3.54853 11.1192 3.81242C11.596 4.0763 11.4704 4.43519 11.3704 4.65064C11.2697 4.86641 11.0182 5.60995 10.8926 5.87321L10.3652 7.26374C10.3652 7.26374 10.3154 7.38388 10.2898 7.43169C10.2649 7.45467 10.0642 8.1743 10.1396 8.96534L10.2396 9.8759C10.2396 9.8759 10.2652 9.94699 10.3406 9.8759C10.3406 9.8759 10.4413 9.82809 10.3655 9.37234C10.3655 9.37234 10.3655 8.43787 10.3911 8.24601C10.416 8.05446 10.5167 7.45467 10.5663 7.35998C10.6167 7.23921 10.6414 7.21593 10.742 6.95235C10.843 6.66456 11.1693 5.84993 11.1693 5.84993C11.1693 5.84993 11.6216 4.96358 11.6711 4.7236C11.6711 4.7236 11.8728 4.24395 11.8472 3.59665C11.8472 3.59665 11.7967 3.4287 11.8728 3.35698C11.9728 3.28589 12.2995 3.35698 12.4247 3.45291C12.5504 3.54915 12.7769 3.76461 12.7514 4.07661C12.7264 4.3644 12.5762 4.89093 12.3746 5.39449C12.3746 5.39449 12.1988 5.77821 12.0984 5.89743C12.0233 5.99336 11.5711 7.00047 11.5711 7.04766C11.5455 7.09547 11.5206 7.16843 11.4701 7.21624C11.4701 7.21624 11.2444 7.86291 11.2195 8.07868C11.169 8.31835 11.0939 8.55833 11.0437 9.06096C11.0179 9.54061 11.194 10.2121 11.194 10.2121C11.194 10.2121 11.2195 10.3313 11.2949 10.3313C11.3701 10.3313 11.3701 10.0681 11.3701 10.0442C11.3701 9.99635 11.3451 9.75637 11.3196 9.63654C11.2946 9.54061 11.3196 8.72598 11.3196 8.72598C11.3196 8.72598 11.3947 8.12649 11.5708 7.71979C11.6459 7.57574 11.6964 7.33545 11.7964 7.12031C11.9476 6.7844 12.0981 6.4727 12.0981 6.4727C12.0981 6.4727 12.651 5.32247 12.676 5.25044C12.7009 5.17873 12.9777 4.48362 13.0023 4.12411C13.0023 3.78851 13.0774 3.54853 13.0774 3.54853C13.0774 3.54853 13.0269 3.28527 13.3791 3.42839C13.7054 3.57244 13.9311 3.86023 13.9569 4.1238C13.9569 4.1238 14.0074 4.38769 13.9064 4.41159C13.7808 4.45878 13.7303 4.38769 13.6552 4.45878C13.6552 4.45878 13.5798 4.50721 13.5798 4.62736C13.5549 4.72329 13.4798 5.03436 13.4542 5.10608C13.4542 5.20232 13.4542 5.29794 13.3791 5.58573C13.2781 5.84962 12.9773 6.71206 12.9518 6.75987C12.9518 6.75987 12.7508 7.33483 12.7261 7.38357C12.7261 7.43138 12.6756 7.50341 12.6507 7.55122C12.6507 7.57512 12.3739 8.50897 12.349 8.72535C12.3235 8.9405 12.2483 9.32422 12.2739 9.56327C12.2739 9.80356 12.349 10.0907 12.3995 10.3068C12.3995 10.3068 12.4244 10.3791 12.5251 10.3546C12.6002 10.3307 12.4491 10.0435 12.4995 9.6117C12.55 9.18017 12.6252 8.58068 12.6756 8.43756C12.7006 8.26992 13.002 7.45435 13.002 7.40654C13.0269 7.35967 13.3037 6.5441 13.3788 6.40036C13.4293 6.25631 13.6805 5.4898 13.7051 5.34606C13.73 5.20232 13.73 4.8186 14.1324 4.77048C14.5591 4.89031 14.5341 5.60964 14.4836 5.8729C14.4836 5.8729 14.4085 6.61644 14.1324 7.19171C13.8812 7.74246 13.9058 7.74246 13.9058 7.76667C13.9058 7.81448 13.9809 8.36616 13.9563 8.58099C13.9563 8.79769 13.9812 9.01284 13.8556 9.46827C13.7051 9.92309 13.8051 9.97183 13.8307 10.0439C13.8812 10.1392 14.1324 10.4748 14.2075 10.6666C14.258 10.8585 14.3325 11.2422 14.358 11.3139C14.383 11.362 14.6844 11.6489 14.8103 11.8647C14.9109 12.0565 15.237 12.5601 15.2625 12.6082C15.2874 12.6799 16.3172 13.9264 16.594 14.406C16.8701 14.8848 17.1213 15.3166 17.0958 15.7478C17.0708 16.0828 16.9206 16.4423 16.719 16.7295C16.6118 16.8604 16.4849 16.9739 16.3428 17.066C16.2677 17.1138 16.0916 17.1852 16.0411 17.3051L15.84 18.1684H11.898L12.752 16.7295C12.752 16.7295 13.0281 16.5625 12.4254 15.8431C11.8229 15.1487 10.7931 13.3989 10.7931 13.3989C10.7931 13.3989 9.86343 11.865 9.68796 11.5533C9.41182 11.1463 9.46138 9.08486 9.46138 8.46209C9.46138 8.46209 9.36133 7.71948 9.7877 6.73627C10.2153 5.75369 10.5921 4.8186 10.5921 4.8186ZM24.0046 4.8186C24.0046 4.8186 23.879 4.24364 23.8534 4.12411C23.8534 3.98006 23.9544 3.54853 23.4772 3.81242C23.025 4.0763 23.1506 4.43519 23.226 4.65064C23.3267 4.86641 23.5773 5.60995 23.7284 5.87321L24.2558 7.26374C24.2558 7.26374 24.3063 7.38388 24.3063 7.43169C24.3312 7.45467 24.5319 8.1743 24.4568 8.96534L24.3558 9.8759C24.3558 9.8759 24.3309 9.94699 24.2558 9.8759C24.2558 9.8759 24.1557 9.82809 24.2309 9.37234C24.2309 9.37234 24.2309 8.43787 24.2053 8.24601C24.1797 8.05446 24.1043 7.45467 24.0292 7.35998C23.9796 7.23921 23.9541 7.21593 23.8531 6.95235C23.778 6.66456 23.4264 5.84993 23.4264 5.84993C23.4264 5.84993 22.9742 4.96358 22.924 4.7236C22.924 4.7236 22.723 4.24395 22.7482 3.59665C22.7482 3.59665 22.8243 3.4287 22.7233 3.35698C22.6233 3.28589 22.3216 3.35698 22.196 3.45291C22.0703 3.54915 21.8191 3.76461 21.8441 4.07661C21.8952 4.3644 22.0199 4.89093 22.2215 5.39449C22.2215 5.39449 22.3967 5.77821 22.4976 5.89743C22.5731 5.99336 23.025 7.00047 23.0499 7.04766C23.0499 7.09547 23.1004 7.16843 23.125 7.21624C23.125 7.21624 23.3516 7.86291 23.3762 8.07868C23.4267 8.31835 23.5268 8.55833 23.5523 9.06096C23.5773 9.54061 23.4018 10.2121 23.4018 10.2121C23.4018 10.2121 23.3763 10.3313 23.3011 10.3313C23.226 10.3313 23.226 10.0681 23.226 10.0442C23.226 9.99635 23.251 9.75637 23.2765 9.63654C23.3014 9.54061 23.2765 8.72598 23.2765 8.72598C23.2765 8.72598 23.2005 8.12649 23.0253 7.71979C22.9748 7.57574 22.8997 7.33545 22.7987 7.12031C22.6731 6.7844 22.4976 6.4727 22.4976 6.4727C22.4976 6.4727 21.9703 5.32247 21.9447 5.25044C21.9198 5.17873 21.6184 4.48362 21.5929 4.12411C21.5929 3.78851 21.5184 3.54853 21.5184 3.54853C21.5184 3.54853 21.5929 3.28527 21.2416 3.42839C20.8897 3.57244 20.6638 3.86023 20.6392 4.1238C20.6392 4.1238 20.5887 4.38769 20.7143 4.41159C20.8143 4.45878 20.8894 4.38769 20.9399 4.45878C20.9399 4.45878 21.016 4.50721 21.0406 4.62736C21.0406 4.72329 21.116 5.03436 21.1416 5.10608C21.1665 5.20232 21.1416 5.29794 21.2167 5.58573C21.3167 5.84962 21.6184 6.71206 21.6434 6.75987C21.6434 6.75987 21.8444 7.33483 21.8699 7.38357C21.8955 7.43138 21.9204 7.50341 21.9451 7.55122C21.9706 7.57512 22.2218 8.50897 22.2468 8.72535C22.2717 8.9405 22.3468 9.32422 22.3468 9.56327C22.3219 9.80356 22.2714 10.0907 22.2218 10.3068C22.2218 10.3068 22.1713 10.3791 22.0956 10.3546C21.9955 10.3307 22.1461 10.0435 22.0956 9.6117C22.0707 9.18017 21.9706 8.58068 21.9204 8.43756C21.8955 8.26992 21.6187 7.45435 21.5932 7.40654C21.5932 7.35967 21.2921 6.5441 21.217 6.40036C21.1665 6.25631 20.9402 5.4898 20.8897 5.34606C20.8654 5.20232 20.8654 4.8186 20.4631 4.77048C20.0364 4.89031 20.0613 5.60964 20.1118 5.8729C20.1118 5.8729 20.1872 6.61644 20.4631 7.19171C20.7398 7.74246 20.6896 7.74246 20.6896 7.76667C20.6896 7.81448 20.6136 8.36616 20.6392 8.58099C20.6392 8.79769 20.6133 9.01284 20.7398 9.46827C20.8894 9.92309 20.7894 9.97183 20.7648 10.0439C20.7398 10.1392 20.4631 10.4748 20.3879 10.6666C20.3375 10.8585 20.2879 11.2422 20.2377 11.3139C20.2128 11.362 19.9111 11.6489 19.7855 11.8647C19.6845 12.0565 19.3582 12.5601 19.3326 12.6082C19.3077 12.6799 18.2779 13.9264 18.0018 14.406C17.7256 14.8848 17.4994 15.3166 17.5249 15.7478C17.5249 16.0828 17.6755 16.4423 17.9011 16.7295C18.0018 16.8503 18.1028 16.9701 18.253 17.066C18.354 17.1138 18.5042 17.1852 18.5547 17.3051L18.7554 18.1684H22.7236L21.8699 16.7295C21.8699 16.7295 21.5682 16.5625 22.1716 15.8431C22.7744 15.1487 23.8042 13.3989 23.8042 13.3989C23.8042 13.3989 24.7588 11.865 24.934 11.5533C25.1852 11.1463 25.1606 9.08486 25.1356 8.46209C25.1356 8.46209 25.2357 7.71948 24.809 6.73627C24.5456 6.09509 24.2775 5.45584 24.0046 4.8186Z" fill="white"/>
<path d="M17.3223 26.0054C17.6991 25.9815 18.0513 25.9815 18.0513 25.9815C20.6375 25.9815 23.1247 24.8551 25.0835 22.8179C26.7665 21.0688 27.8212 18.8398 27.8212 17.0187V7.71962C27.8212 6.06521 26.7419 3.86036 25.0333 2.11157C23.024 0.049225 20.4873 -1.07617 17.8755 -1.07617H17.3226V-0.789312H17.8755C22.0198 -0.789312 25.1593 2.15876 26.6163 4.89107C27.1437 5.92116 26.9676 6.92827 26.9676 7.71962V17.0183C26.9676 18.0245 27.0932 19.1748 26.4904 20.2772C26.0631 21.0924 25.5358 21.9071 24.8579 22.6255C22.9486 24.5909 20.5375 25.6695 18.0513 25.6695C18.0513 25.6695 17.6994 25.6943 17.3223 25.6943V26.0054ZM17.3226 -1.07617H16.6693C14.0821 -1.07617 11.5205 0.049225 9.51149 2.11157C7.80291 3.86067 6.72266 6.06521 6.72266 7.81493V17.0897C6.72266 18.8395 7.77798 21.0685 9.46038 22.8176C11.4202 24.8548 13.9064 25.9812 16.4935 25.9812C16.4935 25.9812 16.8959 26.0051 17.2727 26.0051H17.3223V25.6943C16.9205 25.6943 16.4932 25.6695 16.4932 25.6695C14.0067 25.6695 11.5959 24.5909 9.68665 22.6255C9.00876 21.9071 8.43093 21.1157 8.00363 20.325C7.57632 19.4386 7.65237 18.0484 7.65237 17.0183V7.71962C7.65237 6.73641 7.47628 5.46634 8.25483 4.22018C9.83687 1.67973 12.8763 -0.789312 16.6693 -0.789312H17.3226V-1.07617Z" fill="white"/>
<path d="M15.9919 20.1828C15.9919 20.2787 15.9165 20.3498 15.8158 20.3498C15.7158 20.3498 15.6397 20.2787 15.6397 20.1828C15.6397 20.1108 15.7158 20.0388 15.8158 20.0388C15.9165 20.0388 15.9919 20.1108 15.9919 20.1828ZM16.168 20.6383C16.168 20.6383 15.7407 20.6144 15.3636 20.5665V20.8543C15.4396 20.8543 15.5148 20.8782 15.5652 20.8782L15.5397 21.4051H15.3636V21.8369L15.4892 21.8608L15.4643 22.4603L15.8411 22.5075L15.9916 20.9264H16.1418L16.168 20.6383ZM15.3636 20.5665C15.2885 20.5665 15.2131 20.5423 15.1379 20.5423C14.9619 20.5184 14.7611 20.4706 14.5601 20.4231L14.3089 20.0149L13.8816 19.9189L14.1337 20.3262C14.0328 20.3033 13.9826 20.3033 13.9826 20.3033L13.9075 20.5662C13.9075 20.5662 13.958 20.5901 14.0331 20.5901L13.9826 20.8298L13.6313 20.7581C13.7569 20.6622 13.832 20.5423 13.832 20.3986C13.832 20.1589 13.6313 19.9674 13.3801 19.9674V20.3033C13.4552 20.3033 13.4802 20.3502 13.4802 20.3986C13.4802 20.4464 13.4552 20.4703 13.4306 20.4945H13.3801V21.022L13.9075 21.1651L13.6809 22.22L14.0836 22.2917L14.4348 20.6851C14.5604 20.71 14.686 20.7578 14.8116 20.7578L14.7362 21.3327C14.7362 21.3327 14.5352 21.2856 14.485 21.5004C14.4601 21.6922 14.686 21.8841 14.7867 21.98C14.9619 22.1719 15.0875 21.8602 15.0875 21.8602V21.8124L15.3636 21.8363V21.4051L15.1379 21.3818L15.238 20.8304C15.2885 20.8543 15.314 20.8543 15.3636 20.8543V20.5665ZM13.3798 22.1244V21.4051C13.4303 21.3818 13.4799 21.3818 13.4799 21.3818L13.6559 21.5969C13.6055 21.6687 13.5303 21.7168 13.4549 21.7646C13.43 21.7646 13.43 22.1244 13.43 22.1244H13.3798ZM13.3798 19.9677C13.1037 19.9677 12.902 20.1589 12.902 20.3989C12.902 20.4948 12.9276 20.5904 13.0027 20.6628C12.902 20.6858 12.8266 20.7345 12.8017 20.7587C12.701 20.8546 12.4498 21.0704 12.5255 21.3576C12.576 21.6693 12.9017 21.8133 13.0024 21.8611H13.0529C13.0778 21.8611 13.0778 22.053 13.0778 22.053L13.3795 22.1247V21.4051C13.329 21.4299 13.2539 21.4538 13.2283 21.4538C13.1283 21.4768 13.0273 21.4299 12.9522 21.357C12.8266 21.1651 13.1034 20.9021 13.329 20.9981L13.3795 21.022V20.4945C13.329 20.4945 13.2785 20.4467 13.2785 20.3986C13.2785 20.3505 13.329 20.3033 13.3795 20.3033V19.9677M12.7773 20.3027L12.8774 20.0388C12.8774 20.0388 12.1244 19.7749 11.3708 19.4154L11.2449 18.8885L10.8936 18.7206L10.9943 19.2474C10.5414 19.0084 10.1397 18.7678 9.88847 18.6247V19.343C9.98945 19.2238 10.0141 19.1034 10.0141 19.0323C10.1141 19.0792 10.2397 19.1521 10.3404 19.2238L9.98914 19.7746C9.98914 19.7746 9.96358 19.8224 9.88816 19.8463V20.7811L10.7172 19.4151C10.7923 19.4629 10.8677 19.4868 10.9438 19.5349L10.1394 20.9968L10.4906 21.1648L11.2947 19.7029L11.5964 19.8466C11.7467 20.3262 11.521 20.4694 11.521 20.4694C11.4705 20.3495 11.2698 20.3262 11.2698 20.3262C11.2698 20.3262 10.9681 20.3741 11.0432 20.6612C11.0937 20.95 11.3698 21.1409 11.6962 20.8531C11.9723 20.6134 12.0228 20.1825 12.0228 20.0146C12.0979 20.0385 12.1986 20.0863 12.274 20.1105L11.6712 21.6444L12.048 21.7882L12.6249 20.2536C12.7269 20.2781 12.7773 20.3027 12.7773 20.3027ZM9.88847 18.6247C9.73824 18.5048 9.63726 18.457 9.63726 18.457L9.43623 18.6728C9.43623 18.6728 9.53721 18.7206 9.66282 18.8168C9.66282 18.8646 9.71268 19.1996 9.28601 19.1279H9.13547C9.13547 19.1279 8.85871 19.6082 9.1604 20.0149C9.36143 20.2539 9.78873 20.2067 9.78873 20.2067L9.51259 20.6376L9.86384 20.8295L9.88878 20.7817V19.8469C9.81367 19.8708 9.68806 19.8708 9.56246 19.7991C9.36143 19.6315 9.48735 19.4874 9.48735 19.4874C9.68837 19.4874 9.81367 19.4402 9.88909 19.3434V18.625M25.6618 19.9671L25.938 19.7274L24.9088 18.4086C25.0335 18.3133 25.1089 18.2655 25.1089 18.2655L24.9584 18.1211C24.9584 18.1211 24.8328 18.2173 24.6071 18.3608V18.7203L24.9338 19.1034L24.6576 19.3188L24.6071 19.2719V19.9186H24.7577C24.9587 19.9186 24.9088 19.6547 24.9088 19.6547L25.2096 19.439L25.6618 19.9671ZM24.6068 18.3611C24.1044 18.6967 23.1248 19.2955 21.9941 19.7513V20.063L22.2709 20.6137C22.2958 20.7575 22.2453 20.9732 22.0196 21.021L21.9941 21.0453V21.4287C22.1951 21.4287 22.3968 21.3809 22.547 21.1648L22.7726 21.5724L23.1245 21.4284L22.3965 19.8702C22.6972 19.7504 22.9743 19.6063 23.2255 19.4868L23.2751 19.5585C23.2751 19.5585 23.1495 19.6547 22.9989 19.7504C22.8484 19.8463 22.7723 19.9661 22.7979 20.1574C22.7979 20.3731 23.1491 20.5172 23.1491 20.5172C23.1491 20.5172 23.0996 20.7326 23.2252 20.9965C23.4508 21.4038 24.1038 21.2359 24.1038 21.2359L24.0287 20.9487L23.8781 20.9726C23.5509 20.9487 23.5509 20.7087 23.5509 20.637C23.5764 20.5653 23.6516 20.302 23.9028 20.3253C24.1543 20.3492 24.0533 20.6609 24.0533 20.6609L24.3045 20.7811C24.3799 20.709 24.4301 20.6131 24.4301 20.6131C24.4806 20.0381 24.1789 19.9894 23.9277 19.9425C23.6765 19.8705 23.4508 20.0863 23.4508 20.0863C23.4508 20.0863 23.3252 20.1574 23.3003 20.1096C23.2747 20.0624 23.3252 20.0142 23.3252 20.0142L23.8526 19.6547L23.6014 19.2471C23.727 19.1993 23.828 19.1273 23.9031 19.0792C24.0041 19.176 24.2543 19.5588 24.2543 19.5588C24.2543 19.6066 24.1792 19.6308 24.2048 19.7507C24.2543 19.8938 24.4304 19.9186 24.6065 19.9186V19.2723L24.2802 18.8395C24.3802 18.7917 24.4812 18.7203 24.5563 18.6718L24.6071 18.7203L24.6068 18.3611ZM21.9944 19.751L21.2414 20.0388C19.7594 20.4936 18.1269 20.6376 17.3228 20.6615V20.9012H17.4989V21.0692C17.4484 21.0931 17.3982 21.0931 17.3733 21.0931H17.3228V21.4526H17.3733C17.4237 21.4526 17.4989 21.4526 17.5493 21.4759L17.5743 21.8832C17.5114 21.9132 17.4429 21.9296 17.3733 21.9313H17.3228V22.2908H17.3733C17.4487 22.2908 17.5493 22.2669 17.6248 22.243L17.6497 22.5547L18.0521 22.5308L17.9265 20.877C18.2272 20.8531 18.5539 20.8292 18.9051 20.7811L18.9562 20.9248C18.9562 20.9248 18.7552 20.9487 18.5794 20.9726C18.4033 21.0204 18.3282 21.0928 18.2522 21.2846C18.177 21.4755 18.4538 21.7401 18.4538 21.7401C18.4538 21.7401 18.3033 21.9313 18.3531 22.2191C18.4036 22.6745 19.0812 22.7465 19.0812 22.7465L19.1323 22.4588L18.9562 22.4106C18.6545 22.2669 18.7552 22.0511 18.7801 22.0036C18.83 21.9313 19.0061 21.7152 19.2324 21.8112C19.458 21.9313 19.2324 22.1707 19.2324 22.1707L19.4334 22.3864C19.5344 22.3386 19.6095 22.2666 19.6095 22.2666C19.8856 21.7397 19.6095 21.5951 19.3829 21.452C19.1819 21.3321 18.9051 21.452 18.9051 21.452C18.9051 21.452 18.7555 21.4752 18.73 21.4281C18.73 21.3802 18.8054 21.3321 18.8054 21.3321L19.4088 21.212L19.3327 20.7323C19.4088 20.7084 19.5088 20.7084 19.5839 20.6845L20.0362 22.2905L20.4379 22.2188L20.0112 20.6128C20.1368 20.5895 20.2369 20.565 20.3625 20.5411C20.413 20.6848 20.5891 21.1645 20.5891 21.1645L20.4379 21.2604C20.4379 21.2604 20.2874 21.4284 20.513 21.5485C20.7396 21.6916 20.8898 21.7155 20.9403 21.7401C20.9659 21.7401 21.1164 21.6916 21.1164 21.4756L21.3676 21.3802L21.1164 21.0204L20.9659 21.0685L20.7642 20.4448C20.9154 20.398 21.0659 20.3731 21.1915 20.325C21.2666 20.3489 21.4172 20.4219 21.4172 20.5647C21.3923 20.8043 21.1915 20.8043 21.1915 20.8043L21.0915 20.9242C21.0915 20.9242 21.3421 21.3318 21.7189 21.4032C21.8199 21.4032 21.895 21.4277 21.995 21.4277V21.0443C21.7694 21.0682 21.6943 20.8764 21.6943 20.8764C21.6943 20.8764 21.8448 20.7804 21.8704 20.5647C21.8704 20.3977 21.7694 20.2058 21.7447 20.1571C21.8202 20.1092 21.8953 20.086 21.9953 20.0617V19.751H21.9944ZM17.3228 20.6615C16.9964 20.6854 16.7951 20.6854 16.7951 20.6854L16.8207 20.9251C16.8207 20.9251 16.9961 20.9251 17.3228 20.9012V20.6615ZM17.3224 21.0934C16.9456 21.1173 16.6446 21.3812 16.6446 21.6922C16.6446 22.0046 16.9456 22.2678 17.3224 22.2917V21.9322C17.1722 21.908 17.0463 21.8121 17.0463 21.6926C17.0463 21.5733 17.1719 21.4768 17.3224 21.4532V21.0934ZM25.8379 19.9671L26.2147 19.7513C26.2147 19.7513 26.2902 19.7035 26.3397 19.7513C26.3908 19.823 26.3148 19.8472 26.3148 19.8472C26.3148 19.8472 26.0386 20.1105 25.9635 20.1105C25.8875 20.1344 25.8629 20.1105 25.8379 20.1105C25.8379 20.1102 25.7874 20.0149 25.8379 19.9671Z" fill="white"/>
<path d="M47.887 31.6837H37.969H36.9383C36.8863 31.6229 36.6008 31.2938 36.6008 31.2938L36.2991 30.9861C36.0784 30.7657 35.7957 30.5748 35.4579 30.4174C35.1855 30.2898 34.914 30.2246 34.6528 30.2246C34.0516 30.2246 33.6365 30.4369 33.4205 30.8539C33.3348 31.0128 33.3008 31.1411 33.3182 31.2444L33.3401 31.4124L33.4189 31.5748L33.4993 31.6837H28.7255V32.169H33.9525V32.8309H31.3076L31.561 33.0196L31.6866 33.1146L31.9569 33.3757C32.0591 33.4723 32.1532 33.5998 32.2383 33.7541C32.2916 33.8597 32.3193 33.9646 32.3193 34.0627C32.3193 34.1813 32.2788 34.2763 32.1968 34.353C32.0996 34.4443 31.9622 34.4887 31.7761 34.4887C31.437 34.4887 31.106 34.3381 30.7915 34.0413C30.5207 33.7883 30.3137 33.5132 30.176 33.2276L29.9908 32.8461C29.9867 32.8304 29.983 32.8147 29.9796 32.7989V32.5809L29.3123 32.9106L29.3778 33.1481L29.5788 33.5117C29.7895 33.8886 30.0497 34.2018 30.353 34.4446C30.7815 34.7805 31.2459 34.9506 31.7328 34.9506C31.9313 34.9506 32.1127 34.9311 32.2713 34.8926C32.6129 34.787 32.837 34.6259 32.9455 34.4108C33.0055 34.2994 33.0372 34.1751 33.038 34.0488L32.9944 33.8436L32.8853 33.589L32.7011 33.2922H33.9528V35.3992H34.6977V32.1696H36.362V35.3992H37.1069V32.1696H41.1512V33.8047C41.0539 33.906 40.9127 33.9892 40.7201 34.0469C40.6262 34.0908 40.5267 34.1218 40.4243 34.1391L40.2308 34.1661L40.1339 34.1652C40.0126 34.1652 39.8827 34.1494 39.7465 34.1189C39.4373 34.0171 39.2824 33.8262 39.2824 33.5384C39.2824 33.4642 39.2967 33.3934 39.3254 33.3276C39.4223 33.1637 39.5451 33.0609 39.6947 33.0255C39.7932 32.9954 39.9092 32.9805 40.0482 32.9805L40.3159 33.0019L40.5777 33.0603L40.6597 33.0867L40.9698 33.2099L40.7734 32.5871L40.7207 32.5834L40.5499 32.566L40.3929 32.5406L40.1816 32.5192L39.9868 32.5182C39.5978 32.5049 39.2487 32.6083 38.9539 32.8293C38.6512 33.0541 38.4988 33.3155 38.4988 33.6048C38.4988 33.7703 38.5453 33.9159 38.6366 34.0373C38.7229 34.1518 38.8554 34.2636 39.0309 34.3692C39.3407 34.5557 39.719 34.6501 40.1554 34.6501L40.4811 34.6293L40.818 34.5514L41.0642 34.4424L41.1515 34.399V35.3986H41.8954V32.169H46.4016V32.8929H43.6875L43.5588 32.8992L43.4482 32.9221C43.2434 33.0069 43.2035 33.1298 43.2035 33.2199V33.2326L43.2073 33.2444C43.2247 33.3105 43.2727 33.3853 43.3531 33.4713C43.4575 33.5936 43.5744 33.7014 43.6963 33.7877L44.0762 34.0565C44.2177 34.1344 44.3012 34.1655 44.3636 34.1655L44.511 34.1481L44.6126 34.0904C44.6188 34.0863 44.6802 33.9808 44.6802 33.9808L44.693 33.8718C44.693 33.8718 44.693 33.516 44.6939 33.3788H46.4016V35.3983H47.1465V32.1687H47.993V31.6834H47.887V31.6837ZM35.5436 31.6837H34.3757L34.3337 31.644L34.2087 31.4857L34.1071 31.3028L34.0747 31.1671L34.0821 31.0591C34.1146 30.9728 34.1663 30.889 34.2311 30.8228C34.3243 30.7322 34.4727 30.6859 34.6681 30.6859C34.8825 30.6859 35.1502 30.8067 35.4657 31.0439C35.945 31.4105 36.1283 31.5934 36.2 31.6834L35.5436 31.6837ZM24.6828 31.6837V32.169H23.941V35.3986H23.1961V34.3962C22.8375 34.5643 22.4458 34.6511 22.0495 34.6501C21.4981 34.6501 21.0241 34.5331 20.6398 34.3024C20.2056 34.0401 19.9862 33.7014 19.9862 33.2962V33.168L20.1969 33.2199L20.2757 33.2385L20.3923 33.2568L20.3577 33.2512H20.4599C20.6931 33.2512 20.89 33.2077 21.0437 33.1217C21.1843 33.0438 21.2491 32.9305 21.2491 32.765C21.2491 32.6946 21.2092 32.5663 21.0272 32.3618L20.8006 32.1693H19.4133H18.5506V35.3989H17.8067V32.1693H17.0883H16.1511V35.3989H15.4062V33.1289H13.5923C13.4863 33.1289 13.39 33.1416 13.2906 33.1686C13.2351 33.1749 13.1818 33.1941 13.1352 33.2247C13.0885 33.2553 13.0497 33.2964 13.0219 33.3447L12.9889 33.4735C12.9889 33.7616 13.1235 34.0522 13.39 34.3369C13.6764 34.6433 13.9239 34.8389 14.1265 34.9199L14.2792 34.9525L14.5273 35.0043L13.9825 35.3791L13.975 35.4188L13.9217 35.3986L13.7306 35.326L13.438 35.1381L13.0241 34.8271L12.8315 34.6467L12.6756 34.4735C12.3892 34.1376 12.244 33.8013 12.244 33.4744C12.244 33.2459 12.335 33.0488 12.5117 32.8905C12.5915 32.8156 12.6999 32.7563 12.8433 32.7101C12.9783 32.6661 13.1195 32.6436 13.2616 32.6433H15.4056V32.169H11.8531H11.0337V32.9572C11.0337 33.3096 10.7729 33.5514 10.2596 33.6765C10.1173 33.7144 9.97037 33.7316 9.82322 33.7274C9.82322 33.7274 9.77896 33.7274 9.73689 33.7268L10.2468 34.2177L10.5288 34.4514L11.0593 34.8358L11.4143 35.0711L10.863 35.4067L10.8178 35.394C10.6862 35.3583 10.4852 35.2316 10.2069 35.0081C9.85511 34.7327 9.52029 34.4365 9.20424 34.1211L8.88291 33.8041L8.58433 33.476L8.36771 33.2285L8.08316 32.8883L8.69403 32.5909L9.1659 33.128C9.24725 33.2202 9.41805 33.2664 9.67299 33.2664C9.89023 33.2664 10.0454 33.2372 10.1333 33.1789C10.2162 33.1242 10.268 33.0348 10.2892 32.9249V32.1687H6.89881V35.3983H6.15391V32.1687H5.40621H4.4123V35.3983H3.6674V33.6899H2.25615V34.2263L2.2334 34.3185L2.09658 34.3996L1.9582 34.417C1.87093 34.417 1.76777 34.3841 1.64528 34.3173C1.47973 34.2384 1.32294 34.1425 1.17746 34.0311L0.780391 33.7141C0.691564 33.6225 0.642009 33.5508 0.623309 33.4884L0.611777 33.4493L0.674423 33.3388L0.787248 33.263L0.909111 33.2202L1.00168 33.2043H1.51251V32.3642C1.51251 32.3301 1.50253 32.2848 1.42586 32.2363C1.35449 32.1919 1.26348 32.1687 1.15502 32.1687C1.15502 32.1687 0.974562 32.1926 0.985159 32.1895L0.83244 32.2413L0.755769 32.313L0.728653 32.4052C0.731458 32.4254 0.735199 32.4474 0.737692 32.4623C0.748289 32.4816 0.782884 32.553 0.782884 32.553L0.796909 32.5859L0.973627 32.7989L0.195072 32.7883L0.108428 32.6874L0.102506 32.6648L0.0972076 32.6387L0.0513919 32.5316L0.0364317 32.4266C0.0189781 32.264 0.0641704 32.0336 0.374907 31.866C0.600557 31.7443 0.868282 31.6831 1.17154 31.6831C1.67177 31.6831 2.00806 31.8166 2.172 32.0823C2.22842 32.1783 2.25647 32.2795 2.25647 32.3829V33.2043H3.66771V32.1687H2.66195V31.6834H14.9437L14.8633 31.5744L14.785 31.4121L14.7623 31.2441C14.7458 31.1407 14.7788 31.0135 14.8645 30.8536C15.0811 30.4363 15.4956 30.2243 16.0968 30.2243C16.3587 30.2243 16.6292 30.2895 16.9019 30.4171C17.2397 30.5745 17.5224 30.7654 17.7431 30.9858L18.0448 31.2935L18.3833 31.6834H24.6828V31.6837ZM17.6449 31.6837C17.5735 31.5937 17.3906 31.4108 16.9106 31.0442C16.5961 30.8067 16.3275 30.6862 16.1131 30.6862C15.9176 30.6862 15.7699 30.7325 15.6761 30.8231C15.6109 30.8909 15.5604 30.9713 15.5277 31.0594L15.5196 31.1674C15.5196 31.1674 15.5527 31.305 15.5527 31.3031C15.5527 31.3031 15.6543 31.4869 15.6533 31.486L15.7783 31.6443L15.8204 31.684H17.088L17.6449 31.6837ZM23.1964 32.169H21.7213C21.7453 32.2 21.7898 32.255 21.7898 32.255L21.9628 32.5325L22.0208 32.7678V32.7799C22.0208 33.1245 21.7989 33.3875 21.3491 33.5657L21.0836 33.6349C21.0836 33.6349 20.9782 33.6539 20.8788 33.6706L20.9031 33.716L20.934 33.7563C21.1618 34.0562 21.5028 34.2024 21.9784 34.2024C22.2418 34.2024 22.4852 34.1531 22.7052 34.0553C22.833 34 22.9355 33.9438 23.0032 33.8923L23.1973 33.7116C23.1964 33.6365 23.1964 32.3416 23.1964 32.169ZM66.6281 31.6837H59.1873H58.1569C58.0445 31.5536 57.9318 31.4236 57.819 31.2938L57.5173 30.9861C57.297 30.7657 57.014 30.5748 56.6761 30.4174C56.404 30.2898 56.1332 30.2246 55.8714 30.2246C55.2692 30.2246 54.8547 30.4369 54.6394 30.8539C54.5536 31.0128 54.5194 31.1411 54.5368 31.2444L54.5596 31.4124L54.6375 31.5748L54.7182 31.6837H51.9113V32.169H55.1913V33.7178L55.1776 33.7495L53.7707 33.1109L53.9122 33.068L54.1357 33.0283L54.3523 33.0171L54.6073 33.0435C54.7107 33.0628 54.7419 33.0833 54.7472 33.087L54.9816 33.2683L54.8276 32.6232L54.6774 32.5986L54.6359 32.5871C54.5411 32.5762 54.4463 32.5657 54.3514 32.5558L54.1223 32.5421C53.9527 32.5331 53.7589 32.5564 53.5435 32.6138C53.365 32.6657 53.1954 32.7441 53.0405 32.8464C52.7254 33.0562 52.5652 33.3102 52.5652 33.6017C52.5652 33.7703 52.6066 33.9193 52.6886 34.0463C52.7703 34.1714 52.903 34.2881 53.0972 34.4021C53.4339 34.6013 53.8226 34.6962 54.2136 34.6746H54.5063C54.5197 34.674 54.8289 34.6051 54.8289 34.6051L55.096 34.5129C55.1003 34.5113 55.1433 34.4834 55.1916 34.4514V35.3986H55.9362V32.169H57.5809V35.3986H58.3249V32.169H60.3701V33.1801H60.0303L59.9063 33.2015L59.848 33.2167C59.8368 33.2205 59.6937 33.2984 59.6937 33.2984L59.6591 33.3176L59.6632 33.3431L59.6248 33.4533L59.628 33.4757C59.6376 33.5511 59.6813 33.63 59.7579 33.7088C59.7648 33.7153 60.3012 34.1335 60.3012 34.1335C60.4832 34.2639 60.6381 34.3285 60.773 34.3285L60.9376 34.3127L61.0367 34.2639C61.0504 34.2558 61.1096 34.1627 61.1096 34.1627L61.1255 34.1388L61.1143 34.1341V33.6899H62.7612V35.3983H63.5058V32.1687H64.9953V35.3983H65.7402V32.1687H66.7334V31.6834H66.6281V31.6837ZM56.7101 31.6837H55.5943L55.5522 31.644L55.4276 31.4857L55.326 31.3028L55.2936 31.1671L55.3017 31.0591C55.3341 30.9722 55.3852 30.889 55.45 30.8228C55.5432 30.7322 55.6912 30.6859 55.887 30.6859C56.1014 30.6859 56.3691 30.8067 56.6845 31.0439C57.1642 31.4105 57.3475 31.5934 57.4185 31.6834L56.7101 31.6837ZM62.7609 32.169V33.1801H61.114V32.169H62.7609ZM53.3593 33.4257L53.3656 33.4098C53.5158 33.4806 54.5219 33.9556 54.7805 34.0767L54.7279 34.1015L54.4767 34.1891C54.4742 34.1891 54.3938 34.2093 54.3735 34.2136H54.2239C54.1111 34.2136 53.9923 34.1972 53.8686 34.1658C53.7591 34.1391 53.656 34.091 53.5653 34.0242C53.388 33.9187 53.3066 33.8023 53.3066 33.6554C53.3066 33.6421 53.3073 33.6269 53.3091 33.6126L53.3169 33.5362L53.3593 33.4257ZM88.8696 31.6837H76.8553L76.5928 31.5111L76.2971 31.3081L75.5506 30.8936C75.3158 30.7651 75.0732 30.6515 74.8241 30.5534C74.1606 30.2861 73.5594 30.1504 73.0376 30.1504C72.8042 30.1504 72.5785 30.1765 72.3681 30.2274C72.0574 30.31 71.8034 30.4431 71.6105 30.6254C71.4285 30.7977 71.3365 30.9895 71.3365 31.1963C71.3365 31.2202 71.3375 31.2441 71.3396 31.269V31.3835L71.4035 31.5813L71.4444 31.6961H70.5686V32.1814H71.4705V35.3983H72.2148V32.1814H73.0906V32.1687H76.7789V32.8926H74.0646L73.9362 32.8988L73.8255 32.9218C73.6204 33.0066 73.5815 33.1295 73.5815 33.2195V33.2323L73.5843 33.2441C73.6024 33.3108 73.6504 33.385 73.7311 33.471C73.8355 33.5933 73.9524 33.7001 74.0742 33.7874L74.4535 34.0562C74.5957 34.1341 74.6795 34.1652 74.7415 34.1652L74.8893 34.1478L74.9899 34.0901C74.9962 34.086 75.0585 33.9805 75.0585 33.9805L75.0713 33.8715V33.3785H76.7795V35.398H77.5244V32.1683H79.8726V33.064L79.3941 33.0693L79.2779 33.0767L79.1623 33.0848L79.0479 33.1494L79.0585 33.1484L79.0095 33.2847C79.0095 33.3723 79.0547 33.466 79.1464 33.5725C79.3374 33.7889 79.5986 33.9802 79.9237 34.1407C80.0808 34.2034 80.1973 34.2329 80.2877 34.2329L80.4682 34.2006L80.4831 34.1925C80.5459 34.1582 80.5926 34.1005 80.6128 34.032L80.6171 34.0186V32.1683H82.0156V35.398H82.7599V32.1683H85.0734V33.1795H84.7331L84.6093 33.2009L84.5511 33.2167C84.5402 33.2199 84.3977 33.2978 84.3977 33.2978L84.3631 33.317L84.3662 33.3425L84.3279 33.4527L84.331 33.475C84.3407 33.5514 84.3831 33.6278 84.4613 33.7082C84.4678 33.7147 85.0036 34.1329 85.0036 34.1329C85.1862 34.2633 85.3421 34.3279 85.4761 34.3279L85.64 34.312L85.7401 34.2633C85.7541 34.2552 85.8136 34.1621 85.8136 34.1621L85.8289 34.1382L85.8174 34.1335V33.6893H87.4642V35.3977H88.2092V32.168H88.9755V31.6828H88.8696V31.6837ZM72.9765 31.6837V31.6965H72.1606C72.1555 31.6902 72.1505 31.6839 72.1456 31.6775L72.0861 31.562L72.0415 31.4369L72.0453 31.3165C72.0445 31.3072 72.0441 31.2978 72.044 31.2885C72.044 31.2106 72.0658 31.1261 72.1085 31.0293C72.2229 30.8539 72.3928 30.7378 72.6194 30.6881C72.7445 30.6511 72.8747 30.6334 73.0052 30.6356C73.1941 30.6356 73.4101 30.662 73.6472 30.7151C73.9306 30.7812 74.1827 30.8623 74.395 30.9545L75.008 31.228C75.0105 31.2295 75.2443 31.3388 75.2443 31.3388C75.2449 31.3388 75.5964 31.5477 75.5964 31.5477L75.8115 31.6837H72.9765ZM87.463 32.169V33.1801H85.8161V32.169H87.463Z" fill="white"/>
</g>
<defs>
<clipPath id="clip0_828_5022">
<rect width="89" height="40" fill="white"/>
</clipPath>
</defs>
</svg>
