<svg width="196" height="40" viewBox="0 0 196 40" fill="none" xmlns="http://www.w3.org/2000/svg">
<path d="M32.4304 9.23168C34.9402 12.3204 36.4202 16.3102 36.4202 20.5565C36.4202 24.8688 34.9397 28.7927 32.4304 31.8813V31.0451C34.6184 28.0846 35.9058 24.482 35.9058 20.556C35.9058 16.631 34.6189 13.0274 32.4304 10.0669V9.23168ZM32.4304 26.9275L32.6235 27.0552L33.2028 26.7339L32.4304 26.412V26.9275ZM32.4304 25.3832C32.9459 25.447 33.6529 24.9321 33.7167 24.1607L33.2667 24.2245C33.0736 24.6751 32.8161 24.9964 32.4299 24.8688L32.4304 25.3832ZM32.4304 23.7745L32.4948 23.7101L32.6235 23.9027L33.0736 23.5165C32.4304 22.5509 32.4948 21.7141 32.881 21.6508C33.3321 21.5854 33.6529 22.2934 33.5885 23.0015L34.104 22.6802C33.9109 21.8434 33.4603 21.3284 32.8166 21.3284C32.6879 21.3284 32.5597 21.3922 32.4304 21.4572V23.7745ZM32.4304 20.5565H33.9109L34.2327 20.0426H32.4309L32.4304 20.5565ZM32.4304 18.4339H33.3965L33.6534 17.8546L32.4309 17.9184L32.4304 18.4339ZM32.4304 17.2109H33.3965L33.6534 16.6959H32.4309L32.4304 17.2109ZM29.4711 6.27174V6.97873C30.5653 7.87991 31.5947 8.91037 32.4309 10.068L32.4304 9.23168C31.5292 8.13793 30.5653 7.17184 29.4711 6.27174ZM32.4304 31.8813V31.0451C31.5942 32.2032 30.5648 33.2342 29.4705 34.1987V34.8424C30.5653 34.0056 31.5298 32.9756 32.4304 31.8813ZM32.4309 16.6959H31.5942L31.2712 17.2109H32.4304L32.4309 16.6959ZM32.4309 17.9184H31.5942L31.2079 18.4334H32.4299L32.4309 17.9184ZM32.4309 20.0426H31.7224C31.7224 19.9139 31.7224 19.7197 31.7224 19.5277H31.3372C31.4016 19.9139 31.4016 20.2352 31.4016 20.557C31.4654 23.1313 30.7579 25.5114 29.4705 27.5707V28.0862C29.5993 27.8931 29.7275 27.6994 29.8567 27.4425C30.2424 27.3143 30.7579 27.2499 31.0148 27.5074C31.7862 28.2149 31.1436 28.9874 30.7579 29.0512C30.2424 29.1794 30.3079 28.6012 30.8212 28.2144C30.6941 28.0857 30.6292 27.9575 30.5648 27.8276C29.7929 28.3426 29.7275 29.1794 30.501 29.5018C31.0148 29.7587 31.7862 29.2438 31.916 28.6001C32.2373 27.1834 30.9505 26.7983 30.1142 26.9914C30.3079 26.7344 30.4366 26.412 30.5653 26.1546L32.4309 26.9265L32.4304 26.412L30.7584 25.7045C31.1446 24.6746 31.466 23.6452 31.5952 22.5509H32.174L32.3033 23.0659C31.8522 23.6452 31.5952 24.2889 31.8522 24.8677C31.9804 25.189 32.174 25.3177 32.4309 25.3821V24.8677H32.3666C32.0453 24.6746 32.1096 24.2884 32.4309 23.7734L32.4304 21.4572C32.2373 21.5854 32.1091 21.779 32.1091 22.0365H31.6585C31.7224 21.5854 31.7867 21.0709 31.7867 20.556L32.4304 20.5565L32.4309 20.0426ZM29.4711 32.9762V32.5261H29.7934V32.9762H29.4711ZM29.4711 30.7238V29.9524C29.6642 29.9524 29.8573 30.0806 29.8573 30.3375C29.8567 30.5301 29.6642 30.7238 29.4711 30.7238ZM29.4711 24.4825V22.2945C29.5349 21.7801 29.5998 21.1369 29.5998 20.557C29.5998 19.9777 29.5349 19.3989 29.4711 18.8201V16.6315C29.9216 17.8546 30.1142 19.2058 30.1142 20.5565C30.1142 21.9083 29.9216 23.2595 29.4711 24.4825ZM29.4711 15.666V15.1516C29.5349 15.5383 29.9216 15.666 30.6292 15.666V15.9229C30.1142 15.9884 29.728 15.8596 29.4711 15.666ZM29.4711 14.9585V13.5423L30.8866 11.0963L29.4711 11.3543V11.033L32.0453 10.5818L29.7285 14.3142C29.5998 14.5722 29.4711 14.7659 29.4711 14.9585ZM29.4711 8.71619V8.07302C29.5998 8.07302 29.728 8.00812 29.8573 7.94428L29.4711 8.71619ZM25.4169 3.82621C26.8325 4.46938 28.2486 5.30565 29.4711 6.27174V6.97873C28.2491 5.94935 26.8325 5.11308 25.4169 4.40554V3.82621ZM29.4705 34.8424C28.2486 35.8074 26.8325 36.6436 25.4169 37.2879V36.7086C26.8325 36.0649 28.2481 35.1637 29.4705 34.1987V34.8424ZM29.4711 8.07302V8.71619L28.2491 11.2266L29.4711 11.0346V11.3559L27.3469 11.6777L28.763 8.65343C27.797 9.16785 26.5117 9.68227 25.4175 9.74772V9.42533C26.7043 9.36042 28.1837 8.65182 29.4711 8.07302ZM29.4711 13.5423L29.1492 14.0573C28.8263 14.6366 28.9572 15.2798 29.4711 15.666V15.1516C29.4711 15.0867 29.4711 15.0228 29.4711 14.9585V13.5423ZM29.4711 16.6315C28.6992 14.3797 27.2187 12.4486 25.4169 11.0968V11.7416C27.5411 13.479 29.02 15.9889 29.4711 18.8201V16.6315ZM29.4711 22.2945V24.4825C28.6992 26.735 27.2187 28.665 25.4169 30.0817V29.3736C27.5411 27.6351 29.02 25.1257 29.4711 22.2945ZM29.4705 27.5707L29.4711 28.0857C29.02 28.7932 28.5061 29.4374 27.9262 30.0162L28.5061 30.7887C28.1837 31.0456 27.797 31.3031 27.4762 31.5606C27.1543 31.7537 27.4118 32.2686 27.8624 31.8175C28.2491 31.4313 28.6337 30.9812 29.0849 31.3025C29.5349 31.56 29.4067 32.0745 29.02 32.5256L29.4711 32.5261V32.9756L28.6337 33.1044L28.4406 33.5544L28.0555 33.4901L28.2486 33.04L27.5411 33.1677V32.9118C28.0555 32.7841 28.4406 32.5899 28.6986 32.2043C28.9567 31.8175 28.5699 31.6255 28.2486 32.0112C27.9257 32.3341 27.1543 32.6554 26.8969 32.4617C26.3814 32.0112 26.8969 31.2403 27.8619 30.8536L27.5406 30.4035C26.8969 30.9823 26.1883 31.5611 25.4164 32.0117V31.626C27.0256 30.5955 28.4401 29.1794 29.4705 27.5707ZM29.4711 29.9524C29.2136 29.9524 29.0849 30.0806 29.0849 30.3375C29.0849 30.5301 29.2131 30.7238 29.4711 30.7238V29.9524ZM25.4169 33.6837L25.8031 34.5205H26.3819L25.4169 32.5905V33.6837ZM25.4169 26.9275V26.4775H26.4474V15.1516H25.4169V14.6366H26.8974V26.9275H25.4169ZM25.4169 25.5114C25.6095 25.3194 25.7382 25.0613 25.7382 24.8039C25.7382 24.5469 25.61 24.29 25.4169 24.1607V25.5114ZM25.4169 23.9676C25.4813 23.9032 25.6095 23.7106 25.6095 23.4532C25.6095 23.2606 25.5457 23.0669 25.4169 22.8744V23.9676ZM25.4169 21.1364V17.404H25.6095L25.9313 18.0466H25.4813V21.1991L25.4169 21.1364ZM25.4169 17.0178V16.181C25.6095 16.181 25.8031 16.3735 25.8031 16.631C25.8031 16.8247 25.6095 17.0178 25.4169 17.0178ZM24.3227 3.43999V3.95442C24.6451 4.14645 25.0307 4.27627 25.4169 4.40501V3.82621C25.0307 3.69801 24.6451 3.56873 24.3227 3.43999ZM25.4169 37.2879V36.7086C25.0307 36.8373 24.6451 37.0315 24.3227 37.1586V37.7379C24.6451 37.5448 25.0307 37.4166 25.4169 37.2879ZM25.4169 9.42426C25.0307 9.42426 24.6451 9.42426 24.3227 9.29605V9.61737C24.6451 9.74664 24.9658 9.74664 25.4169 9.74664V9.42426ZM25.4169 11.0968C25.0307 10.7755 24.6451 10.5829 24.3227 10.3254V10.9691C24.71 11.2261 25.0307 11.4841 25.4169 11.7416V11.0968ZM25.4169 14.6366V15.1516H24.3227V14.6366H25.4169ZM25.4169 16.181V17.0178C25.1595 17.0178 24.9658 16.8252 24.9658 16.6315C24.9658 16.3746 25.1595 16.181 25.4169 16.181ZM25.4169 17.404V21.1364L24.8376 20.814V19.9128C24.71 20.0416 24.5163 20.1698 24.3227 20.2347V19.3329L24.5163 19.6553C24.6445 19.591 24.7733 19.4622 24.8376 19.3984V19.076C24.7733 19.076 24.7733 19.076 24.7733 19.076C24.71 18.9483 24.5163 18.8834 24.3227 18.8834V18.4967C24.5163 18.561 24.71 18.6898 24.8376 18.8834V18.1121H24.3227V17.0821C24.387 17.2109 24.5163 17.2753 24.6451 17.4051H24.8376C24.6451 17.212 24.4519 16.9545 24.3227 16.7608V16.2459C24.6451 16.6321 24.8376 17.0827 25.2244 17.4045L25.4169 17.404ZM25.4169 22.8744C25.2244 22.7456 25.0307 22.6164 24.6451 22.6164H24.3227V23.1957H24.5163C24.7733 23.1957 24.9658 23.2601 24.9658 23.5175C24.9658 23.775 24.7733 23.8394 24.5163 23.8394H24.3227V24.3538H24.5807C24.8376 24.3538 25.0307 24.4831 25.0307 24.7406C25.0307 25.0624 24.902 25.255 24.5807 25.255H24.3227V25.7699H24.4519C25.0307 25.7699 25.2238 25.7056 25.4169 25.5125V24.1607C25.3526 24.0958 25.2882 24.0963 25.2244 24.0963C25.2882 24.032 25.3526 24.032 25.4169 23.9676V22.8744ZM25.4169 26.4775H24.3227V26.9275H25.4169V26.4775ZM25.4169 29.3736C25.0307 29.6949 24.71 29.9529 24.3227 30.145V30.7881C24.6451 30.5956 25.0307 30.3375 25.4169 30.0817V29.3736ZM25.4169 31.6249C25.0307 31.8819 24.6451 32.075 24.3227 32.2686V32.6549C24.4519 32.5905 24.5807 32.5261 24.71 32.4612L25.0313 32.9762L24.3232 33.3629V33.8779L25.2249 33.4262L25.4175 33.6832V32.5899L25.16 32.1394C25.2249 32.1394 25.2887 32.0745 25.4175 32.0101L25.4169 31.6249ZM24.0663 3.31125C24.1301 3.37509 24.1929 3.37509 24.3227 3.43999V3.95442C24.1934 3.95442 24.1306 3.95442 24.0663 3.89005V3.31125ZM24.3227 37.7379C24.1934 37.7379 24.1301 37.7385 24.0657 37.8023V37.2235C24.1296 37.2235 24.1929 37.1586 24.3227 37.1586V37.7379ZM24.3227 9.29605V9.61737C24.1934 9.61737 24.1301 9.553 24.0657 9.553V9.23168C24.1301 9.23168 24.1934 9.29605 24.3227 9.29605ZM24.3227 10.3254V10.9691C24.2588 10.9048 24.1301 10.8399 24.0657 10.8399V10.1967C24.1301 10.2605 24.1934 10.2605 24.3227 10.3254ZM24.3227 14.6366H24.0657V15.1516H24.3227V14.6366ZM24.3227 16.2459C24.2588 16.1815 24.1301 16.1166 24.0657 16.0522V16.5023C24.1296 16.5672 24.2583 16.631 24.3227 16.7592V16.2459ZM24.3227 17.0821C24.1934 17.0178 24.1301 16.9539 24.0657 16.8896V17.4045V18.1115L24.3227 18.1121V17.0821ZM24.3227 18.4983C24.2588 18.4983 24.1301 18.4983 24.0657 18.4983V18.9494C24.1296 18.9494 24.2583 18.8845 24.3227 18.8845V18.4983ZM24.3227 19.334L24.0657 19.0122V19.7197L24.1296 19.7841H24.0657V20.2347C24.1296 20.2347 24.2583 20.2347 24.3227 20.2347V19.334ZM24.3227 22.6164V23.1957H24.0657V22.6164H24.3227ZM24.3227 23.8394V24.3538L24.0657 24.3533V23.8388L24.3227 23.8394ZM24.3227 25.2539V25.7689H24.0657V25.2539H24.3227ZM24.3227 26.4775V26.9275H24.0657V26.4775H24.3227ZM24.3227 30.145V30.7881C24.1934 30.8525 24.1301 30.8525 24.0657 30.9169V30.2732C24.1301 30.2737 24.2588 30.2093 24.3227 30.145ZM24.3227 32.2686V32.6549C24.2588 32.7187 24.1301 32.7187 24.0657 32.7836V32.3968C24.1301 32.333 24.2588 32.333 24.3227 32.2686ZM24.3227 33.3624V33.8773L24.1934 33.9406C24.3227 34.4561 24.2588 34.9062 24.0663 35.2275V33.4268L24.3227 33.3624ZM23.7434 3.24688V3.82675C23.8726 3.82675 24.0014 3.89112 24.0663 3.89112V3.31125C24.0014 3.31072 23.8726 3.24688 23.7434 3.24688ZM24.0657 37.8023V37.2235C24.0014 37.2879 23.8732 37.2879 23.7434 37.3523V37.8672C23.8726 37.8672 24.0008 37.8023 24.0657 37.8023ZM24.0657 9.23168C24.0014 9.16678 23.8732 9.16678 23.7434 9.10348V9.36042C23.8726 9.42479 23.9359 9.48916 24.0663 9.55246L24.0657 9.23168ZM24.0657 10.1967C24.0014 10.1323 23.8732 10.068 23.7434 10.0036V10.6473C23.8726 10.7117 24.0008 10.776 24.0657 10.8399V10.1967ZM24.0657 14.6366V15.1516H23.7434V14.6366H24.0657ZM24.0657 16.0522V16.5023C24.0014 16.3741 23.9365 16.3102 23.8732 16.2453C23.8093 16.2453 23.8093 16.181 23.7439 16.181V15.7947C23.8093 15.7947 23.8093 15.8591 23.8093 15.8591C23.9359 15.9235 24.0008 15.9884 24.0657 16.0522ZM24.0663 16.889V17.404L23.7434 17.146V16.6959C23.8726 16.7598 24.0014 16.8247 24.0663 16.889ZM24.0663 17.404V18.111H23.7434V17.404H24.0663ZM24.0657 18.4983V18.9494L24.0663 19.0132V19.7208L23.7434 19.2707V18.4983C23.8088 18.4983 23.8726 18.4983 23.9359 18.4983C24.0014 18.4983 24.0008 18.4983 24.0657 18.4983ZM24.0663 19.7846V20.2352C23.9365 20.2352 23.8732 20.2352 23.7434 20.1698V19.7841C23.8726 19.7846 23.9359 19.7846 24.0663 19.7846ZM24.0657 22.6164H23.7434V23.1957H24.0657V22.6164ZM24.0657 23.8388H23.7434V24.3533H24.0657V23.8388ZM24.0657 25.2539H23.7434V25.7689H24.0657V25.2539ZM24.0657 26.4775H23.7434V26.9275H24.0657V26.4775ZM24.0663 30.2737C24.0019 30.3375 23.8732 30.403 23.7434 30.4663V31.11C23.8726 31.0456 24.0014 30.9818 24.0663 30.9174V30.2737ZM24.0663 32.3974C24.0019 32.3974 23.8732 32.4612 23.7434 32.5261V32.9123C23.8726 32.8485 24.0014 32.7847 24.0663 32.7847V32.3974ZM24.0663 33.4268L23.9365 33.4911L23.7439 33.0411V35.5504C23.8732 35.4871 24.0019 35.3584 24.0668 35.2291L24.0663 33.4268ZM23.2933 3.11814C23.4221 3.11814 23.6157 3.18359 23.7434 3.24688V3.82621C23.6157 3.76131 23.4221 3.69747 23.2933 3.6331V3.11814ZM23.7434 37.8672C23.6157 37.931 23.4221 37.996 23.2933 38.0603V37.4815C23.4221 37.4166 23.6157 37.4166 23.7434 37.3523V37.8672ZM23.7434 9.10348V9.36042C23.7434 9.36042 23.7434 9.36042 23.7434 9.29605V9.03804C23.7434 9.03804 23.7434 9.03804 23.7434 9.10348ZM23.7434 10.0036V10.6473C23.6157 10.5196 23.4221 10.4547 23.2933 10.3903V9.81101C23.4221 9.87485 23.6157 9.93922 23.7434 10.0036ZM23.7434 14.6366H23.2933V15.1516H23.7434V14.6366ZM23.7439 15.7947C23.6162 15.7309 23.4221 15.666 23.2933 15.6022V16.0522H23.3577C23.4859 16.0522 23.6157 16.1166 23.7439 16.181V15.7947ZM23.7434 16.6959C23.7434 16.6316 23.6795 16.6315 23.6795 16.6315C23.5513 16.5028 23.4226 16.439 23.2933 16.439V16.889H23.3577L23.7434 17.146V16.6959ZM23.7434 17.404H23.2933V18.111H23.7434V17.404ZM23.7434 18.4983C23.5513 18.4983 23.4221 18.5621 23.2933 18.6909V19.9772C23.4221 20.0421 23.5508 20.1698 23.7434 20.1698V19.7841C23.6157 19.7841 23.5513 19.7192 23.4864 19.6553C23.3582 19.4622 23.4226 19.2691 23.6795 19.0755L23.7434 19.2686V18.4983ZM23.7434 22.6164V23.1957V23.8388V24.3533V25.2539V25.7689L23.2933 25.7694V22.6164H23.7434ZM23.7434 26.4775V26.9275H23.2933V26.4775H23.7434ZM23.7434 30.4663V31.11C23.6157 31.1749 23.4221 31.2393 23.2933 31.3675V30.7238C23.4221 30.6599 23.6157 30.5956 23.7434 30.4663ZM23.7434 32.5261V32.9123C23.7434 32.9123 23.7434 32.9123 23.6795 32.9123L23.7439 33.0411V35.5504C23.6162 35.6153 23.4221 35.6153 23.2933 35.6153V35.2935C23.6795 35.3579 23.8726 34.7791 23.6157 34.1992C23.4864 34.1992 23.3582 34.263 23.2933 34.263V33.7486C23.3577 33.6837 23.3577 33.6837 23.4221 33.6204L23.2933 33.298V32.7187C23.4221 32.6549 23.6157 32.5905 23.7434 32.5261ZM18.2104 2.3457V2.92503C19.9467 2.92503 21.6852 3.18251 23.2939 3.63257V3.11814C21.6846 2.60372 19.9467 2.3457 18.2104 2.3457ZM23.2933 38.0603V37.4815C21.6846 37.996 19.9467 38.2529 18.2098 38.2529V38.7673C19.9467 38.7679 21.6846 38.5104 23.2933 38.0603ZM23.2933 9.81101C21.749 9.03857 20.0121 8.65182 18.2098 8.65182V9.16624C20.0116 9.16624 21.749 9.61683 23.2933 10.3893V9.81101ZM23.2933 14.6366H21.749V26.4775H20.9771V25.7694H20.3983L20.1414 25.3832V24.0314C20.3345 23.7745 20.4627 23.9027 20.7197 23.3872L20.8484 23.0015C20.9771 22.9377 21.0415 22.6802 21.0415 22.4222H20.5265C20.5265 22.9371 20.076 23.1302 19.819 23.1302V22.1652C20.0121 22.1014 20.1414 22.1014 20.3983 21.779L20.5904 21.4572C20.7191 21.3922 20.7835 21.3284 20.8479 21.1991V20.9422H20.2047L20.1409 21.3922H19.4328V20.7491C19.7552 20.5565 20.2047 20.3629 20.2696 19.9128C20.3345 19.9128 20.5909 19.7197 20.6558 19.7197V19.3335H20.1414L19.9472 19.6569C19.8196 19.9139 19.2397 19.8495 19.3041 19.8495V19.1414C19.627 19.0132 19.9472 18.8196 20.0765 18.5621L20.3989 18.4344V17.9195H19.8196C19.8196 18.1121 19.6903 18.3057 19.4972 18.4344C19.3695 18.4344 19.3041 18.4344 19.1753 18.4344V17.7907C19.4972 17.5976 19.8829 17.4678 19.9467 17.0183L20.2696 16.889V16.5028H19.6898C19.6898 16.6316 19.4972 16.8257 19.4328 16.9539H19.1099V16.4384C19.4328 16.2453 19.6259 15.9879 19.6892 15.6016L20.076 15.5378V15.0867H19.4967C19.369 15.666 19.1099 15.666 18.9822 15.6016V15.0867C19.3035 14.8941 19.3035 14.8297 19.6259 14.5073C19.8829 14.3791 20.076 13.7998 19.8185 13.8642H19.5616C19.369 13.8642 19.369 14.1866 19.2386 14.3142C19.1748 14.3142 18.9817 14.3786 18.8524 14.3786V13.7993C19.1748 13.7354 19.561 13.4774 19.6254 13.0912H19.818C19.818 13.0274 19.818 12.8986 19.8818 12.7694C19.6887 12.7694 19.4956 12.7694 19.3679 12.7694C19.3025 13.0268 19.1094 13.1566 18.9168 13.2199C18.6599 13.0274 18.5944 13.0274 18.5306 12.7055C18.5306 12.2544 18.9812 11.8682 18.6593 11.3532L18.5944 11.0314C18.5944 10.5169 18.4013 10.452 18.2087 10.2589V26.9259H23.2922V26.4753H22.1336V15.1516H23.2922V14.6366H23.2933ZM23.2933 15.6022V16.0522H22.9071L22.6502 15.6022H23.2933ZM23.2933 16.439V16.889H22.9715L22.6502 16.3751C22.8422 16.3751 22.9715 16.3751 23.1646 16.3751C23.2289 16.3746 23.2289 16.3746 23.2933 16.439ZM23.2933 17.404V18.111H22.9715L22.7145 17.404H23.2933ZM23.2933 18.6909V19.9772C23.1007 19.7846 22.9715 19.591 22.9715 19.3335C22.9071 19.0765 23.0364 18.8196 23.2933 18.6909ZM23.2933 22.6164H23.1651V25.7694H23.2933V22.6164ZM23.2933 30.7238C21.749 31.4957 20.0121 31.9468 18.2098 31.9468V32.4607C20.0116 32.4607 21.749 32.0745 23.2933 31.3675V30.7238ZM23.2933 32.7187C21.6846 33.3624 20.0121 33.7481 18.2098 33.7481V36.3862L18.5317 36.6437V35.5494C18.7886 35.4212 18.9822 35.3573 19.1748 35.228C19.6259 34.9057 20.3978 34.6493 20.5904 35.0993C20.7191 35.4861 20.0121 35.743 19.4328 35.6143C19.369 35.8068 19.3035 36.001 19.2392 36.1292C19.7552 36.1936 20.5909 36.2574 20.8484 35.6781C21.1053 35.0355 20.9122 34.4567 20.0121 34.4567C19.5616 34.3923 19.0461 34.6493 18.5317 34.9067V34.0699C20.2047 34.0699 21.749 33.7481 23.2289 33.1682L23.2933 33.298V32.7187ZM23.2933 33.7486C22.1347 34.263 22.264 35.2286 22.9715 35.5494C23.0358 35.5494 23.1646 35.6143 23.2933 35.6143V35.2924C23.2289 35.2924 23.1007 35.228 23.0364 35.228C22.6507 34.9711 22.7145 34.5205 23.2933 34.263V33.7486ZM18.2104 6.59305V6.07863L19.7552 3.50436L21.0415 7.68734C21.3633 8.71619 21.9416 8.78109 22.6507 7.87938L22.8427 8.07249C22.0065 9.23061 20.7835 8.9093 20.4622 7.94375L19.4328 4.72578L18.2104 6.59305ZM18.2104 38.7679C16.0862 38.7679 13.9631 38.3811 12.0326 37.6736V37.0953C13.9631 37.8018 16.0862 38.2534 18.2104 38.2534V38.7679ZM12.0326 3.43999C13.9631 2.73192 16.0862 2.3457 18.2104 2.3457V2.92503C16.0862 2.92503 13.9631 3.31125 12.0326 4.01932V3.43999ZM18.2104 6.07863V6.59305L17.5023 7.75117L16.216 4.72578C15.766 6.46324 14.7999 8.78056 13.3849 8.97259L13.1918 8.84439C15.1234 8.13686 15.6372 5.43439 16.3442 3.43946L17.7608 6.78509L18.2104 6.07863ZM18.2104 8.65235V9.16678C15.9585 9.16678 13.8349 9.87485 12.0326 11.0335V10.3898C13.8344 9.29605 15.958 8.65235 18.2104 8.65235ZM18.2104 10.2605V26.9275H12.0326V26.4775H14.2206V15.1516H12.0326V14.6366H14.6712V26.4775H15.4425V25.8332H15.958L16.2793 25.3832V24.0314C15.958 23.8383 15.7005 23.5814 15.5723 23.0015L15.3149 22.8738V22.4871H15.766C15.8298 22.9377 16.1516 23.1302 16.4086 23.1302V22.1652C16.1516 22.1652 15.9585 21.9721 15.766 21.5859L15.7011 21.3928C15.5729 21.3928 15.4436 21.329 15.3792 21.1997V20.9427H16.0224L16.0862 21.3928H16.4086L16.4729 20.7496C16.1511 20.4927 15.8942 20.1698 15.7011 19.7846C15.6367 19.7846 15.5729 19.7202 15.508 19.7202C15.508 19.592 15.508 19.4633 15.508 19.334H16.0229V19.6569C16.0229 19.9139 16.6022 19.8495 16.6022 19.8495L16.5384 19.1414C16.2804 19.0771 16.0229 18.7552 15.8303 18.4983L15.5734 18.4344V18.0477H16.1522C16.1522 18.1759 16.2165 18.3046 16.4091 18.4344C16.4735 18.4344 16.6022 18.4344 16.7315 18.4344V17.7907C16.3442 17.5976 16.0873 17.3396 16.0234 16.889H15.7665V16.5023H16.3442C16.3442 16.631 16.4091 16.8252 16.5384 16.9534L16.7948 16.888V16.4384C16.4735 16.2453 16.2165 15.9879 16.1522 15.6016L15.8303 15.5378V15.0867H16.2804C16.4091 15.666 16.7315 15.666 16.9246 15.6016V15.0867C16.6022 14.9585 16.3442 14.8297 16.2804 14.5073C16.0234 14.3791 15.7665 13.928 16.0234 13.928H16.2804C16.4735 13.928 16.5384 14.2504 16.6671 14.4435C16.7315 14.4435 16.8592 14.4435 16.9246 14.4435V13.8642C16.6022 13.8642 16.3442 13.478 16.2804 13.0917H16.0873C16.0234 13.0279 16.0234 12.8992 16.0234 12.7699C16.2165 12.7699 16.3447 12.7699 16.5389 12.7699C16.6028 13.0274 16.7953 13.1572 16.9884 13.2205L17.1166 13.0279C17.1166 12.8986 17.1166 12.7704 17.1166 12.6411C16.9884 12.1262 16.7315 11.7405 17.2459 11.3543L17.0528 10.8393C16.9251 9.81048 17.3757 10.1318 17.7608 9.81048C17.8258 9.6812 18.0189 9.74611 18.0832 9.87431C18.0816 10.068 18.1455 10.1967 18.2104 10.2605ZM18.2104 31.9473V32.4612C15.9585 32.4612 13.8349 31.818 12.0326 30.7243V30.1455C13.8344 31.2393 15.958 31.9473 18.2104 31.9473ZM18.2098 33.7481V36.3862L18.146 36.258V35.6786C17.4385 35.9356 16.6661 36.0659 16.0224 35.7435C15.5074 35.4217 15.3149 34.9067 16.0862 34.5854C16.5379 34.3285 17.0517 34.3285 17.6316 34.6498C17.5023 34.7136 17.3746 34.8424 17.3103 34.9716C16.6017 34.7142 16.0862 34.9073 16.1511 35.2286C16.2155 35.6148 16.9235 35.6148 18.146 35.1637L18.0822 34.0699C16.8586 34.0699 15.7011 33.9412 14.5424 33.6199L13.7056 35.9356L13.5125 35.3568L14.0919 33.4257C13.7056 33.3619 13.3194 33.1682 12.9343 33.04L12.8699 33.3624C13.1912 33.4906 13.3843 33.813 13.2551 34.263C13.1274 34.7136 12.6768 34.9711 12.0331 35.0355V34.52C12.4837 34.5849 12.8705 34.52 12.9348 34.1987C12.9981 33.8773 12.6774 33.6199 12.0331 33.6199V33.1682L12.355 33.2336L12.4837 32.8469C12.355 32.7831 12.2262 32.7182 12.0331 32.5899V32.2037C12.6119 32.5256 13.1912 32.7836 13.7711 32.9751C13.578 32.3963 13.3194 32.0095 12.805 32.0095V31.5595C13.3843 31.6882 13.8987 32.0739 14.2855 32.8464H14.7361L14.7999 33.2969C15.8936 33.5555 17.0507 33.7481 18.2098 33.7481ZM12.0326 25.7694H12.4832L13.0614 23.1308V25.7694H13.6413V22.6164H12.7401L12.1613 25.1262L12.0326 24.6757V25.7694ZM12.0326 19.592H12.6763V20.9438L13.2545 21.3939V18.1121H13.7056L13.5125 17.4678H12.0326V18.1121H12.6763V18.9494H12.0326V19.592ZM12.0326 9.93922C12.2901 9.61683 12.3544 9.16678 12.2901 8.65235H12.0326V9.93922ZM12.0326 37.6736V37.0953C11.0027 36.7086 9.97388 36.1936 9.00782 35.6148V36.258C9.97388 36.8378 11.0027 37.2879 12.0326 37.6736ZM9.00782 4.85613V5.4993C9.97388 4.91997 11.0027 4.40554 12.0326 4.01932V3.43999C11.0027 3.82621 9.97388 4.34064 9.00782 4.85613ZM12.0326 8.65235C12.1613 9.81101 11.7102 10.1967 10.7458 9.6812L9.00836 8.84493V9.61629L10.5527 10.3244C11.1325 10.5813 11.7108 10.3887 12.0331 9.93814L12.0326 8.65235ZM12.0326 10.3898C10.875 11.0963 9.84515 11.9985 9.00782 13.0279V13.8647C9.84515 12.7704 10.874 11.7416 12.0326 11.034V10.3898ZM12.0326 14.6366H9.4584V26.4775V26.9275H12.0326V26.4775H9.90898V15.1516H12.0326V14.6366ZM12.0326 17.4678H10.4234L10.6165 18.1121H10.9389V18.9494C10.4234 19.1414 10.359 19.3346 10.6819 19.85C10.8096 20.1075 11.0687 20.3001 11.3895 20.3001C11.582 20.1081 11.5182 19.9144 11.5182 19.5926L12.0326 19.592V18.9494L11.5182 18.9489V18.1121H12.0326V17.4678ZM12.0326 24.6757L11.582 22.6158H10.6165V25.7689H11.2602V23.1302L11.839 25.7689H12.0321L12.0326 24.6757ZM12.0326 30.1455C10.875 29.3736 9.84515 28.408 9.00782 27.2494V28.0857C9.84515 29.1794 10.874 30.0162 12.0326 30.7232V30.1455ZM12.0326 32.2043C12.0326 32.2043 11.9682 32.1399 11.9039 32.1399L11.7108 32.4612C11.8395 32.5261 11.9682 32.5899 12.0331 32.5899L12.0326 32.2043ZM12.0326 33.1687H11.8395C11.4533 32.5261 10.9389 32.1399 10.359 32.1399C9.78078 32.1399 9.33074 32.6549 9.97388 33.9412L10.4234 33.7486C10.0383 33.3629 9.84515 32.9118 10.1659 32.6549C10.4234 32.333 10.8096 32.5905 11.1963 33.1687L11.1325 33.298L11.1963 33.6837C11.5187 33.6204 11.8395 33.6199 12.0331 33.6199L12.0326 33.1687ZM12.0326 34.5205C11.9039 34.5205 11.7102 34.4572 11.582 34.3928V34.9716C11.7751 35.036 11.9039 35.036 12.0326 35.036V34.5205ZM9.00782 29.2438V28.4724C9.26476 28.4724 9.4584 28.6012 9.4584 28.8586C9.4584 29.0507 9.26583 29.2438 9.00782 29.2438ZM9.00782 36.258C8.94345 36.1936 8.87962 36.1298 8.81525 36.1298V35.4866C8.87962 35.5499 8.94345 35.6148 9.00782 35.6148V36.258ZM8.81525 4.9838C8.87962 4.9838 8.94345 4.91997 9.00782 4.85613V5.4993C8.94345 5.56367 8.87962 5.56367 8.81525 5.6275V4.9838ZM9.00782 8.84546V9.61683L8.81525 9.48863V8.78109L9.00782 8.84546ZM9.00782 13.0279V13.8647C8.94345 13.9935 8.87962 14.1217 8.81525 14.1871V13.2854C8.87962 13.221 8.94345 13.0917 9.00782 13.0279ZM9.00782 27.2494V28.0857C8.94345 28.0218 8.87962 27.8931 8.81525 27.8287V26.9281C8.87962 27.0557 8.94345 27.1206 9.00782 27.2494ZM9.00782 28.4724V29.2438C8.94345 29.2438 8.87962 29.1789 8.81525 29.1789V28.5362C8.87962 28.4719 8.94345 28.4724 9.00782 28.4724ZM8.81525 30.145V29.7582C8.87962 29.8226 8.94345 29.8869 9.00782 29.9519L8.81525 30.145ZM8.81525 36.1298V35.4866C8.42958 35.2291 8.0439 34.9716 7.65662 34.7142V35.3579C8.04337 35.6148 8.42958 35.8728 8.81525 36.1298ZM7.65662 5.75624V6.39994C8.0439 6.143 8.42958 5.88444 8.81525 5.6275V4.98434C8.42958 5.24182 8.04337 5.4993 7.65662 5.75624ZM8.81525 8.78109L7.65662 8.20123V8.97313L8.81525 9.48863V8.78109ZM8.81525 13.2854C8.36467 13.8647 7.97793 14.444 7.65662 15.0867V16.3097C7.97846 15.6016 8.36467 14.8936 8.81525 14.1871V13.2854ZM8.81525 26.9275C8.36467 26.2844 7.97793 25.5758 7.65662 24.8039V26.0264C7.97846 26.6695 8.36467 27.2488 8.81525 27.8276V26.9275ZM8.81525 28.5362C8.68652 28.6006 8.62268 28.6645 8.62268 28.8581C8.62268 28.9868 8.68652 29.1156 8.81525 29.1799V28.5362ZM8.81525 29.7582C8.36467 29.3725 7.97793 28.9225 7.65662 28.408V28.8581L8.1072 29.4374L7.65662 29.7593V30.4035L8.36467 29.8236C8.49395 29.9529 8.62215 30.0811 8.75088 30.2104L8.81525 30.146V29.7582ZM7.65662 12.1273V11.4197L7.91356 11.5485L7.65662 10.7111V9.61683L8.42958 12.3837L7.65662 12.1273ZM7.65662 35.3579C6.756 34.7142 5.91921 33.9412 5.08296 33.1687V32.3974C5.85484 33.2347 6.756 34.0066 7.65662 34.7142V35.3579ZM5.08296 7.94428C5.91921 7.17238 6.756 6.39994 7.65662 5.75624V6.39994C6.756 7.10801 5.85538 7.87991 5.08296 8.71619V7.94428ZM7.65662 8.20123V8.97313L7.46352 8.9093L7.65662 9.61629V10.7111L6.82037 7.81554L7.65662 8.20123ZM7.65662 11.4192V12.1267L5.27606 11.2905C6.24213 12.8343 7.33585 15.0867 6.49906 16.2448L6.24213 16.3097C6.88527 14.8287 5.98412 13.0912 5.08349 11.483V10.518L7.65662 11.4192ZM7.65662 15.0867V16.3097C7.14221 17.6609 6.82037 19.076 6.82037 20.5565C6.82037 22.037 7.14221 23.4526 7.65662 24.8039V26.0264C6.82037 24.4171 6.30542 22.5504 6.30542 20.556C6.30542 18.5621 6.82037 16.6959 7.65662 15.0867ZM7.65662 28.408V28.8581L7.20604 28.3437C7.01401 29.1799 6.56289 29.3731 5.79047 28.9874C5.79047 29.6305 6.43469 29.9529 7.20604 30.0817L7.65662 29.7593V30.4035L6.49906 31.368L6.36979 30.853L6.8209 30.403C5.21223 29.9529 5.21223 29.1167 5.59844 28.15C6.11285 28.8581 6.62834 28.7937 6.8209 27.8282C6.49906 27.3781 6.24213 26.8632 5.98358 26.3487L5.08296 26.6701V25.1901C5.27553 25.3832 5.33989 25.705 5.46917 26.0269L5.79101 25.8987C5.53407 25.255 5.27606 24.6118 5.08349 23.9676V21.9727C5.21223 23.1313 5.4697 24.2251 5.91975 25.2544C6.24266 24.8688 6.37033 24.4176 6.11285 23.9676L6.4996 23.775C6.69217 24.29 6.62834 24.9326 6.24266 25.7061L6.43577 26.0913L6.30649 26.2205C6.69163 26.9919 7.14221 27.7643 7.65662 28.408ZM5.08296 33.1687V32.3974C4.89093 32.1404 4.69675 31.8824 4.44035 31.626V32.4623C4.69675 32.7187 4.89039 32.9118 5.08296 33.1687ZM4.44035 8.65235V9.4897C4.69728 9.23276 4.89093 8.9742 5.08296 8.71726V7.94536C4.89039 8.20123 4.69675 8.45871 4.44035 8.65235ZM5.08296 10.5191L4.44035 10.2611C4.63292 10.6478 4.89093 11.0973 5.08296 11.4841V10.5191ZM5.08296 21.9721C5.08296 21.5221 5.01859 21.0066 5.01859 20.5565H4.69675C4.69675 20.9433 4.69675 21.264 4.69675 21.5859L4.43981 21.6513V22.1652L4.82548 22.1014L4.95422 23.0015L4.43981 23.0664V23.6457L5.01805 23.517C5.01805 23.7096 5.08242 23.8388 5.08242 23.967L5.08296 21.9721ZM5.08296 25.1901C4.95476 24.9326 4.69675 24.74 4.44035 24.6757V25.2544C4.69728 25.447 4.89093 25.9614 5.01859 26.735L5.08296 26.6701V25.1901ZM4.44035 27.0557V26.478C4.56855 26.5413 4.63292 26.6051 4.69728 26.735L4.44035 27.0557ZM4.44035 18.5621V18.0477H5.08296L4.82602 18.5621H4.44035ZM4.44035 17.404V16.8247H5.08296L4.89039 17.404H4.44035ZM4.44035 32.4612C3.92486 31.818 3.41045 31.11 2.89551 30.403V29.3731C3.34662 30.145 3.86103 30.9179 4.44035 31.626V32.4612ZM2.89551 10.7117C3.41045 10.0036 3.92486 9.29605 4.44035 8.65235V9.4897C3.86103 10.1967 3.34662 10.9697 2.89551 11.7416V10.7117ZM4.44035 16.8247V17.404H2.89551V17.0178L3.02371 16.8252L4.44035 16.8247ZM4.44035 18.0472H3.02371L2.89551 18.1754V18.5616L4.44035 18.5621V18.0472ZM4.44035 21.6513V22.1652H3.92486L4.0536 23.1302L4.44035 23.0659V23.6452L2.89551 23.8372V23.3861L3.47428 23.2584L3.34662 22.2929C3.21735 22.2929 3.02371 22.228 2.89551 22.228V21.6503C2.95934 21.6503 3.02371 21.6503 3.02371 21.6503C3.21681 21.5848 3.28064 21.3922 3.21681 21.1986C3.15298 21.006 3.02371 20.8768 2.89497 20.8768V20.2974C3.34608 20.2336 3.79613 20.5544 3.92433 21.6497H4.44035V21.6513ZM4.44035 24.6757V25.2544C4.37544 25.1901 4.31107 25.1895 4.18341 25.1895C3.60409 25.1895 3.66793 25.9609 3.98977 26.2838C4.18341 26.3482 4.31161 26.3482 4.44088 26.4769V27.0547L4.37598 27.1196L3.7972 26.9914L3.21788 27.3132C3.15405 27.377 3.02478 27.4414 2.89604 27.4414V26.7344L2.95987 26.6695L3.21735 26.8626L3.47428 26.6051L2.89551 26.2838V25.7689L3.34662 26.0902C3.21735 25.2539 3.47428 24.7395 4.11797 24.6751C4.24671 24.6751 4.37544 24.6757 4.44035 24.6757ZM2.89551 30.403V29.3731C1.41503 26.7988 0.57878 23.7745 0.57878 20.5565C0.57878 17.3391 1.41557 14.3142 2.89551 11.7405V10.7106C1.09426 13.5418 1.97116e-07 16.9534 1.97116e-07 20.5565C-0.000536206 24.1607 1.09373 27.5707 2.89551 30.403ZM2.89551 17.0178L2.70294 17.404H2.89551V17.0178ZM2.89551 18.1754V18.5616L2.63857 18.5621L2.89551 18.1754ZM2.89551 20.2996C2.57313 20.3639 2.25182 20.7502 2.25182 21.2646C2.25182 21.7146 2.44546 22.037 2.89551 22.2296V21.6519C2.76623 21.6519 2.63857 21.5226 2.63857 21.329C2.57366 21.1364 2.63857 20.8784 2.8306 20.8784C2.8306 20.8145 2.89551 20.8145 2.89551 20.8784V20.2996ZM2.89551 23.3877H2.70294C2.63857 23.0664 2.50929 22.7451 2.31619 22.4227L2.05925 22.5514C2.446 23.3228 2.12308 23.8378 1.73741 23.4526C1.28683 23.0664 1.60867 22.2945 1.73741 21.7795L1.54431 21.7146C1.22193 22.4227 1.02936 23.0669 1.54431 23.8383C1.93159 24.4176 2.31619 24.2245 2.70294 23.9027L2.89551 23.8383V23.3877ZM2.89551 25.7689L2.44546 25.5119L2.25182 25.8343L2.89551 26.2854V25.7689ZM2.89551 26.735L2.50876 27.0563L2.7024 27.3143C2.7657 27.3781 2.83006 27.4425 2.89497 27.4425L2.89551 26.735Z" fill="white"/>
<path d="M190.911 28.1773V27.3405C190.911 27.3405 190.911 27.3405 190.968 27.3405C191.311 27.3405 191.597 27.1838 191.882 26.9741V24.5168C191.653 24.6219 191.254 24.8306 190.91 24.9352V24.307C191.368 24.1504 191.71 23.9938 191.882 23.8366V23.4708C191.882 22.634 191.482 22.2161 190.91 22.1115V21.4319C191.081 21.3793 191.196 21.3793 191.368 21.3793C192.111 21.3793 192.74 21.5879 193.139 21.9018C193.653 22.3202 193.825 22.8952 193.825 23.5223V26.3975C193.825 27.0771 194.055 27.2863 194.283 27.2863C194.512 27.2863 194.683 27.2337 194.854 27.1817L195.024 27.7058L193.253 28.4895C192.909 28.4895 192.625 28.3849 192.395 28.1757C192.166 27.9659 192.052 27.7573 191.995 27.6006C191.654 27.8115 191.255 28.0207 190.911 28.1773ZM190.911 21.4335C189.998 21.6427 189.083 22.1131 188.569 22.4269C188.224 22.6881 188.054 22.8973 188.054 23.158C188.054 23.577 188.684 23.8902 189.083 23.8902C189.367 23.8902 189.598 23.7336 189.711 23.4724C189.826 22.9488 189.94 22.5835 190.111 22.3743C190.282 22.2177 190.511 22.1131 190.798 22.1131C190.853 22.1131 190.853 22.1131 190.911 22.1131V21.4335ZM190.911 24.3087C190.282 24.5179 189.539 24.7265 189.083 24.9363C188.283 25.2495 187.884 25.7725 187.884 26.5568C187.884 27.4977 188.74 28.4911 190.055 28.4911C190.283 28.4911 190.569 28.3865 190.912 28.1773V27.3405C190.454 27.3405 189.94 26.9221 189.94 26.243C189.94 25.6674 190.169 25.3541 190.625 25.0924C190.741 25.0393 190.798 24.9878 190.911 24.9357V24.3087ZM156.337 28.1773V27.3405C156.337 27.3405 156.337 27.3405 156.394 27.3405C156.738 27.3405 157.023 27.1838 157.308 26.9741V24.5168C157.079 24.6219 156.679 24.8306 156.336 24.9352V24.307C156.794 24.1504 157.136 23.9938 157.308 23.8366V23.4708C157.308 22.634 156.908 22.2161 156.336 22.1115V21.4319C156.507 21.3793 156.623 21.3793 156.794 21.3793C157.537 21.3793 158.165 21.5879 158.566 21.9018C159.079 22.3202 159.251 22.8952 159.251 23.5223V26.3975C159.251 27.0771 159.48 27.2863 159.708 27.2863C159.937 27.2863 160.109 27.2337 160.279 27.1817L160.45 27.7058L158.68 28.4895C158.335 28.4895 158.051 28.3849 157.821 28.1757C157.593 27.9659 157.479 27.7573 157.421 27.6006C157.08 27.8115 156.68 28.0207 156.337 28.1773ZM166.224 23.3678C166.166 23.1065 165.996 22.0085 165.825 21.6427C165.424 21.486 164.91 21.382 164.167 21.382C162.395 21.382 161.31 22.3228 161.31 23.5249C161.31 24.7276 162.682 25.3021 163.481 25.6159C164.395 25.9297 164.739 26.4001 164.739 26.9752C164.739 27.5502 164.339 27.864 163.767 27.864C162.795 27.864 161.938 26.818 161.653 25.8777L161.081 25.9297C161.081 26.6093 161.252 27.6548 161.311 27.864C161.654 28.1773 162.568 28.4916 163.482 28.4916C164.911 28.4916 166.511 27.8109 166.511 26.2435C166.511 25.0929 165.538 24.4664 164.283 23.9959C163.482 23.7347 162.968 23.3683 162.968 22.8453C162.968 22.3743 163.368 22.0085 163.94 22.0085C164.454 22.0085 165.14 22.4264 165.598 23.5244L166.224 23.3678ZM168.167 26.7134C168.167 27.6543 168.052 27.7079 167.081 27.8115V28.335H170.852V27.8115C170.167 27.7079 170.11 27.6543 170.11 26.7134V23.0534C170.453 22.6361 170.91 22.4789 171.367 22.4789C172.053 22.4789 172.567 22.9494 172.567 23.9948V26.7134C172.567 27.6543 172.453 27.7079 171.768 27.8115V28.335H175.425V27.8115C174.624 27.7079 174.51 27.6543 174.51 26.7134V23.7336C174.51 22.2177 173.767 21.3814 172.281 21.3814C171.424 21.3814 170.624 21.8513 170.11 22.3223V17.5117C169.138 17.7215 168.052 17.9301 167.138 18.0353V18.5057C168.11 18.6098 168.167 18.6098 168.167 19.4986V26.7134ZM176.739 26.6088C176.739 27.9681 177.425 28.4916 178.625 28.4916C178.797 28.4916 179.026 28.4385 179.311 28.3345L180.511 27.864L180.34 27.3405C180.11 27.4451 179.882 27.4971 179.54 27.4971C179.14 27.4971 178.683 27.2359 178.683 26.1373V22.3223H180.11C180.397 22.2177 180.397 21.6947 180.226 21.5381H178.683V19.5512L178.453 19.446L176.74 20.5967V21.5386H176.11L175.653 22.1131L175.767 22.3228H176.74L176.739 26.6088ZM182.283 26.7134C182.283 27.6543 182.226 27.7079 181.253 27.8115V28.335H185.54V27.8115C184.397 27.7079 184.283 27.6543 184.283 26.6614V23.8902C184.568 23.2101 184.911 23.0014 185.196 23.0014C185.482 23.0014 185.654 23.106 185.94 23.3147C186.054 23.4198 186.226 23.4198 186.397 23.3678C186.797 23.2111 187.197 22.8448 187.197 22.3228C187.197 21.7993 186.739 21.382 186.168 21.382C185.54 21.382 184.911 21.9044 184.283 22.8973V21.3283C183.425 21.6427 182.453 21.7993 181.368 21.9559V22.3743C182.282 22.5315 182.282 22.5841 182.282 23.4724L182.283 26.7134ZM156.337 21.4335C155.424 21.6427 154.509 22.1131 153.994 22.4269C153.651 22.6881 153.48 22.8973 153.48 23.158C153.48 23.577 154.109 23.8902 154.509 23.8902C154.795 23.8902 155.023 23.7336 155.137 23.4724C155.252 22.9488 155.366 22.5835 155.538 22.3743C155.708 22.2177 155.937 22.1131 156.223 22.1131C156.279 22.1131 156.279 22.1131 156.337 22.1131V21.4335ZM156.337 24.3087C155.708 24.5179 154.965 24.7265 154.565 24.9363C153.707 25.2495 153.307 25.7725 153.307 26.5568C153.307 27.4977 154.166 28.4911 155.48 28.4911C155.708 28.4911 155.994 28.3865 156.337 28.1773V27.3405C155.879 27.3405 155.365 26.9221 155.365 26.243C155.365 25.6674 155.594 25.3541 156.051 25.0924C156.165 25.0393 156.222 24.9878 156.335 24.9357V24.3081H156.337V24.3087ZM142.164 28.1773V27.3405C142.508 27.3405 142.85 27.1838 143.136 26.9741V24.5168C142.907 24.6219 142.451 24.8306 142.164 24.9352V24.307C142.564 24.1504 142.964 23.9938 143.136 23.8366V23.4708C143.136 22.634 142.678 22.2161 142.164 22.1115V21.4319C142.279 21.3793 142.45 21.3793 142.564 21.3793C143.308 21.3793 143.937 21.5879 144.393 21.9018C144.908 22.3202 145.079 22.8952 145.079 23.5223V26.3975C145.079 27.0771 145.25 27.2863 145.536 27.2863C145.707 27.2863 145.88 27.2337 146.051 27.1817L146.279 27.7058L144.508 28.4895C144.164 28.4895 143.821 28.3849 143.65 28.1757C143.421 27.9659 143.25 27.7573 143.192 27.6006C142.907 27.8115 142.508 28.0207 142.164 28.1773ZM147.766 26.7134C147.766 27.6543 147.651 27.7079 146.737 27.8115V28.335H150.967V27.8115C149.823 27.7079 149.708 27.6543 149.708 26.6614V23.8902C149.994 23.2101 150.338 23.0014 150.623 23.0014C150.909 23.0014 151.081 23.106 151.365 23.3147C151.48 23.4198 151.652 23.4198 151.823 23.3678C152.223 23.2111 152.623 22.8448 152.623 22.3228C152.623 21.7993 152.166 21.382 151.594 21.382C150.967 21.382 150.338 21.9044 149.708 22.8973V21.3283C148.85 21.6427 147.879 21.7993 146.794 21.9559V22.3743C147.708 22.5315 147.766 22.5841 147.766 23.4724V26.7134ZM142.164 21.4335C141.25 21.6427 140.278 22.1131 139.821 22.4269C139.422 22.6881 139.251 22.8973 139.251 23.158C139.251 23.577 139.879 23.8902 140.279 23.8902C140.622 23.8902 140.849 23.7336 140.908 23.4724C141.022 22.9488 141.194 22.5835 141.366 22.3743C141.537 22.2177 141.765 22.1131 141.994 22.1131C142.051 22.1131 142.109 22.1131 142.166 22.1131V21.4335H142.164ZM142.164 24.3087C141.536 24.5179 140.792 24.7265 140.336 24.9363C139.536 25.2495 139.137 25.7725 139.137 26.5568C139.137 27.4977 139.994 28.4911 141.308 28.4911C141.537 28.4911 141.822 28.3865 142.166 28.1773V27.3405C141.651 27.3405 141.194 26.9221 141.194 26.243C141.194 25.6674 141.423 25.3541 141.88 25.0924C141.935 25.0393 142.051 24.9872 142.164 24.9352V24.3087ZM125.65 28.1773V27.3405C125.993 27.3405 126.335 27.1838 126.621 26.9741V24.5168C126.392 24.6219 125.993 24.8306 125.65 24.9352V24.307C126.107 24.1504 126.449 23.9938 126.621 23.8366V23.4708C126.621 22.634 126.163 22.2161 125.65 22.1115V21.4319C125.763 21.3793 125.935 21.3793 126.049 21.3793C126.793 21.3793 127.421 21.5879 127.877 21.9018C128.391 22.3202 128.562 22.8952 128.562 23.5223V26.3975C128.562 27.0771 128.793 27.2863 129.02 27.2863C129.248 27.2863 129.421 27.2337 129.535 27.1817L129.762 27.7058L127.991 28.4895C127.648 28.4895 127.363 28.3849 127.134 28.1757C126.905 27.9659 126.734 27.7573 126.676 27.6006C126.392 27.8115 125.993 28.0207 125.65 28.1773ZM131.079 26.7134C131.079 27.6543 130.963 27.7079 130.049 27.8115L129.992 28.335H133.764V27.8115C133.135 27.7079 133.021 27.6543 133.021 26.7134V23.0534C133.364 22.6361 133.878 22.4789 134.335 22.4789C134.963 22.4789 135.478 22.9494 135.478 23.9948V26.7134C135.478 27.6543 135.422 27.7079 134.678 27.8115V28.335H138.393V27.8115C137.535 27.7079 137.478 27.6543 137.478 26.7134V23.7336C137.478 22.2177 136.679 21.3814 135.192 21.3814C134.336 21.3814 133.536 21.8513 133.021 22.3223V17.5117C132.106 17.7215 131.021 17.9301 130.106 18.0353V18.5057C131.079 18.6098 131.079 18.6098 131.079 19.4986V26.7134ZM125.65 21.4335C124.735 21.6427 123.821 22.1131 123.306 22.4269C122.906 22.6881 122.735 22.8973 122.735 23.158C122.735 23.577 123.364 23.8902 123.764 23.8902C124.107 23.8902 124.335 23.7336 124.393 23.4724C124.507 22.9488 124.678 22.5835 124.851 22.3743C125.022 22.2177 125.25 22.1131 125.536 22.1131C125.536 22.1131 125.592 22.1131 125.65 22.1131V21.4335H125.65ZM125.65 24.3087C125.02 24.5179 124.278 24.7265 123.821 24.9363C123.021 25.2495 122.621 25.7725 122.621 26.5568C122.621 27.4977 123.478 28.4911 124.793 28.4911C125.022 28.4911 125.307 28.3865 125.65 28.1773V27.3405C125.192 27.3405 124.678 26.9221 124.678 26.243C124.678 25.6674 124.907 25.3541 125.364 25.0924C125.421 25.0393 125.534 24.9872 125.65 24.9352V24.3087ZM96.0472 28.4916V27.8109C96.1046 27.864 96.162 27.864 96.2194 27.864C96.8475 27.864 97.5331 27.3936 97.5331 25.2495C97.5331 23.3672 97.0187 22.1126 96.0467 22.0085V21.3814H96.1041C98.3323 21.3814 99.647 23.0019 99.647 24.7796C99.6481 27.2884 97.8758 28.4916 96.0472 28.4916ZM101.476 26.7134C101.476 27.6023 101.362 27.7079 100.562 27.8115V28.335H104.734V27.8115C103.59 27.7079 103.42 27.6023 103.42 26.7134V22.3223H104.962C105.191 22.1651 105.249 21.7467 105.191 21.5381H103.42V21.1712C103.362 19.7598 103.42 19.1328 103.476 18.8715C103.533 18.6098 103.705 18.4537 104.047 18.4537C104.447 18.4537 105.075 18.819 105.361 19.1333C105.532 19.2374 105.704 19.2374 105.932 19.1333C106.103 18.9767 106.275 18.819 106.39 18.6098C106.446 18.4531 106.446 18.2434 106.275 18.0868C105.99 17.773 105.532 17.5117 104.789 17.5117C104.103 17.5648 103.532 17.8255 102.902 18.2965C102.046 18.9767 101.76 19.7083 101.646 20.1257C101.53 20.4389 101.474 20.911 101.474 21.2768V21.5386H100.845L100.388 22.1131L100.445 22.3228H101.473V26.7134H101.476ZM109.648 18.5057V19.0287C110.906 19.1333 111.019 19.2899 110.906 21.1197L110.678 24.3087C110.562 25.6674 110.448 26.5042 110.334 26.9752C110.276 27.5502 109.991 27.7079 109.248 27.812V28.3355H112.963V27.812C111.934 27.7085 111.591 27.5508 111.534 26.9231C111.477 26.5047 111.477 25.721 111.534 24.4664L111.705 20.44H111.762L114.734 28.1258H115.305L118.562 20.2314H118.619V26.1389C118.619 27.6028 118.562 27.7085 117.361 27.812V28.3355H121.932V27.812C120.789 27.7085 120.675 27.6028 120.618 26.1389L120.505 20.6503C120.505 19.239 120.56 19.1344 121.762 19.0298V18.5068H118.504L115.647 25.146L112.846 18.5068L109.648 18.5057ZM96.0467 21.3814C94.275 21.3814 92.39 22.6887 92.39 25.0929C92.39 26.7654 93.6474 28.4916 96.0472 28.4916V27.8109C95.1332 27.6537 94.6188 26.3465 94.6188 24.5162C94.6188 22.8437 95.1901 22.0069 95.8761 22.0069C95.9324 22.0069 95.9898 22.0069 96.0472 22.0069L96.0467 21.3814ZM67.0165 28.1773V27.3405C67.3604 27.3405 67.7026 27.1838 67.988 26.9741V24.5168C67.7595 24.6219 67.3604 24.8306 67.0165 24.9352V24.307C67.4741 24.1504 67.8169 23.9938 67.988 23.8366V23.4708C67.988 22.634 67.531 22.2161 67.0165 22.1115V21.4319C67.1319 21.3793 67.3019 21.3793 67.4167 21.3793C68.1596 21.3793 68.7883 21.5879 69.2458 21.9018C69.7603 22.3202 69.9308 22.8952 69.9308 23.5223V26.3975C69.9308 27.0771 70.1599 27.2863 70.3889 27.2863C70.6169 27.2863 70.7885 27.2337 70.9023 27.1817L71.1318 27.7058L69.3596 28.4895C69.0173 28.4895 68.7309 28.3849 68.5024 28.1757C68.2733 27.9659 68.1591 27.7573 68.0454 27.6006C67.7595 27.8115 67.3598 28.0207 67.0165 28.1773ZM72.6171 26.7134C72.6171 27.6543 72.5029 27.7079 71.532 27.8115V28.335H75.3603V27.8115C74.6753 27.7079 74.5605 27.6543 74.5605 26.7134V23.106C75.0186 22.7396 75.4746 22.531 75.8747 22.531C76.5597 22.531 76.9609 22.9488 76.9609 23.9423V26.7129C76.9609 27.6537 76.9041 27.7074 76.1601 27.8109V28.3345H79.8178V27.8109C79.018 27.7074 78.9038 27.6537 78.9038 26.7129V23.5239C78.9038 22.2692 78.2188 21.3809 76.7893 21.3809C76.3312 21.3809 75.9321 21.5375 75.4746 21.7982C75.1887 22.008 74.847 22.2166 74.5605 22.3733V21.3804C73.7608 21.589 72.7893 21.7977 71.76 21.9028V22.3733C72.6177 22.5304 72.6177 22.5304 72.6177 23.4713L72.6171 26.7134ZM81.4753 26.7134C81.4753 27.6543 81.3605 27.7079 80.3322 27.8115V28.335H84.5038V27.8115C83.5324 27.7079 83.4182 27.6543 83.4182 26.7134V24.9883C83.475 24.9883 83.5329 24.9883 83.5887 24.9883C83.7035 24.9883 83.8752 25.0403 84.0463 25.4062C84.7323 26.4511 85.4189 27.4451 86.1034 28.3339H88.7323V27.8104C88.1042 27.7069 87.9331 27.5491 87.5329 27.1313C86.9037 26.4506 85.589 24.6214 85.2462 24.0469C85.7606 23.4193 86.1034 23.1055 86.3898 22.7922C86.8468 22.3218 87.1896 22.1646 88.2179 21.9549V21.4324L85.0182 21.589V22.112C85.6464 22.1646 85.6464 22.2687 85.4184 22.635C85.1894 22.9483 84.7892 23.5764 84.389 23.8897C84.1611 24.203 83.8752 24.3601 83.4176 24.4122V17.5123C82.5599 17.722 81.36 17.9307 80.5033 18.0358V18.5062C81.4168 18.6103 81.4748 18.6103 81.4748 19.4991L81.4753 26.7134ZM58.7881 28.2819C59.8164 28.2299 60.731 28.0727 61.4165 27.7079C62.2168 27.237 62.8449 26.5042 62.8449 25.4593C62.8449 23.9954 61.5871 23.1065 59.9881 22.8979C61.0158 22.6887 62.2168 22.0616 62.2168 20.7018C62.2168 19.9696 61.873 19.394 61.3586 19.0292C60.7873 18.6629 59.9875 18.5062 58.7876 18.5062V19.1859C59.53 19.3425 60.1018 19.8661 60.1018 20.9121C60.1018 21.905 59.6437 22.4274 58.7876 22.6366V23.4735C59.8722 23.6821 60.5593 24.3623 60.5593 25.5644C60.5593 26.9757 59.7011 27.6033 58.7876 27.7085L58.7881 28.2819ZM67.0165 21.4335C66.102 21.6427 65.188 22.1131 64.6741 22.4269C64.2745 22.6881 64.1028 22.8973 64.1028 23.158C64.1028 23.577 64.7315 23.8902 65.1311 23.8902C65.4744 23.8902 65.7018 23.7336 65.7598 23.4724C65.8751 22.9488 66.0457 22.5835 66.2178 22.3743C66.389 22.2177 66.6175 22.1131 66.9034 22.1131C66.9034 22.1131 66.9602 22.1131 67.0171 22.1131L67.0165 21.4335ZM67.0165 24.3087C66.3884 24.5179 65.6455 24.7265 65.188 24.9363C64.3882 25.2495 63.9886 25.7725 63.9886 26.5568C63.9886 27.4977 64.8463 28.4911 66.1599 28.4911C66.389 28.4911 66.6743 28.3865 67.0171 28.1773V27.3405C66.5606 27.3405 66.0457 26.9221 66.0457 26.243C66.0457 25.6674 66.2747 25.3541 66.7307 25.0924C66.788 25.0393 66.9028 24.9872 67.0165 24.9352V24.3087ZM55.53 26.3476V20.4395C55.53 19.2379 55.3589 19.1328 54.3306 19.0287V18.5057H58.7307H58.7881V19.1853C58.6739 19.1333 58.5022 19.1333 58.33 19.1333C57.9304 19.1333 57.7593 19.1853 57.6445 19.2899C57.5303 19.342 57.5303 19.5517 57.5303 19.9696V22.7407H57.9304C58.2732 22.7407 58.5585 22.6887 58.7876 22.6366V23.4735C58.5585 23.4209 58.2163 23.3689 57.873 23.3689H57.5303V26.3492C57.5303 27.3426 57.7014 27.709 58.5022 27.709C58.617 27.709 58.7307 27.709 58.7881 27.709V28.283C58.5591 28.283 58.2732 28.3361 57.9873 28.3361H54.2158V27.8125C55.3584 27.7074 55.53 27.6023 55.53 26.3476Z" fill="white"/>
<path d="M76.0664 1.55185H78.0001V0H76.0664V1.55185ZM175.452 15.3142L176.738 15.8318L178.94 13.7993L181.029 15.8318L182.32 15.3142L179.799 12.9384H178.083L175.452 15.3142ZM167.467 5.68923H167.034H165.75V11.2063V12.933H163.818V11.2063V5.68923H162.532H162.099H160.473C161.008 5.94779 161.33 6.53409 161.33 7.24109C161.33 8.72374 160.151 9.94785 158.542 10.1715C158.863 10.8962 159.55 11.3785 160.258 11.3785C160.666 11.3962 161.03 11.3264 161.33 11.2068V12.7587C161.03 12.8794 160.666 12.9335 160.258 12.9335C158.82 12.9335 157.362 11.8269 156.61 10.1726C156.375 10.1383 156.009 10.0004 155.537 9.74186L156.181 8.44856C156.653 8.67225 157.104 8.79348 157.467 8.79348C158.541 8.81064 159.399 8.10418 159.399 7.24216C159.421 6.38014 158.541 5.69031 157.467 5.69031H155.451H155.017H153.733V11.2074V12.9341H151.802V11.2074V5.68923H150.515H150.082H148.992V7.75819H145.13C144.894 7.75819 144.701 7.91322 144.701 8.10257C144.679 8.39546 144.98 8.62021 145.344 8.62021C145.731 8.49898 146.095 8.44802 146.417 8.44802C148.068 8.44802 149.421 9.44791 149.421 10.6897C149.421 11.2588 149.12 11.8789 148.563 12.4132L147.06 11.5517C147.339 11.2932 147.49 10.9821 147.49 10.6902C147.511 10.3105 147.017 10.0004 146.417 10.0004C145.344 10.0004 144.486 10.621 144.486 11.3795C144.486 12.3279 145.73 13.1068 147.274 13.1068H148.99V14.4854H147.274C144.657 14.4854 142.555 13.0204 142.555 11.2079C142.533 10.4837 142.94 9.77727 143.627 9.31112C142.94 8.84605 142.555 8.34557 142.555 7.93253C142.555 7.07051 143.52 6.38014 144.7 6.38014H147.058V5.69084H141.695H141.262H139.978V11.2079V12.9346H138.047V11.2079V10.6897H135.259C135.279 11.2588 134.593 11.7239 133.756 11.7239C132.811 11.7239 132.04 11.1038 132.04 10.3459C132.04 9.6732 132.619 9.13893 133.327 9.13893V5.69084H131.285V4.31225H141.261H141.694H150.079H150.513H155.015H155.449H162.096H162.53H167.032H167.465H182.828V5.69084H181.004V8.10418H178.429C177.249 8.10418 176.284 8.72482 176.284 9.48385C176.284 10.5347 177.527 11.3795 179.073 11.3795C179.866 11.3795 180.66 11.1382 181.326 10.6902L182.291 11.983C181.218 12.6036 180.081 12.9341 179.073 12.9341C177.013 12.9341 175.19 11.9653 174.567 10.517C173.946 11.1725 172.958 11.5517 171.886 11.5517C169.804 11.5346 168.131 9.99988 168.131 8.10365V5.69031H167.467V5.68923H167.467ZM174.483 8.74037C174.956 7.44761 176.564 6.55126 178.43 6.55126H179.074V5.68923H170.491L174.483 8.74037ZM170.064 8.10257C170.042 9.10245 170.922 9.91298 171.994 9.91298C172.638 9.89635 173.217 9.60239 173.497 9.13786L170.065 6.55233L170.064 8.10257ZM135.264 5.68923V9.13732H138.053V5.68923H135.264ZM114.324 5.68923H115.162V8.62021C115.162 10.1367 116.513 11.3608 118.165 11.3785C118.787 11.3785 119.409 11.1199 119.881 10.6892V11.2063V12.933H121.813V11.2063V8.62021C122.156 8.29246 122.715 8.10257 123.315 8.10257C124.022 8.10257 124.601 8.63684 124.601 9.30951C124.601 9.98164 124.022 10.5331 123.315 10.5164C122.992 10.5164 122.693 10.4644 122.457 10.3448V11.8961C122.692 12.0168 122.971 12.086 123.315 12.0683C125.095 12.0683 126.532 10.8796 126.532 9.39695C126.532 7.91429 125.095 6.70735 123.315 6.72559C122.671 6.72559 122.135 6.84629 121.813 7.07051V5.69138H127.434V4.31279H114.325H114H109.391H108.957H104.671V5.69138H105.743V7.58761H104.027V9.14H105.743V11.2084V12.9352H107.674V11.2084V5.68923H108.958H109.392H110.679V11.2063V12.933H112.61V11.2063V5.68923H114.001H114.324ZM117.091 8.62021V5.68923H119.88V8.62021C119.451 9.36154 118.786 9.84378 118.164 9.82715C117.563 9.82715 117.07 9.29288 117.091 8.62021ZM108.42 0.345452C108.42 1.86244 109.964 3.086 111.853 3.10424C113.741 3.10424 115.267 1.86297 115.288 0.345452H113.568C113.568 1.10395 112.797 1.72404 111.853 1.72404C110.908 1.72404 110.137 1.10341 110.137 0.345452H108.42ZM95.7647 8.96513C95.7647 11.1542 97.7821 12.9325 100.271 12.9325C102.287 12.9325 103.918 11.7749 103.918 10.3443C103.918 9.39534 103.339 8.55048 102.416 8.10204C103.102 7.63696 103.51 6.99863 103.488 6.37799C103.488 5.13726 101.944 4.13685 100.056 4.13685C98.7037 4.13685 97.5021 4.58529 96.8375 5.34378L98.1244 6.55072C98.7037 5.99875 99.4117 5.67153 100.056 5.6887C100.893 5.6887 101.579 5.99875 101.557 6.37799C101.557 6.94713 100.979 7.4122 100.271 7.4122H99.1982V8.96459H100.271C101.215 8.96459 101.987 9.58469 101.987 10.3437C101.987 10.9123 101.215 11.3774 100.271 11.3774C98.7257 11.3774 97.4823 10.223 97.4823 8.79133L95.7647 8.96513ZM77.5715 5.68923H77.2465H75.8556V11.2063V12.933H73.9245V11.2063V11.3779C73.2808 11.8258 72.3577 12.0672 71.3493 12.0672C69.0974 12.0672 67.2731 10.7573 67.2731 9.13678C67.2731 7.61926 69.0969 6.37799 71.3493 6.37799C72.3368 6.37799 73.2594 6.61938 73.9245 7.06782V5.6887H66.4111V4.31011H73.3849C72.2257 3.37889 71.0671 2.84462 70.166 2.84462C69.6081 2.84462 69.1146 3.00018 68.7708 3.2759L67.8063 2.06896C68.3851 1.67308 69.0717 1.46549 69.7368 1.46549C70.9169 1.48319 72.8051 2.46591 74.993 4.22482C73.8988 2.32858 72.9982 1.12111 72.2043 1.12111C71.9259 1.10395 71.6035 1.20747 71.346 1.37966L70.38 0.258553C70.7458 0.0868997 71.4099 0.000536633 72.311 0.000536633C73.5764 0.000536633 75.2076 1.72458 76.3877 4.31118H77.2465H77.5715H91.2386V5.68977H85.2105V6.72452C85.6176 6.5003 86.1331 6.37907 86.7119 6.37907C88.7287 6.39623 90.3594 7.6198 90.3594 9.13786C90.3594 10.6559 88.7287 11.8961 86.7119 11.8961C86.2398 11.9133 85.8745 11.8441 85.639 11.7239V10.1721C85.896 10.2933 86.2613 10.3448 86.7119 10.3448C87.6565 10.3614 88.4283 9.80999 88.4283 9.13786C88.4283 8.46573 87.6565 7.93092 86.7119 7.93092C86.1545 7.93092 85.6176 8.05161 85.2105 8.27584V11.2068V12.9335H83.2794V11.2068V11.6376C82.9136 11.8103 82.3992 11.8961 81.7775 11.8961C79.7606 11.8789 78.1294 10.6554 78.1294 9.13786C78.1294 7.62033 79.7606 6.37907 81.7775 6.37907C82.3992 6.37907 82.9136 6.46543 83.2794 6.63762V5.6887L77.5715 5.68923ZM79.8459 9.13732C79.8239 9.89635 80.7041 10.5159 81.7775 10.5159C82.4421 10.5159 82.957 10.3952 83.2794 10.171V8.01567C82.9136 7.84402 82.3992 7.75819 81.7775 7.75819C80.7036 7.75819 79.8459 8.37883 79.8459 9.13732ZM69.2042 9.13732C69.2042 9.94785 70.2126 10.6023 71.4571 10.6023C72.2724 10.6194 72.7648 10.5685 72.9585 10.4301L69.526 8.44802C69.3109 8.60305 69.2042 8.84444 69.2042 9.13732ZM70.3837 7.93038L73.71 9.82662C73.8382 9.70539 73.924 9.464 73.924 9.13678C73.902 8.37829 72.7648 7.75819 71.3487 7.75819C70.9416 7.74103 70.6203 7.80969 70.3837 7.93038Z" fill="white"/>
<path d="M93.2571 35.571V34.8399H95.6623V35.571H94.8604V39.8511H94.059V37.8465H92.6757V38.1877C92.6757 38.2815 92.6494 38.3615 92.5957 38.428C92.556 38.4821 92.496 38.5084 92.4155 38.5084C92.2685 38.5084 92.0347 38.3545 91.7133 38.0471C91.3931 37.7532 91.2327 37.5289 91.2327 37.3755C91.2327 37.302 91.259 37.2387 91.3127 37.1856C91.3588 37.139 91.4232 37.1084 91.5025 37.0955H91.8732V35.6821C91.8732 35.5748 91.8394 35.4814 91.7729 35.402C91.6989 35.3216 91.6157 35.2808 91.5218 35.2808C91.4682 35.2808 91.4189 35.3146 91.3717 35.3817C91.325 35.4417 91.3014 35.5152 91.3014 35.6021C91.3014 35.6955 91.3186 35.7824 91.3518 35.8623C91.3985 35.9293 91.4419 35.9631 91.4822 35.9631V36.6143C91.215 36.6143 90.9844 36.5173 90.7907 36.3236C90.5971 36.116 90.5 35.8762 90.5 35.6021C90.5 35.3082 90.5971 35.0544 90.7907 34.8404C90.9978 34.6328 91.2349 34.5293 91.502 34.5293C91.8228 34.5293 92.1001 34.6398 92.334 34.8597C92.5614 35.0872 92.6746 35.3613 92.6746 35.6815V37.0944H94.058V35.571H93.2571ZM96.2631 39.85H97.065V35.5699H97.867V34.8388H95.4617V35.5699H96.2631V39.85ZM97.6663 35.571V34.8399H101.385V35.571H100.734V36.4631C100.734 36.7903 100.653 37.0708 100.493 37.3047C100.339 37.5456 100.152 37.6657 99.9316 37.6657H99.6913C99.5974 37.6523 99.554 37.6351 99.5609 37.6153L101.014 39.5797L100.382 40.0007L97.8868 36.6031L98.5579 36.1117C98.6447 36.352 98.7751 36.5484 98.9489 36.7034C99.1227 36.8573 99.2959 36.9341 99.4703 36.9341C99.6038 36.9341 99.71 36.8874 99.791 36.7935C99.8844 36.6868 99.9316 36.5763 99.9316 36.4631V35.571H97.6663ZM101.185 35.571H104.682V36.2732H102.859C102.505 36.2732 102.208 36.3864 101.967 36.6138C101.72 36.8413 101.597 37.1154 101.597 37.4356C101.597 37.8427 101.741 38.2606 102.028 38.6881C102.329 39.136 102.726 39.54 103.221 39.901L103.681 39.3495C103.273 39.0626 102.96 38.7557 102.739 38.4274C102.512 38.1002 102.399 37.7693 102.399 37.4351C102.411 37.3219 102.458 37.2243 102.539 37.1443C102.618 37.0644 102.726 37.0236 102.86 37.0236H104.684V39.8505H105.485V35.5705H106.286V34.8393H101.186L101.185 35.571ZM111.266 40.0007L109.122 36.713L109.813 36.2528C109.954 36.4931 110.073 36.6841 110.174 36.823C110.275 36.9571 110.364 37.0236 110.445 37.0236C110.538 37.0236 110.625 36.9898 110.705 36.9233C110.779 36.8498 110.815 36.7635 110.815 36.6632V35.5705H108.891V34.8393H114.603V35.5705H113.801V39.8505H112.999V37.6663H112.088L111.767 36.9147H112.999V35.5716H111.616V36.6943C111.616 36.9813 111.55 37.2323 111.417 37.4458C111.289 37.6593 111.132 37.7634 110.946 37.7564C110.905 37.7564 110.851 37.7494 110.784 37.736C110.751 37.729 110.715 37.706 110.674 37.6663L111.947 39.5802L111.266 40.0007ZM114.403 35.571H116.668V36.4631C116.668 36.5763 116.622 36.6868 116.528 36.7935C116.449 36.8868 116.341 36.9341 116.207 36.9341C116.033 36.9341 115.86 36.8573 115.686 36.7034C115.512 36.5494 115.382 36.3526 115.295 36.1117L114.624 36.6031L117.118 40.0007L117.75 39.5797L116.297 37.6153C116.291 37.6357 116.334 37.6518 116.427 37.6657H116.667C116.888 37.6657 117.076 37.545 117.229 37.3047C117.389 37.0703 117.469 36.7903 117.469 36.4631V35.571H118.121V34.8399H114.403V35.571H114.403ZM120.677 39.85V38.7777C120.576 38.8652 120.464 38.9279 120.336 38.9676C120.209 39.0078 120.056 39.0245 119.875 39.0186C119.454 39.0186 119.083 38.8812 118.764 38.6066C118.462 38.3271 118.312 37.9854 118.312 37.5847C118.312 37.1711 118.476 36.8101 118.803 36.5022C119.13 36.2083 119.521 36.0613 119.976 36.0613C120.176 36.0613 120.337 36.0887 120.457 36.1412L120.256 36.8327C120.363 36.859 120.315 36.8531 120.115 36.8128C120.035 36.8128 119.933 36.8128 119.81 36.8128C119.687 36.8128 119.538 36.8895 119.364 37.0429C119.184 37.1899 119.1 37.3707 119.113 37.5842C119.113 37.7719 119.191 37.9312 119.344 38.0648C119.478 38.1989 119.655 38.2654 119.875 38.2654C120.016 38.2654 120.159 38.229 120.307 38.1549C120.44 38.0814 120.564 37.9849 120.677 37.8642V35.5694H117.921V34.8383H124.034V35.5694H121.477V36.4309C121.544 36.344 121.654 36.2743 121.808 36.2201C121.955 36.1664 122.122 36.1407 122.309 36.1407C122.663 36.1407 122.971 36.2812 123.231 36.5618C123.479 36.8214 123.609 37.1497 123.622 37.544C123.622 37.8379 123.535 38.1378 123.362 38.4462C123.181 38.76 122.941 39.0443 122.641 39.298L122.049 38.7568C122.309 38.5294 122.5 38.3191 122.619 38.1254C122.753 37.9178 122.82 37.7242 122.82 37.5445C122.82 37.3707 122.764 37.2173 122.649 37.0832C122.544 36.9566 122.415 36.8933 122.269 36.8933C122.115 36.8933 121.968 36.9367 121.828 37.0231C121.695 37.11 121.578 37.2339 121.478 37.3943V39.8495L120.677 39.85ZM124.636 39.85H125.437V35.5699H126.238V34.8388H123.834V35.5699H124.636V39.85ZM126.038 35.571V34.8399H129.757V35.571H129.105V36.4631C129.105 36.7903 129.026 37.0708 128.865 37.3047C128.711 37.5456 128.524 37.6657 128.304 37.6657H128.063C127.969 37.6523 127.926 37.6351 127.933 37.6153L129.387 39.5797L128.755 40.0007L126.26 36.6031L126.931 36.1117C127.018 36.352 127.148 36.5484 127.322 36.7034C127.496 36.8573 127.67 36.9341 127.844 36.9341C127.978 36.9341 128.084 36.8874 128.165 36.7935C128.259 36.6868 128.306 36.5763 128.306 36.4631V35.571H126.038ZM135.119 39.85V38.7777C135.018 38.8652 134.905 38.9279 134.777 38.9676C134.65 39.0078 134.497 39.0245 134.317 39.0186C133.896 39.0186 133.525 38.8812 133.205 38.6066C132.904 38.3271 132.753 37.9854 132.753 37.5847C132.753 37.1711 132.918 36.8101 133.244 36.5022C133.571 36.2083 133.963 36.0613 134.417 36.0613C134.618 36.0613 134.778 36.0887 134.899 36.1412L134.697 36.8327C134.804 36.859 134.758 36.8531 134.557 36.8128C134.478 36.8128 134.375 36.8128 134.251 36.8128C134.128 36.8128 133.98 36.8895 133.806 37.0429C133.626 37.1899 133.542 37.3707 133.555 37.5842C133.555 37.7719 133.633 37.9312 133.785 38.0648C133.919 38.1989 134.096 38.2654 134.317 38.2654C134.458 38.2654 134.6 38.229 134.748 38.1549C134.882 38.0814 135.005 37.9849 135.119 37.8642V35.5694H132.362V34.8383H138.475V35.5694H135.919V36.4309C135.986 36.344 136.096 36.2743 136.249 36.2201C136.396 36.1664 136.564 36.1407 136.751 36.1407C137.105 36.1407 137.412 36.2812 137.673 36.5618C137.921 36.8214 138.051 37.1497 138.064 37.544C138.064 37.8379 137.977 38.1378 137.804 38.4462C137.624 38.76 137.383 39.0443 137.082 39.298L136.491 38.7568C136.75 38.5294 136.942 38.3191 137.061 38.1254C137.194 37.9178 137.261 37.7242 137.261 37.5445C137.261 37.3707 137.205 37.2173 137.091 37.0832C136.985 36.9566 136.857 36.8933 136.711 36.8933C136.557 36.8933 136.41 36.9367 136.27 37.0231C136.137 37.11 136.019 37.2339 135.919 37.3943V39.8495L135.119 39.85ZM139.078 39.85H139.879V35.5699H140.681V34.8388H138.275V35.5699H139.078V39.85ZM146.463 39.85C145.834 39.85 145.249 39.563 144.708 38.9885C144.167 38.4076 143.786 37.6657 143.566 36.7645L144.277 36.484C144.497 37.2591 144.808 37.8905 145.209 38.3781C145.622 38.8662 146.041 39.1065 146.462 39.0996C146.649 39.0996 146.812 39.0229 146.953 38.8689C147.093 38.6951 147.157 38.5052 147.143 38.2982C147.143 38.0707 147.065 37.8808 146.911 37.7269C146.771 37.567 146.591 37.4866 146.37 37.4866H145.549L145.278 36.735H146.28C146.447 36.735 146.598 36.6852 146.731 36.5854C146.851 36.4781 146.911 36.351 146.911 36.2045C146.911 36.1246 146.885 36.0307 146.831 35.9245C146.765 35.8108 146.686 35.6939 146.592 35.5737H143.285V34.8426H148.486V35.5737H147.554C147.648 35.7475 147.7 35.9583 147.714 36.2056C147.714 36.4191 147.675 36.6068 147.594 36.7672C147.527 36.9206 147.424 37.0311 147.283 37.0977C147.491 37.2184 147.651 37.3846 147.764 37.5987C147.884 37.8261 147.944 38.0595 147.944 38.3008C147.944 38.7284 147.8 39.0953 147.513 39.4037C147.228 39.7004 146.878 39.85 146.463 39.85ZM152.516 39.85H153.317V35.5699H154.119V34.8388H148.286V35.5699H150.622V35.9111H149.79C149.463 35.924 149.195 36.028 148.988 36.2212C148.768 36.4218 148.658 36.6589 148.658 36.933C148.658 37.1003 148.721 37.257 148.848 37.404C148.974 37.5579 149.138 37.6679 149.338 37.7349C149.265 37.7891 149.199 37.8792 149.138 38.0053C149.091 38.0991 149.068 38.2129 149.068 38.3464C149.068 38.6731 149.228 38.9547 149.548 39.1875C149.863 39.4144 150.247 39.5287 150.701 39.5287C151.101 39.5287 151.452 39.4692 151.752 39.3479C152.067 39.2278 152.321 39.0508 152.515 38.8174L152.516 39.85ZM150.692 38.7777C150.465 38.7842 150.271 38.7439 150.111 38.657C149.951 38.5707 149.871 38.4671 149.871 38.347C149.864 38.2198 149.927 38.1029 150.061 37.9962C150.181 37.8953 150.331 37.8454 150.512 37.8454H151.234L150.963 37.2945H149.871C149.75 37.2945 149.654 37.258 149.579 37.1846C149.501 37.118 149.459 37.0344 149.459 36.9335C149.446 36.8665 149.475 36.8032 149.549 36.7436C149.616 36.6894 149.694 36.6637 149.781 36.6637H151.424V35.571H152.516V37.9361C152.309 38.1968 152.038 38.4071 151.704 38.5674C151.397 38.708 151.059 38.7777 150.692 38.7777ZM153.919 35.571V34.8399H158.74V35.571H157.938V39.8511H157.136V37.8465H155.593V38.3486C155.593 38.4081 155.57 38.4548 155.523 38.4891C155.483 38.5294 155.429 38.5492 155.362 38.5492C155.229 38.5492 155.001 38.3883 154.68 38.068C154.346 37.7612 154.179 37.5407 154.179 37.4066C154.179 37.3203 154.198 37.2462 154.239 37.1867C154.278 37.1266 154.332 37.0966 154.399 37.0966H154.79V35.5726L153.919 35.571ZM155.593 37.0944H157.136V35.5705H155.593V37.0944Z" fill="white"/>
</svg>
