<svg width="32" height="32" viewBox="0 0 32 32" fill="none" xmlns="http://www.w3.org/2000/svg">
<path d="M19.3307 12.0013C19.3307 12.8854 18.9795 13.7332 18.3544 14.3583C17.7293 14.9834 16.8815 15.3346 15.9974 15.3346C15.1133 15.3346 14.2655 14.9834 13.6404 14.3583C13.0153 13.7332 12.6641 12.8854 12.6641 12.0013C12.6641 11.1172 13.0153 10.2694 13.6404 9.64428C14.2655 9.01916 15.1133 8.66797 15.9974 8.66797C16.8815 8.66797 17.7293 9.01916 18.3544 9.64428C18.9795 10.2694 19.3307 11.1172 19.3307 12.0013Z" stroke="#373833"/>
<path d="M17.674 23.3266C17.2237 23.7599 16.623 24.002 15.998 24.002C15.3731 24.002 14.7724 23.7599 14.322 23.3266C10.2034 19.336 4.6847 14.8786 7.37537 8.40663C8.8327 4.90664 12.326 2.66797 15.998 2.66797C19.67 2.66797 23.1647 4.90797 24.6207 8.40663C27.3087 14.8693 21.8034 19.3493 17.674 23.3266Z" stroke="#373833"/>
<path d="M24 26.668C24 28.1413 20.4187 29.3346 16 29.3346C11.5813 29.3346 8 28.1413 8 26.668" stroke="#373833" stroke-linecap="round"/>
</svg>
