<svg width="32" height="32" viewBox="0 0 32 32" fill="none" xmlns="http://www.w3.org/2000/svg">
<path d="M29.6465 22L22 29.6465L18.3535 26L19.4102 24.9434L22 27.5332L28.5898 20.9434L29.6465 22Z" fill="#373833" stroke="white" stroke-width="0.5"/>
<path d="M18 2.25V2.25098L18.0078 2.25C18.1028 2.24696 18.1978 2.2653 18.2852 2.30273C18.3723 2.34016 18.4505 2.39604 18.5137 2.4668L18.5234 2.47754L25.5322 9.48633C25.603 9.55019 25.6597 9.62821 25.6973 9.71582C25.7348 9.80346 25.7526 9.89882 25.75 9.99414V17.75H24.25V11.75H18.001C17.5372 11.7486 17.0927 11.5642 16.7646 11.2363C16.4367 10.9084 16.2515 10.4638 16.25 10V3.75H7.75V28.25H14.75V29.75H8.00098C7.5372 29.7486 7.09265 29.5642 6.76465 29.2363C6.43669 28.9084 6.25146 28.4638 6.25 28V4.00098C6.25145 3.53716 6.43667 3.09262 6.76465 2.76465C7.0517 2.47771 7.42781 2.30052 7.82812 2.25977L8.00098 2.25H18ZM17.75 10.25H24.2031L17.75 3.79688V10.25Z" fill="#373833" stroke="white" stroke-width="0.5"/>
</svg>
