<svg width="32" height="32" viewBox="0 0 32 32" fill="none" xmlns="http://www.w3.org/2000/svg">
<path d="M30.6133 9.87193L22.1279 1.3866C22.0029 1.26162 21.8334 1.19141 21.6566 1.19141C21.4798 1.19141 21.3103 1.26162 21.1853 1.3866L1.3866 21.1853C1.26162 21.3103 1.19141 21.4798 1.19141 21.6566C1.19141 21.8334 1.26162 22.0029 1.3866 22.1279L9.87193 30.6133C9.99695 30.7382 10.1665 30.8085 10.3433 30.8085C10.52 30.8085 10.6896 30.7382 10.8146 30.6133L15.0546 26.3733L15.0573 26.3706L18.8266 22.6013H18.8279V22.5986L22.5999 18.8293L26.3706 15.0573L30.6133 10.8146C30.7382 10.6896 30.8085 10.52 30.8085 10.3433C30.8085 10.1665 30.7382 9.99695 30.6133 9.87193ZM25.8999 13.6426L23.5426 11.2866L23.5333 11.2773C23.4064 11.1564 23.2372 11.0904 23.062 11.0934C22.8869 11.0963 22.72 11.1681 22.5973 11.2932C22.4747 11.4183 22.4062 11.5866 22.4067 11.7618C22.4072 11.9369 22.4766 12.1049 22.5999 12.2293L24.9573 14.5853L22.1279 17.4146L17.8853 13.1719L17.8759 13.1626C17.7491 13.0418 17.5798 12.9757 17.4047 12.9787C17.2296 12.9817 17.0626 13.0535 16.94 13.1785C16.8174 13.3036 16.7489 13.4719 16.7494 13.6471C16.7499 13.8223 16.8193 13.9902 16.9426 14.1146L21.1853 18.3573L18.3573 21.1853L15.9999 18.8279C15.8742 18.7065 15.7058 18.6393 15.531 18.6408C15.3562 18.6423 15.189 18.7124 15.0654 18.8361C14.9418 18.9597 14.8717 19.1269 14.8701 19.3017C14.8686 19.4765 14.9358 19.6449 15.0573 19.7706L17.4133 22.1279L14.5866 24.9573L10.3426 20.7133L10.3333 20.7039C10.2711 20.6412 10.197 20.5914 10.1154 20.5576C10.0338 20.5237 9.94631 20.5064 9.85796 20.5066C9.76961 20.5068 9.68219 20.5246 9.60078 20.559C9.51937 20.5933 9.4456 20.6435 9.38375 20.7066C9.3219 20.7696 9.2732 20.8444 9.2405 20.9265C9.20779 21.0085 9.19172 21.0963 9.19323 21.1846C9.19473 21.273 9.21378 21.3601 9.24927 21.441C9.28475 21.5219 9.33597 21.595 9.39993 21.6559L13.6426 25.8999L10.3426 29.1986L2.80126 21.6559L21.6559 2.80126L29.1999 10.3439L25.8999 13.6426Z" fill="#373833"/>
</svg>
