<svg width="32" height="32" viewBox="0 0 32 32" fill="none" xmlns="http://www.w3.org/2000/svg">
<path d="M10.0029 16.0996H22.0029C22.1531 16.0997 22.2971 16.1594 22.4033 16.2656C22.5095 16.3719 22.5693 16.5158 22.5693 16.666C22.5693 16.8162 22.5095 16.9602 22.4033 17.0664C22.2971 17.1726 22.1531 17.2323 22.0029 17.2324H10.0029C9.85264 17.2324 9.70783 17.1727 9.60156 17.0664C9.4955 16.9602 9.43555 16.8162 9.43555 16.666C9.43555 16.5159 9.4955 16.3719 9.60156 16.2656C9.70783 16.1594 9.85264 16.0996 10.0029 16.0996ZM10.0029 13.4326H22.0029C22.1531 13.4327 22.2971 13.4924 22.4033 13.5986C22.5095 13.7048 22.5692 13.8489 22.5693 13.999C22.5693 14.1493 22.5096 14.2941 22.4033 14.4004C22.2971 14.5065 22.153 14.5663 22.0029 14.5664H10.0029C9.85264 14.5664 9.70783 14.5067 9.60156 14.4004C9.49529 14.2941 9.43555 14.1493 9.43555 13.999C9.43563 13.8489 9.49547 13.7048 9.60156 13.5986C9.70783 13.4924 9.85264 13.4326 10.0029 13.4326ZM10.0029 10.7656H22.0029C22.153 10.7657 22.2971 10.8255 22.4033 10.9316C22.5096 11.0379 22.5693 11.1827 22.5693 11.333C22.5692 11.4832 22.5095 11.6272 22.4033 11.7334C22.2971 11.8396 22.1531 11.8993 22.0029 11.8994H10.0029C9.85264 11.8994 9.70783 11.8397 9.60156 11.7334C9.49547 11.6272 9.43563 11.4831 9.43555 11.333C9.43555 11.1827 9.49529 11.0379 9.60156 10.9316C9.70783 10.8254 9.85264 10.7656 10.0029 10.7656ZM12.6689 6.76562H19.3359C19.4861 6.76563 19.6301 6.82557 19.7363 6.93164C19.8426 7.03791 19.9023 7.18272 19.9023 7.33301C19.9023 7.48318 19.8425 7.6272 19.7363 7.7334C19.6301 7.83957 19.4862 7.89941 19.3359 7.89941H12.6689C12.5188 7.89933 12.3747 7.83959 12.2686 7.7334C12.1624 7.6272 12.1026 7.48318 12.1025 7.33301C12.1025 7.18272 12.1623 7.03791 12.2686 6.93164C12.3747 6.82555 12.5188 6.76571 12.6689 6.76562Z" fill="#373833" stroke="white" stroke-width="0.2"/>
<path d="M9.33496 2.76562H22.668C23.3485 2.76563 24.0011 3.03644 24.4824 3.51758C24.9638 3.99892 25.2344 4.65229 25.2344 5.33301V23.999C25.2344 24.6797 24.9638 25.3331 24.4824 25.8145C24.0011 26.2956 23.3485 26.5664 22.668 26.5664H20.5684V29.1709L18.668 28.2207L16.7676 29.1709V26.5664H9.33496C8.65424 26.5664 8.00087 26.2958 7.51953 25.8145C7.03819 25.3331 6.76758 24.6797 6.76758 23.999V5.33301C6.76758 4.65229 7.03819 3.99892 7.51953 3.51758C8.00087 3.03623 8.65424 2.76563 9.33496 2.76562ZM19.3096 24.4854C18.8888 24.594 18.4472 24.594 18.0264 24.4854L17.9014 24.4531V27.3369L18.0459 27.2646L18.668 26.9531L19.29 27.2646L19.4346 27.3369V24.4531L19.3096 24.4854ZM18.668 20.5664C18.2879 20.5664 17.9231 20.7166 17.6543 20.9854C17.3856 21.2541 17.2345 21.619 17.2344 21.999C17.2344 22.3791 17.3856 22.7439 17.6543 23.0127C17.9231 23.2815 18.2878 23.4326 18.668 23.4326C19.0481 23.4326 19.4128 23.2815 19.6816 23.0127C19.9503 22.7439 20.1016 22.3791 20.1016 21.999C20.1015 21.619 19.9504 21.2541 19.6816 20.9854C19.4129 20.7166 19.048 20.5664 18.668 20.5664ZM16.7676 23.7256L16.7432 23.6973C16.4165 23.3269 16.2034 22.8701 16.1299 22.3818C16.0564 21.8934 16.1249 21.3935 16.3281 20.9434C16.5313 20.4933 16.8606 20.1117 17.2754 19.8438C17.6903 19.5758 18.174 19.4326 18.668 19.4326C19.1619 19.4326 19.6456 19.5758 20.0605 19.8438C20.4753 20.1117 20.8046 20.4933 21.0078 20.9434C21.211 21.3935 21.2795 21.8934 21.2061 22.3818C21.1325 22.8701 20.9194 23.3269 20.5928 23.6973L20.5684 23.7256V25.4326H22.668C23.0481 25.4326 23.4128 25.2815 23.6816 25.0127C23.9503 24.7439 24.1016 24.3791 24.1016 23.999V5.33301C24.1016 4.95294 23.9503 4.58812 23.6816 4.31934C23.4128 4.05053 23.0481 3.89941 22.668 3.89941H9.33496C8.95482 3.89941 8.59009 4.05053 8.32129 4.31934C8.05249 4.58814 7.90137 4.95286 7.90137 5.33301V23.999C7.90137 24.3792 8.05249 24.7439 8.32129 25.0127C8.59009 25.2815 8.95482 25.4326 9.33496 25.4326H16.7676V23.7256Z" fill="#373833" stroke="white" stroke-width="0.2"/>
</svg>
