<svg width="40" height="40" viewBox="0 0 40 40" fill="none" xmlns="http://www.w3.org/2000/svg">
<path d="M27.093 20H7M20.186 13.913C20.186 14.6155 21.0212 15.8146 21.7282 16.7057C22.3414 17.4903 23.0814 18.1735 23.9196 18.729C24.8326 19.3243 26.0884 20 27.0805 20C26.0884 20 24.8326 20.6769 23.9196 21.271C23.0814 21.8265 22.3414 22.5097 21.7282 23.2943C21.0212 24.1854 20.186 25.3845 20.186 26.087M16.4186 13.913V8.43478H16.8318C22.3881 8.43489 27.9153 7.6579 33.2427 6.12783L33.686 6H34V34H33.686L33.2427 33.8722C27.9153 32.3421 22.3881 31.5651 16.8318 31.5652H16.4186V26.087" stroke="#1B1A1F"/>
</svg>
