<svg width="40" height="40" viewBox="0 0 40 40" fill="none" xmlns="http://www.w3.org/2000/svg">
<path d="M33.3333 15.0007L30.0083 33.9107C29.8727 34.6829 29.4691 35.3827 28.8686 35.8868C28.2681 36.391 27.5091 36.6674 26.725 36.6673H13.275C12.4909 36.6674 11.7319 36.391 11.1314 35.8868C10.5309 35.3827 10.1273 34.6829 9.99167 33.9107L6.66667 15.0007M35 10.0007H25.625M25.625 10.0007V6.66732C25.625 5.78326 25.2738 4.93542 24.6487 4.31029C24.0236 3.68517 23.1757 3.33398 22.2917 3.33398H17.7083C16.8243 3.33398 15.9764 3.68517 15.3513 4.31029C14.7262 4.93542 14.375 5.78326 14.375 6.66732V10.0007M25.625 10.0007H14.375M5 10.0007H14.375" stroke="#1B1A1F" stroke-linecap="round" stroke-linejoin="round"/>
<path d="M15 24.5C15 21.5938 18.875 19.3438 18 16C20.0625 16 24 19 24 24.5C24 25.6935 23.5259 26.8381 22.682 27.682C21.8381 28.5259 20.6935 29 19.5 29C18.3065 29 17.1619 28.5259 16.318 27.682C15.4741 26.8381 15 25.6935 15 24.5Z" stroke="black" stroke-linecap="round" stroke-linejoin="round"/>
<path d="M21.5 26C21.5 27.8034 20.5 28.5 19.5 28.5C18.5 28.5 17.5 27.8034 17.5 26C17.5 24.1966 18.75 23.3125 18.5 22C19.8125 22 21.5 24.1966 21.5 26Z" stroke="black" stroke-linecap="round" stroke-linejoin="round"/>
</svg>
