<svg width="70" height="66" viewBox="0 0 70 66" fill="none" xmlns="http://www.w3.org/2000/svg">
<path fill-rule="evenodd" clip-rule="evenodd" d="M7.86551 0.155033H54.68C58.8048 0.155033 62.1797 3.53204 62.1797 7.65966V51.4465C62.1797 55.5742 58.8048 58.9512 54.68 58.9512H7.49998C3.37492 58.9512 0 55.5742 0 51.4465V8.0252C0 3.69646 3.53945 0.155033 7.86551 0.155033Z" fill="#ED1C24"/>
<path d="M66.6367 0.000343323C67.1061 0.000343323 67.5639 0.120544 68.0118 0.361161C68.4582 0.602851 68.8072 0.947141 69.0564 1.39639C69.3057 1.84436 69.4308 2.31271 69.4308 2.79995C69.4308 3.28226 69.3081 3.74547 69.0616 4.18957C68.8162 4.63517 68.4708 4.98075 68.0281 5.2263C67.5842 5.47293 67.1213 5.5957 66.6367 5.5957C66.1524 5.5957 65.6882 5.47293 65.2454 5.2263C64.8014 4.98075 64.4562 4.63517 64.2095 4.18957C63.9616 3.74547 63.8389 3.28226 63.8389 2.79995C63.8389 2.31271 63.9641 1.84436 64.2145 1.39639C64.465 0.947141 64.814 0.602851 65.2619 0.361161C65.7083 0.120544 66.1674 0.000343323 66.6367 0.000343323ZM66.6367 0.463547C66.2433 0.463547 65.8613 0.564859 65.4895 0.765981C65.1176 0.967318 64.8267 1.2558 64.6167 1.62928C64.4067 2.00384 64.3018 2.39363 64.3018 2.79995C64.3018 3.20241 64.4054 3.58856 64.6118 3.95818C64.8179 4.32758 65.1062 4.61606 65.4769 4.82255C65.8476 5.02883 66.2333 5.1325 66.6367 5.1325C67.039 5.1325 67.4262 5.02883 67.7966 4.82255C68.1673 4.61606 68.4543 4.32758 68.6594 3.95818C68.8642 3.58856 68.9666 3.20241 68.9666 2.79995C68.9666 2.39363 68.863 2.00384 68.6542 1.62928C68.4455 1.2558 68.1546 0.967318 67.7814 0.765981C67.4083 0.564859 67.0263 0.463547 66.6367 0.463547ZM65.4097 4.3454V1.33565H66.4433C66.7974 1.33565 67.0529 1.36205 67.211 1.41786C67.3691 1.47345 67.4944 1.57111 67.5892 1.70892C67.6827 1.84822 67.7297 1.99504 67.7297 2.15065C67.7297 2.37088 67.6512 2.56191 67.4944 2.72526C67.3376 2.8886 67.1288 2.97961 66.8695 3C66.9757 3.04422 67.0617 3.09745 67.125 3.15949C67.2464 3.2784 67.3944 3.47716 67.5703 3.75684L67.9371 4.3454H67.3438L67.0769 3.8706C66.8669 3.49862 66.6987 3.26445 66.5698 3.17086C66.4812 3.1011 66.3508 3.06697 66.1801 3.06697H65.8956V4.3454H65.4097ZM65.8956 2.65185H66.4849C66.7659 2.65185 66.9581 2.60892 67.0604 2.52521C67.1629 2.44171 67.2149 2.33031 67.2149 2.19122C67.2149 2.10257 67.1895 2.02294 67.1402 1.95189C67.0909 1.88235 67.0227 1.82912 66.9353 1.79499C66.8468 1.75957 66.6848 1.74326 66.4471 1.74326H65.8956V2.65185Z" fill="white"/>
<path d="M7.12207 62.177H9.95899V62.5193C9.86525 62.5032 9.78395 62.4946 9.71552 62.4946H8.87313V65.7654C8.87313 65.8313 8.88193 65.8916 8.89866 65.9472H8.1942C8.21093 65.8935 8.21973 65.8332 8.21973 65.7654V62.4946H7.37155C7.29132 62.4946 7.20809 62.5032 7.12207 62.5193V62.177ZM10.2123 65.9472C10.2271 65.8897 10.2349 65.8294 10.2349 65.7654V62.063C10.2349 61.9952 10.2271 61.9346 10.2123 61.881H10.8561C10.8415 61.9346 10.8336 61.9952 10.8336 62.063V63.3837C10.9618 63.2236 11.0968 63.1085 11.2388 63.0388C11.3814 62.969 11.5526 62.934 11.7532 62.934C12.0623 62.934 12.3021 63.0085 12.4714 63.1566C12.6406 63.3047 12.7247 63.514 12.7247 63.7844V65.7654C12.7247 65.8274 12.7324 65.888 12.7472 65.9472H12.1035C12.1181 65.8955 12.126 65.8352 12.126 65.7654V63.9748C12.126 63.758 12.079 63.5988 11.9842 63.4979C11.8892 63.397 11.7424 63.3461 11.541 63.3461C11.3061 63.3461 11.1311 63.4084 11.0146 63.5337C10.8943 63.6657 10.8336 63.8306 10.8336 64.0276V65.7654C10.8336 65.8294 10.8415 65.8897 10.8561 65.9472H10.2123ZM15.9441 65.7512C15.7465 65.8455 15.5734 65.9105 15.4218 65.9463C15.271 65.9822 15.0951 66 14.8945 66C14.373 66 13.9779 65.853 13.7078 65.5578C13.4671 65.2985 13.3468 64.9422 13.3468 64.4887C13.3468 63.9881 13.4847 63.5988 13.7597 63.3206C14.0139 63.0632 14.3505 62.934 14.7711 62.934C15.1781 62.934 15.496 63.0576 15.7229 63.3056C15.9501 63.5535 16.0722 63.9081 16.09 64.37H13.9719C13.9719 64.6924 14.009 64.9497 14.0834 65.144C14.2293 65.5286 14.5255 65.721 14.9747 65.721C15.2828 65.721 15.5762 65.607 15.8551 65.3777L15.9441 65.7512ZM13.9895 64.1107H15.4511C15.4355 63.9428 15.411 63.8072 15.3767 63.7016C15.3248 63.5449 15.2368 63.4195 15.1126 63.3234C15.0099 63.2442 14.8857 63.2047 14.7398 63.2047C14.5335 63.2047 14.3642 63.2839 14.2331 63.4423C14.101 63.6007 14.0199 63.8231 13.9895 64.1107ZM18.2939 62.177H20.3229V62.4835C20.2633 62.4654 20.2026 62.456 20.1389 62.456H18.9728V63.892H20.1076C20.1897 63.892 20.2611 63.8834 20.3229 63.8675V64.1738C20.271 64.1624 20.2015 64.1568 20.1136 64.1568H18.9728V65.6437H20.1048C20.1683 65.6437 20.2406 65.6342 20.3229 65.6162V65.9472H18.2969C18.3114 65.8916 18.3194 65.8321 18.3194 65.7682V62.359C18.3194 62.2834 18.3106 62.2231 18.2939 62.177ZM21.0819 63.2764H20.629V63.0029H21.0819V62.4335L21.6924 62.3704C21.6846 62.4788 21.6806 62.5502 21.6806 62.5861V63.0029H22.1737V63.2764H21.6806V65.4061C21.6806 65.5806 21.7561 65.6682 21.9077 65.6682C21.98 65.6682 22.0721 65.639 22.1825 65.5795V65.8841C22.0163 65.9614 21.844 66 21.6671 66C21.4665 66 21.3187 65.953 21.2239 65.8596C21.1291 65.7654 21.0819 65.6192 21.0819 65.4222V63.2764ZM22.6678 65.9472C22.6826 65.8897 22.6903 65.8294 22.6903 65.7654V62.063C22.6903 61.9952 22.6826 61.9346 22.6678 61.881H23.3115C23.2967 61.9346 23.289 61.9952 23.289 62.063V63.3837C23.417 63.2236 23.5522 63.1085 23.694 63.0388C23.8368 62.969 24.008 62.934 24.2086 62.934C24.5177 62.934 24.7573 63.0085 24.9266 63.1566C25.0958 63.3047 25.1799 63.514 25.1799 63.7844V65.7654C25.1799 65.8274 25.1878 65.888 25.2024 65.9472H24.5587C24.5735 65.8955 24.5812 65.8352 24.5812 65.7654V63.9748C24.5812 63.758 24.5342 63.5988 24.4394 63.4979C24.3444 63.397 24.1977 63.3461 23.9962 63.3461C23.7616 63.3461 23.5863 63.4084 23.47 63.5337C23.3497 63.6657 23.289 63.8306 23.289 64.0276V65.7654C23.289 65.8294 23.2967 65.8897 23.3115 65.9472H22.6678ZM26.2786 62.2072C26.3949 62.2072 26.4861 62.2306 26.5526 62.2778C26.618 62.324 26.6512 62.3882 26.6512 62.4693C26.6512 62.5541 26.618 62.6211 26.5526 62.6691C26.4861 62.7181 26.3968 62.7428 26.2844 62.7428C26.03 62.7428 25.9028 62.653 25.9028 62.4749C25.9028 62.3938 25.9371 62.3287 26.0047 62.2806C26.0721 62.2317 26.1641 62.2072 26.2786 62.2072ZM25.9459 63.0029H26.5897C26.5751 63.0604 26.5672 63.1208 26.5672 63.1849V65.7654C26.5672 65.8274 26.5751 65.888 26.5897 65.9472H25.9459C25.9605 65.8916 25.9685 65.8313 25.9685 65.7654V63.1849C25.9685 63.1169 25.9605 63.0566 25.9459 63.0029ZM29.4854 65.7899C29.2604 65.8822 29.098 65.9397 29.001 65.9642C28.9032 65.9878 28.776 66 28.6196 66C28.1882 66 27.8536 65.8708 27.6168 65.6134C27.3645 65.3391 27.2381 64.9695 27.2381 64.5056C27.2381 63.9759 27.3977 63.5676 27.7165 63.282C27.9789 63.0499 28.3212 62.934 28.7457 62.934C28.9785 62.934 29.2252 62.9765 29.4854 63.0604V63.4912C29.3406 63.3809 29.2183 63.3064 29.1194 63.2669C29.0216 63.2272 28.9092 63.2075 28.7829 63.2075C28.5042 63.2075 28.2869 63.3178 28.1325 63.5393C27.966 63.7731 27.883 64.0824 27.883 64.467C27.883 64.8027 27.9456 65.0837 28.0717 65.3099C28.2176 65.5692 28.4424 65.6993 28.7487 65.6993C28.8809 65.6993 29.0021 65.6757 29.1126 65.6287C29.223 65.5814 29.3474 65.5003 29.4854 65.3835V65.7899ZM31.5582 65.5523C31.4351 65.6926 31.3235 65.7907 31.2227 65.8482C31.0427 65.9491 30.8383 66 30.6094 66C30.3737 66 30.1847 65.9341 30.042 65.801C29.8659 65.6409 29.7778 65.4269 29.7778 65.1571C29.7778 64.8375 29.903 64.5982 30.1536 64.4397C30.2641 64.3689 30.3687 64.3161 30.4674 64.2805C30.5652 64.2446 30.7883 64.1757 31.1367 64.0749C31.2815 64.0324 31.3851 63.9806 31.4458 63.9184C31.5074 63.857 31.5378 63.7731 31.5378 63.6657C31.5378 63.5402 31.4859 63.4393 31.3832 63.3612C31.2796 63.2828 31.1455 63.2433 30.979 63.2433C30.8353 63.2433 30.7081 63.265 30.5965 63.3092C30.4841 63.3536 30.3473 63.4356 30.1847 63.5554L30.0879 63.1791C30.2954 63.0858 30.4754 63.0218 30.6259 62.9868C30.7776 62.952 30.9507 62.934 31.1474 62.934C31.4634 62.934 31.7069 62.9935 31.8783 63.1122C32.0503 63.2311 32.1363 63.3989 32.1363 63.6157V65.3647C32.1363 65.5342 32.1962 65.6192 32.3165 65.6192C32.3643 65.6192 32.4308 65.589 32.5171 65.5278V65.853C32.3586 65.9511 32.208 66 32.0649 66C31.9154 66 31.8038 65.9672 31.7285 65.9002C31.6532 65.8341 31.5964 65.7182 31.5582 65.5523ZM31.5378 64.1908C31.4615 64.2313 31.4057 64.2588 31.3705 64.2738C31.3353 64.288 31.1837 64.3444 30.9155 64.4417C30.7072 64.5179 30.5633 64.6112 30.4831 64.7235C30.4009 64.8386 30.3599 64.9631 30.3599 65.0998C30.3599 65.2563 30.405 65.3816 30.4959 65.4767C30.5869 65.572 30.7072 65.6192 30.8589 65.6192C31.0936 65.6192 31.2776 65.5258 31.4115 65.3402C31.4956 65.2221 31.5378 65.0948 31.5378 64.9583V64.1908ZM33.5549 61.881C33.5403 61.9346 33.5324 61.9952 33.5324 62.063V65.7654C33.5324 65.8274 33.5403 65.888 33.5549 65.9472H32.9111C32.9259 65.8897 32.9337 65.8294 32.9337 65.7654V62.063C32.9337 61.9969 32.9259 61.9366 32.9111 61.881H33.5549ZM35.931 62.177H37.2518C37.5746 62.177 37.8368 62.2448 38.0373 62.3815C38.2673 62.5399 38.3816 62.7823 38.3816 63.1074C38.3816 63.447 38.2428 63.6893 37.9659 63.8372C37.8779 63.8834 37.7537 63.9287 37.5933 63.9748C37.7673 64.0059 37.9101 64.0542 38.0236 64.1193C38.3143 64.2822 38.4591 64.549 38.4591 64.9167C38.4591 65.2816 38.3143 65.5598 38.0255 65.7512C37.831 65.8822 37.6021 65.9472 37.3378 65.9472H35.931C35.9478 65.8974 35.9566 65.836 35.9566 65.7615V62.357C35.9566 62.2826 35.9478 62.2231 35.931 62.177ZM36.6102 63.8703H36.8908C37.1413 63.8703 37.332 63.8269 37.4622 63.7402C37.6431 63.6204 37.734 63.412 37.734 63.1132C37.734 62.6767 37.4983 62.4588 37.0259 62.4588H36.6102V63.8703ZM36.6102 65.6568H37.0748C37.554 65.6568 37.7939 65.4155 37.7939 64.9339C37.7939 64.6499 37.7076 64.4397 37.5356 64.3039C37.4573 64.2408 37.3711 64.1974 37.2762 64.1729C37.1814 64.1474 37.0562 64.1352 36.8996 64.1352H36.6102V65.6568ZM41.0064 65.9472V65.5437C40.8978 65.6879 40.7921 65.7907 40.6913 65.8538C40.531 65.9511 40.3285 66 40.0859 66C39.759 66 39.5076 65.9105 39.3326 65.7323C39.1869 65.5842 39.1144 65.3722 39.1144 65.094V63.1819C39.1144 63.1199 39.1067 63.0604 39.0919 63.0029H39.7356C39.721 63.0546 39.7131 63.1141 39.7131 63.1819V65.0298C39.7131 65.1882 39.7523 65.3146 39.8304 65.4089C39.9343 65.5286 40.0887 65.5881 40.2953 65.5881C40.5046 65.5881 40.6728 65.5306 40.802 65.4155C40.9311 65.3005 40.9957 65.1507 40.9957 64.9667V63.1819C40.9957 63.118 40.9877 63.0585 40.9731 63.0029H41.6169C41.6023 63.051 41.5944 63.1105 41.5944 63.1819V65.7654C41.5944 65.8238 41.6023 65.885 41.6169 65.9472H41.0064ZM42.6948 62.2072C42.8113 62.2072 42.9022 62.2306 42.9687 62.2778C43.0344 62.324 43.0676 62.3882 43.0676 62.4693C43.0676 62.5541 43.0344 62.6211 42.9687 62.6691C42.9022 62.7181 42.8132 62.7428 42.7008 62.7428C42.4464 62.7428 42.3192 62.653 42.3192 62.4749C42.3192 62.3938 42.3535 62.3287 42.4211 62.2806C42.4885 62.2317 42.5805 62.2072 42.6948 62.2072ZM42.3623 63.0029H43.0059C42.9913 63.0604 42.9835 63.1208 42.9835 63.1849V65.7654C42.9835 65.8274 42.9913 65.888 43.0059 65.9472H42.3623C42.3769 65.8916 42.3848 65.8313 42.3848 65.7654V63.1849C42.3848 63.1169 42.3769 63.0566 42.3623 63.0029ZM44.4283 61.881C44.4137 61.9346 44.406 61.9952 44.406 62.063V65.7654C44.406 65.8274 44.4137 65.888 44.4283 65.9472H43.7847C43.7993 65.8897 43.8071 65.8294 43.8071 65.7654V62.063C43.8071 61.9969 43.7993 61.9366 43.7847 61.881H44.4283ZM47.0277 65.5192C46.925 65.6568 46.8319 65.7568 46.7497 65.818C46.5873 65.9397 46.3829 66 46.1364 66C45.7814 66 45.5084 65.8616 45.3176 65.5834C45.1229 65.2977 45.0251 64.9261 45.0251 64.4698C45.0251 63.9984 45.1347 63.6185 45.3548 63.329C45.5553 63.066 45.8419 62.934 46.2147 62.934C46.3956 62.934 46.5502 62.9643 46.6755 63.0235C46.8016 63.0841 46.9171 63.1811 47.0198 63.315V62.063C47.0198 61.9969 47.0121 61.9366 46.9973 61.881H47.641C47.6264 61.9385 47.6185 61.9988 47.6185 62.063V65.7654C47.6185 65.8274 47.6264 65.888 47.641 65.9472H47.0277V65.5192ZM46.3664 63.2461C46.204 63.2461 46.0639 63.3028 45.9477 63.4148C45.7529 63.6063 45.6562 63.957 45.6562 64.467C45.6562 65.2438 45.882 65.6323 46.334 65.6323C46.5689 65.6323 46.7469 65.5297 46.8681 65.3241C46.9896 65.1195 47.0503 64.8177 47.0503 64.42C47.0503 63.6468 46.8222 63.2556 46.3664 63.2461ZM50.8313 65.7512C50.6335 65.8455 50.4604 65.9105 50.3087 65.9463C50.1581 65.9822 49.982 66 49.7814 66C49.2602 66 48.8648 65.853 48.595 65.5578C48.3543 65.2985 48.2339 64.9422 48.2339 64.4887C48.2339 63.9881 48.3719 63.5988 48.6467 63.3206C48.9011 63.0632 49.2374 62.934 49.6581 62.934C50.0652 62.934 50.3831 63.0576 50.6101 63.3056C50.837 63.5535 50.9593 63.9081 50.9769 64.37H48.859C48.859 64.6924 48.8961 64.9497 48.9706 65.144C49.1162 65.5286 49.4127 65.721 49.8617 65.721C50.1699 65.721 50.4634 65.607 50.7422 65.3777L50.8313 65.7512ZM48.8766 64.1107H50.3381C50.3224 63.9428 50.298 63.8072 50.2639 63.7016C50.212 63.5449 50.1238 63.4195 49.9996 63.3234C49.8968 63.2442 49.7726 63.2047 49.627 63.2047C49.4204 63.2047 49.2514 63.2839 49.1203 63.4423C48.9882 63.6007 48.9069 63.8231 48.8766 64.1107ZM51.5355 63.0029H52.1488V63.3781C52.2046 63.2253 52.2878 63.1169 52.3993 63.051C52.5109 62.986 52.681 62.9462 52.9109 62.934V63.3867C52.865 63.3848 52.8327 63.3837 52.8161 63.3837C52.3768 63.3837 52.1567 63.6149 52.1567 64.0776V65.7654C52.1567 65.8313 52.1644 65.8916 52.1792 65.9472H51.5355C51.5503 65.888 51.558 65.8274 51.558 65.7654V63.1849C51.558 63.1188 51.5503 63.0585 51.5355 63.0029Z" fill="white"/>
<path d="M27.3751 7.73638V17.3046H33.0547C34.5316 17.3046 35.5139 17.0975 36.0083 16.683C36.672 16.1344 37.0363 15.1715 37.1143 13.7881H37.8169V22.2167H37.1143C36.9387 21.0405 36.7565 20.2847 36.5808 19.9497C36.3533 19.5352 35.9757 19.2061 35.4553 18.9683C34.9349 18.7307 34.1346 18.6088 33.0547 18.6088H27.3751V26.5925C27.3751 27.6651 27.4272 28.3172 27.5248 28.5488C27.6288 28.7804 27.8045 28.9632 28.0581 29.1034C28.3118 29.2373 28.7999 29.3045 29.509 29.3045H33.8939C35.3513 29.3045 36.4182 29.2131 37.0753 29.018C37.7388 28.8291 38.3699 28.4573 38.9815 27.8967C39.7687 27.1592 40.5755 26.0439 41.4018 24.557H42.1629L39.938 30.627H20.0171V29.9689H20.9343C21.5393 29.9689 22.1184 29.8287 22.6648 29.5544C23.0747 29.3655 23.348 29.0789 23.4975 28.7012C23.6406 28.3172 23.7123 27.5371 23.7123 26.3609V10.6313C23.7123 9.09529 23.5497 8.15086 23.2178 7.79111C22.7624 7.31589 22.0013 7.07828 20.9343 7.07828H20.0171V6.41395H39.938L40.2241 11.7161H39.4759C39.2093 10.4422 38.9165 9.57073 38.591 9.09529C38.2658 8.62007 37.7909 8.25432 37.1534 8.00447C36.6458 7.82782 35.7481 7.73638 34.4664 7.73638H27.3751Z" fill="white"/>
<path d="M13.6895 36.4214V39.3532H15.4427C15.8985 39.3532 16.2018 39.2897 16.3543 39.1628C16.5592 38.9948 16.6718 38.6996 16.6959 38.2757H16.9127V40.8585H16.6959C16.6416 40.4981 16.5854 40.2665 16.5311 40.1637C16.461 40.0366 16.3445 39.936 16.1838 39.8632C16.0231 39.7902 15.776 39.7529 15.4427 39.7529H13.6895V42.1994C13.6895 42.528 13.7056 42.7279 13.7356 42.7987C13.7678 42.8697 13.822 42.9258 13.9003 42.9687C13.9786 43.0097 14.1292 43.0303 14.3482 43.0303H15.7018C16.1516 43.0303 16.4809 43.0024 16.6838 42.9425C16.8887 42.8848 17.0835 42.7708 17.2722 42.5991C17.5153 42.3731 17.7641 42.0311 18.0192 41.5756H18.2543L17.5674 43.4355H11.4182V43.2338H11.7014C11.888 43.2338 12.0669 43.1909 12.2355 43.1069C12.3621 43.049 12.4464 42.9612 12.4925 42.8455C12.5367 42.7279 12.5588 42.4887 12.5588 42.1284V37.3085C12.5588 36.8378 12.5086 36.5485 12.4063 36.4381C12.2657 36.2926 12.0306 36.2196 11.7014 36.2196H11.4182V36.0161H17.5674L17.6558 37.6408H17.4248C17.3424 37.2506 17.2521 36.9835 17.1517 36.8378C17.0513 36.6923 16.9048 36.5802 16.7079 36.5036C16.5513 36.4493 16.2741 36.4214 15.8786 36.4214H13.6895ZM25.4376 41.3833L25.6326 41.4224L24.9498 43.4355H18.7723V43.2338H19.0735C19.4109 43.2338 19.652 43.1312 19.7966 42.9277C19.879 42.8101 19.9191 42.5392 19.9191 42.1172V37.3289C19.9191 36.8659 19.8648 36.5764 19.7544 36.4607C19.6018 36.3001 19.3749 36.2196 19.0735 36.2196H18.7723V36.0161H22.3851V36.2196C21.9615 36.216 21.6642 36.2514 21.4934 36.328C21.3229 36.4046 21.2064 36.5017 21.1442 36.6193C21.0818 36.7352 21.0496 37.0153 21.0496 37.456V42.1172C21.0496 42.4196 21.0818 42.627 21.1442 42.7407C21.1903 42.8174 21.2626 42.8734 21.3611 42.9107C21.4593 42.9464 21.7646 42.965 22.2787 42.965H22.8611C23.4736 42.965 23.9035 42.9238 24.1504 42.8399C24.3975 42.7558 24.6223 42.6064 24.8271 42.3937C25.0301 42.1807 25.2349 41.8427 25.4376 41.3833ZM29.6108 43.2338V43.4355H26.1908V43.2338H26.474C26.8032 43.2338 27.0422 43.1443 27.1909 42.965C27.2852 42.8491 27.3335 42.5671 27.3335 42.1228V37.3289C27.3335 36.9535 27.3073 36.7051 27.2571 36.5858C27.217 36.4941 27.1368 36.4158 27.0162 36.3503C26.8436 36.2625 26.6627 36.2196 26.474 36.2196H26.1908V36.0161H29.6108V36.2196H29.3216C28.9964 36.2196 28.7594 36.3093 28.6107 36.4869C28.5122 36.6045 28.462 36.8846 28.462 37.3289V42.1228C28.462 42.4982 28.4882 42.7465 28.5384 42.8661C28.5785 42.9575 28.6609 43.0359 28.7855 43.1013C28.9541 43.1891 29.1328 43.2338 29.3216 43.2338H29.6108ZM34.8223 39.3272L36.5352 41.7008C37.0093 42.358 37.3607 42.7725 37.5917 42.9464C37.8206 43.12 38.1117 43.2151 38.4652 43.2338V43.4355H35.0411V43.2338C35.2681 43.2301 35.4367 43.2078 35.5472 43.1666C35.6295 43.1348 35.6958 43.0844 35.7501 43.0172C35.8022 42.95 35.8284 42.8809 35.8284 42.8118C35.8284 42.7279 35.8104 42.6437 35.7763 42.5598C35.748 42.4982 35.6396 42.3374 35.4528 42.0779L34.0992 40.1751L32.4284 42.1657C32.2516 42.3786 32.1452 42.5186 32.1111 42.5896C32.0751 42.6607 32.0568 42.7352 32.0568 42.8118C32.0568 42.9294 32.1111 43.0247 32.2156 43.1013C32.322 43.178 32.5247 43.2226 32.822 43.2338V43.4355H29.9924V43.2338C30.1932 43.2151 30.3639 43.176 30.5106 43.1181C30.7535 43.0228 30.9845 42.8959 31.2033 42.7352C31.4242 42.5746 31.6752 42.3282 31.9565 41.9957L33.8403 39.7866L32.2699 37.6464C31.8419 37.0675 31.4785 36.6865 31.1814 36.5072C30.882 36.3261 30.5387 36.2308 30.1511 36.2196V36.0161H33.8403V36.2196C33.5269 36.2308 33.312 36.2776 33.1955 36.3617C33.0811 36.4456 33.0228 36.539 33.0228 36.6399C33.0228 36.7762 33.1174 36.9722 33.304 37.2319L34.5291 38.9332L35.9468 37.2637C36.1115 37.0675 36.2119 36.9331 36.2501 36.8603C36.2864 36.7856 36.3063 36.7109 36.3063 36.6343C36.3063 36.5577 36.2823 36.4905 36.234 36.4325C36.1759 36.3561 36.1015 36.3018 36.0112 36.272C35.9208 36.2402 35.734 36.2235 35.4528 36.2196V36.0161H38.2824V36.2196C38.0595 36.2308 37.8768 36.2625 37.7341 36.3169C37.5233 36.4008 37.3285 36.5148 37.1517 36.6566C36.9752 36.7987 36.7261 37.0619 36.4048 37.4448L34.8223 39.3272ZM42.3251 43.2338V43.4355H38.9049V43.2338H39.1881C39.5176 43.2338 39.7565 43.1443 39.9052 42.965C39.9996 42.8491 40.0476 42.5671 40.0476 42.1228V37.3289C40.0476 36.9535 40.0217 36.7051 39.9715 36.5858C39.9314 36.4941 39.8509 36.4158 39.7304 36.3503C39.5577 36.2625 39.3771 36.2196 39.1881 36.2196H38.9049V36.0161H42.3251V36.2196H42.0357C41.7105 36.2196 41.4735 36.3093 41.3248 36.4869C41.2266 36.6045 41.1764 36.8846 41.1764 37.3289V42.1228C41.1764 42.4982 41.2023 42.7465 41.2525 42.8661C41.2929 42.9575 41.3752 43.0359 41.4997 43.1013C41.6683 43.1891 41.8472 43.2338 42.0357 43.2338H42.3251ZM50.7616 43.4355H48.6309L45.93 39.9677C45.7311 39.9733 45.5683 39.977 45.442 39.977C45.3916 39.977 45.3375 39.977 45.2772 39.9753C45.2189 39.9733 45.1586 39.9714 45.0945 39.9677V42.1228C45.0945 42.5896 45.1507 42.8792 45.2592 42.9929C45.4098 43.1537 45.6327 43.2338 45.93 43.2338H46.2432V43.4355H42.8251V43.2338H43.1244C43.4618 43.2338 43.7027 43.1312 43.8473 42.9277C43.9297 42.8137 43.9719 42.5448 43.9719 42.1228V37.3289C43.9719 36.8621 43.9157 36.5727 43.8072 36.4607C43.6544 36.3001 43.4256 36.2196 43.1244 36.2196H42.8251V36.0161H45.7311C46.5784 36.0161 47.2031 36.0741 47.6047 36.1898C48.0065 36.3038 48.3477 36.5148 48.629 36.823C48.9081 37.1329 49.0488 37.4989 49.0488 37.9265C49.0488 38.3822 48.89 38.7782 48.5687 39.1143C48.2493 39.4485 47.7555 39.6857 47.0847 39.8239L48.7313 41.9528C49.1069 42.4422 49.4323 42.7669 49.7013 42.9277C49.9725 43.0863 50.326 43.1891 50.7616 43.2338V43.4355ZM45.0945 39.6222C45.1708 39.6222 45.235 39.6222 45.2892 39.6241C45.3435 39.626 45.3896 39.6277 45.4237 39.6277C46.1848 39.6277 46.7593 39.4747 47.145 39.1684C47.5324 38.8621 47.7252 38.4719 47.7252 37.9975C47.7252 37.5343 47.5686 37.1572 47.2574 36.8676C46.9461 36.5783 46.5323 36.4325 46.0181 36.4325C45.7914 36.4325 45.484 36.468 45.0945 36.5371V39.6222Z" fill="white"/>
<path d="M15.2664 48.6977H18.4667V47.0636C18.4667 46.7756 18.4442 46.5858 18.4009 46.4946C18.3661 46.4261 18.2947 46.3662 18.1853 46.3164C18.0394 46.2492 17.8848 46.2166 17.7215 46.2166H17.4766V46.0625H20.437V46.2166H20.1921C20.0288 46.2166 19.8742 46.248 19.7283 46.3121C19.6187 46.3564 19.544 46.4233 19.5058 46.513C19.4659 46.603 19.4468 46.7869 19.4468 47.0636V50.7338C19.4468 51.0206 19.4694 51.2101 19.5127 51.3016C19.5477 51.3713 19.617 51.4312 19.7231 51.481C19.8724 51.5482 20.0288 51.5808 20.1921 51.5808H20.437V51.7349H17.4766V51.5808H17.7215C18.0047 51.5808 18.2098 51.5126 18.34 51.3771C18.4251 51.2872 18.4667 51.0734 18.4667 50.7338V49.0057H15.2664V50.7338C15.2664 51.0206 15.289 51.2101 15.3325 51.3016C15.3655 51.3713 15.4365 51.4312 15.5462 51.481C15.692 51.5482 15.845 51.5808 16.0084 51.5808H16.2568V51.7349H13.2961V51.5808H13.5411C13.8279 51.5808 14.0345 51.5126 14.1647 51.3771C14.2464 51.2872 14.2865 51.0734 14.2865 50.7338V47.0636C14.2865 46.7756 14.2638 46.5858 14.2205 46.4946C14.1857 46.4261 14.1162 46.3662 14.0103 46.3164C13.8607 46.2492 13.7044 46.2166 13.5411 46.2166H13.2961V46.0625H16.2568V46.2166H16.0084C15.845 46.2166 15.692 46.248 15.5462 46.3121C15.4402 46.3564 15.3673 46.4233 15.3271 46.513C15.2872 46.603 15.2664 46.7869 15.2664 47.0636V48.6977ZM24.4559 45.9341C25.3506 45.9341 26.1274 46.2136 26.7823 46.7726C27.4391 47.3317 27.7676 48.0289 27.7676 48.866C27.7676 49.7271 27.4374 50.4417 26.7754 51.0105C26.1152 51.5795 25.3142 51.8633 24.3742 51.8633C23.4256 51.8633 22.6281 51.5851 21.9817 51.0305C21.3354 50.4758 21.0121 49.7585 21.0121 48.8774C21.0121 47.9776 21.3858 47.2433 22.131 46.6742C22.7793 46.1808 23.5541 45.9341 24.4559 45.9341ZM24.3585 46.2336C23.7435 46.2336 23.2482 46.4218 22.8765 46.7983C22.4127 47.2675 22.1797 47.9533 22.1797 48.8574C22.1797 49.7827 22.4196 50.4958 22.9009 50.9948C23.271 51.3741 23.7575 51.5639 24.3637 51.5639C25.0119 51.5639 25.5452 51.3556 25.9676 50.9407C26.3897 50.5243 26.6 49.8699 26.6 48.9744C26.6 48.0031 26.367 47.2789 25.9032 46.8026C25.5315 46.4233 25.0171 46.2336 24.3585 46.2336ZM32.4396 51.7349L29.7707 46.9623V50.751C29.7707 51.1004 29.8176 51.3185 29.9097 51.4054C30.0367 51.5224 30.2381 51.5808 30.5144 51.5808H30.7611V51.7349H28.3321V51.5808H28.5806C28.8759 51.5808 29.0844 51.5083 29.2095 51.3627C29.2842 51.273 29.3225 51.0689 29.3225 50.751V47.0464C29.3225 46.7955 29.2878 46.6129 29.22 46.5017C29.1713 46.4205 29.0827 46.3534 28.954 46.2978C28.8238 46.2437 28.617 46.2166 28.3321 46.2166V46.0625H30.3127L32.8043 50.4973L35.2733 46.0625H37.2348V46.2166H36.9935C36.6928 46.2166 36.4825 46.2894 36.3575 46.4347C36.2828 46.5244 36.2446 46.7285 36.2446 47.0464V50.751C36.2446 51.1004 36.2931 51.3185 36.3888 51.4054C36.5156 51.5224 36.7172 51.5808 36.9935 51.5808H37.2348V51.7349H34.2743V51.5808H34.5227C34.8216 51.5808 35.0301 51.5083 35.1517 51.3627C35.2263 51.273 35.2645 51.0689 35.2645 50.751V46.9623L32.6063 51.7349H32.4396ZM39.6241 46.3705V48.6121H41.146C41.5403 48.6121 41.8026 48.5635 41.9348 48.4667C42.112 48.3384 42.2094 48.113 42.2302 47.7908H42.4179V49.7671H42.2302C42.1832 49.4904 42.1345 49.3122 42.0877 49.2339C42.0268 49.1369 41.9262 49.0598 41.787 49.0042C41.6482 48.9486 41.4343 48.9201 41.146 48.9201H39.6241V50.7909C39.6241 51.0418 39.6378 51.1944 39.664 51.2485C39.6918 51.3028 39.7386 51.3471 39.8064 51.3784C39.8742 51.4112 40.0044 51.4269 40.1938 51.4269H41.3631C41.7522 51.4269 42.0356 51.4042 42.2128 51.3599C42.3883 51.3157 42.5586 51.2273 42.7201 51.0961C42.9303 50.9236 43.1459 50.6626 43.3664 50.3146H43.5749L42.979 51.7349H37.6536V51.5808H37.8987C38.062 51.5808 38.2166 51.5482 38.3625 51.484C38.4721 51.4398 38.5468 51.3726 38.585 51.2829C38.6249 51.1929 38.644 51.0105 38.644 50.7338V47.0464C38.644 46.6871 38.6006 46.466 38.512 46.3834C38.3887 46.2722 38.1853 46.2166 37.8987 46.2166H37.6536V46.0625H42.9807L43.0537 47.3117H42.8557C42.7845 47.0108 42.7062 46.8041 42.6193 46.6914C42.5324 46.5787 42.4039 46.4931 42.2353 46.4334C42.1 46.392 41.8601 46.3705 41.5178 46.3705H39.6241ZM48.598 45.9341V47.8934H48.4103C48.3495 47.5169 48.2401 47.2175 48.0821 46.9951C47.9237 46.7726 47.6981 46.5959 47.4044 46.4648C47.1125 46.3334 46.8102 46.2679 46.4972 46.2679C46.1429 46.2679 45.8509 46.3564 45.6199 46.533C45.3889 46.7099 45.2724 46.9125 45.2724 47.1377C45.2724 47.3102 45.3453 47.4684 45.4914 47.6112C45.7033 47.8194 46.2038 48.0988 46.996 48.4468C47.6423 48.7318 48.0838 48.9501 48.3199 49.1012C48.5563 49.2538 48.7387 49.432 48.8655 49.6387C48.9924 49.8456 49.0566 50.0609 49.0566 50.2876C49.0566 50.7169 48.8534 51.0861 48.4487 51.3971C48.0419 51.7079 47.519 51.8633 46.8814 51.8633C46.6798 51.8633 46.4921 51.8504 46.3149 51.8246C46.2089 51.8105 45.9918 51.7592 45.6598 51.6707C45.3297 51.5823 45.1194 51.5381 45.0308 51.5381C44.9459 51.5381 44.8781 51.5596 44.8294 51.6008C44.7807 51.6437 44.7442 51.7306 44.72 51.8633H44.5323V49.9212H44.72C44.8086 50.3275 44.9266 50.6327 45.0761 50.8338C45.2256 51.0363 45.4549 51.2045 45.7623 51.337C46.0699 51.4711 46.4071 51.5381 46.7735 51.5381C47.1976 51.5381 47.5346 51.4454 47.7796 51.2614C48.0263 51.0762 48.1496 50.8579 48.1496 50.607C48.1496 50.4672 48.1029 50.326 48.0106 50.1835C47.9169 50.0409 47.7727 49.9083 47.5762 49.7842C47.4443 49.7001 47.0811 49.5232 46.4887 49.2523C45.8962 48.983 45.474 48.7662 45.2239 48.605C44.9736 48.4438 44.7824 48.2641 44.6539 48.0703C44.5235 47.875 44.4594 47.6595 44.4594 47.4257C44.4594 47.0194 44.6505 46.6684 45.0308 46.3748C45.4114 46.0812 45.8979 45.9341 46.4852 45.9341C46.8535 45.9341 47.2427 46.0084 47.6545 46.1552C47.8457 46.2252 47.9793 46.2593 48.0576 46.2593C48.1462 46.2593 48.2191 46.2379 48.2747 46.1952C48.3305 46.1509 48.3755 46.0653 48.4103 45.9341H48.598Z" fill="white"/>
<path d="M55.3733 61.711C55.6447 61.711 55.9092 61.7806 56.1681 61.9195C56.4261 62.0592 56.628 62.2584 56.7719 62.5179C56.9161 62.777 56.9884 63.0476 56.9884 63.3293C56.9884 63.6081 56.9174 63.8757 56.7749 64.1327C56.6331 64.3902 56.4334 64.5899 56.1775 64.7317C55.921 64.8745 55.6535 64.9453 55.3733 64.9453C55.0934 64.9453 54.825 64.8745 54.5691 64.7317C54.3125 64.5899 54.1128 64.3902 53.9702 64.1327C53.8269 63.8757 53.7561 63.6081 53.7561 63.3293C53.7561 63.0476 53.8284 62.777 53.9732 62.5179C54.118 62.2584 54.3198 62.0592 54.5785 61.9195C54.8366 61.7806 55.1022 61.711 55.3733 61.711ZM55.3733 61.9787C55.1459 61.9787 54.9252 62.0373 54.7103 62.1536C54.4953 62.27 54.3271 62.4368 54.2057 62.6527C54.0843 62.8691 54.0236 63.0944 54.0236 63.3293C54.0236 63.5619 54.0837 63.7852 54.2027 63.9987C54.322 64.2123 54.4887 64.3791 54.703 64.4984C54.917 64.6178 55.1401 64.6777 55.3733 64.6777C55.6058 64.6777 55.8296 64.6178 56.0437 64.4984C56.258 64.3791 56.424 64.2123 56.5424 63.9987C56.6608 63.7852 56.72 63.5619 56.72 63.3293C56.72 63.0944 56.6602 62.8691 56.5394 62.6527C56.4188 62.4368 56.2507 62.27 56.0351 62.1536C55.8193 62.0373 55.5985 61.9787 55.3733 61.9787ZM54.6641 64.2226V62.4829H55.2615C55.4662 62.4829 55.6138 62.4981 55.7052 62.5303C55.7968 62.5625 55.869 62.619 55.924 62.6986C55.978 62.7791 56.005 62.8641 56.005 62.9541C56.005 63.0813 55.9598 63.1917 55.869 63.2861C55.7783 63.3806 55.6578 63.4331 55.5078 63.4449C55.5692 63.4705 55.6189 63.5012 55.6556 63.537C55.7258 63.6059 55.8113 63.7208 55.9128 63.8824L56.125 64.2226H55.782L55.6277 63.9483C55.5063 63.7332 55.4091 63.5978 55.3345 63.5437C55.2834 63.5033 55.2081 63.4836 55.1095 63.4836H54.9449V64.2226H54.6641ZM54.9449 63.2438H55.2856C55.448 63.2438 55.5591 63.2189 55.6183 63.1706C55.6775 63.1223 55.7075 63.0579 55.7075 62.9774C55.7075 62.9261 55.6929 62.8802 55.6644 62.8392C55.6359 62.7989 55.5964 62.7682 55.546 62.7484C55.4947 62.728 55.4012 62.7184 55.2637 62.7184H54.9449V63.2438Z" fill="white"/>
</svg>
