<svg width="40" height="40" viewBox="0 0 40 40" fill="none" xmlns="http://www.w3.org/2000/svg">
<path d="M20 13.332L30 8.33203L20 3.33203V19.9987" stroke="white" stroke-linecap="round" stroke-linejoin="round"/>
<path d="M13.3329 19.9805L4.1662 25.2138C3.90971 25.3592 3.69636 25.57 3.54793 25.8247C3.39949 26.0794 3.32129 26.369 3.32129 26.6638C3.32129 26.9586 3.39949 27.2482 3.54793 27.5029C3.69636 27.7576 3.90971 27.9684 4.1662 28.1138L18.3329 36.2138C18.8396 36.5064 19.4144 36.6604 19.9995 36.6604C20.5847 36.6604 21.1595 36.5064 21.6662 36.2138L35.8329 28.1138C36.0894 27.9684 36.3027 27.7576 36.4511 27.5029C36.5996 27.2482 36.6778 26.9586 36.6778 26.6638C36.6778 26.369 36.5996 26.0794 36.4511 25.8247C36.3027 25.57 36.0894 25.3592 35.8329 25.2138L26.6662 19.9971M10.8162 21.4138L29.1829 31.9138M29.1829 21.4138L10.8329 31.9138" stroke="white" stroke-linecap="round" stroke-linejoin="round"/>
</svg>
