<svg width="40" height="40" viewBox="0 0 40 40" fill="none" xmlns="http://www.w3.org/2000/svg">
<path d="M7 28.1504C7.22543 28.1504 7.44216 28.24 7.60156 28.3994C7.76075 28.5588 7.85059 28.7747 7.85059 29V35C7.85059 35.2253 7.76075 35.4412 7.60156 35.6006C7.44216 35.76 7.22543 35.8496 7 35.8496C6.77467 35.8495 6.55875 35.7599 6.39941 35.6006C6.2401 35.4412 6.15039 35.2254 6.15039 35V29C6.15039 28.7746 6.2401 28.5588 6.39941 28.3994C6.55875 28.2401 6.77467 28.1505 7 28.1504ZM15 22.1504C15.2254 22.1504 15.4422 22.24 15.6016 22.3994C15.7608 22.5588 15.8506 22.7747 15.8506 23V35C15.8506 35.2253 15.7608 35.4412 15.6016 35.6006C15.4422 35.76 15.2254 35.8496 15 35.8496C14.7747 35.8495 14.5588 35.7599 14.3994 35.6006C14.2401 35.4412 14.1504 35.2254 14.1504 35V23C14.1504 22.7746 14.2401 22.5588 14.3994 22.3994C14.5588 22.2401 14.7747 22.1505 15 22.1504ZM23 26.1504C23.2254 26.1504 23.4422 26.24 23.6016 26.3994C23.7608 26.5588 23.8506 26.7747 23.8506 27V35C23.8506 35.2253 23.7608 35.4412 23.6016 35.6006C23.4422 35.76 23.2254 35.8496 23 35.8496C22.7747 35.8495 22.5588 35.7599 22.3994 35.6006C22.2401 35.4412 22.1504 35.2254 22.1504 35V27C22.1504 26.7746 22.2401 26.5588 22.3994 26.3994C22.5588 26.2401 22.7747 26.1505 23 26.1504ZM31 18.1504C31.2254 18.1504 31.4422 18.24 31.6016 18.3994C31.7608 18.5588 31.8506 18.7747 31.8506 19V35C31.8506 35.2253 31.7608 35.4412 31.6016 35.6006C31.4422 35.76 31.2254 35.8496 31 35.8496C30.7747 35.8495 30.5588 35.7599 30.3994 35.6006C30.2401 35.4412 30.1504 35.2254 30.1504 35V19C30.1504 18.7746 30.2401 18.5588 30.3994 18.3994C30.5588 18.2401 30.7747 18.1505 31 18.1504ZM29 4.15039H35C35.2254 4.15039 35.4422 4.24001 35.6016 4.39941C35.7608 4.55879 35.8506 4.77473 35.8506 5V11C35.8506 11.2253 35.7608 11.4412 35.6016 11.6006C35.4422 11.76 35.2254 11.8496 35 11.8496C34.7747 11.8495 34.5588 11.7599 34.3994 11.6006C34.2401 11.4412 34.1504 11.2254 34.1504 11V7.05176L33.8945 7.30762L23.6025 17.6016V17.6025C23.5236 17.6817 23.4294 17.7443 23.3262 17.7871C23.2229 17.83 23.1118 17.8516 23 17.8516C22.8884 17.8515 22.7779 17.8298 22.6748 17.7871C22.5716 17.7443 22.4774 17.6816 22.3984 17.6025V17.6016L17.1064 12.3076L17 12.2021L16.8945 12.3076L7.60254 21.6016C7.4429 21.7612 7.22577 21.8516 7 21.8516C6.77433 21.8515 6.55801 21.7611 6.39844 21.6016C6.23888 21.4419 6.14941 21.2257 6.14941 21C6.14941 20.7743 6.23888 20.5581 6.39844 20.3984L16.3984 10.3984V10.3975C16.4774 10.3184 16.5716 10.2557 16.6748 10.2129C16.7779 10.1702 16.8884 10.1485 17 10.1484C17.1118 10.1484 17.2229 10.17 17.3262 10.2129C17.4294 10.2557 17.5236 10.3183 17.6025 10.3975V10.3984L22.8945 15.6924L23 15.7979L23.1064 15.6924L32.6924 6.10645L32.9482 5.84961H29C28.7747 5.84953 28.5588 5.75992 28.3994 5.60059C28.2401 5.44119 28.1504 5.22537 28.1504 5C28.1504 4.77463 28.2401 4.55881 28.3994 4.39941C28.5588 4.24008 28.7747 4.15047 29 4.15039Z" fill="white" stroke="#1D1C20" stroke-width="0.3"/>
</svg>
