<svg width="40" height="40" viewBox="0 0 40 40" fill="none" xmlns="http://www.w3.org/2000/svg">
<path d="M20 4.2627C24.1723 4.26766 28.1728 5.92667 31.123 8.87695C34.0733 11.8272 35.7323 15.8277 35.7373 20C35.7373 23.1126 34.8142 26.1551 33.085 28.7432C31.3557 31.3312 28.8981 33.3489 26.0225 34.54C23.1469 35.7311 19.9824 36.0428 16.9297 35.4355C13.8769 34.8283 11.073 33.3289 8.87207 31.1279C6.67114 28.927 5.17169 26.1231 4.56445 23.0703C3.95722 20.0175 4.2698 16.8532 5.46094 13.9775C6.65207 11.102 8.66889 8.64426 11.2568 6.91504C13.683 5.29392 16.5087 4.38123 19.417 4.27344L20 4.2627ZM18.9482 21.6377L8.93555 28.6484L8.76074 28.7715L8.89453 28.9375C10.1291 30.474 11.6691 31.7384 13.417 32.6494C15.1647 33.5603 17.0824 34.0984 19.0488 34.2305L19.2627 34.2451V21.417L18.9482 21.6377ZM20.7373 34.2451L20.9512 34.2305C22.9176 34.0984 24.8353 33.5603 26.583 32.6494C28.3309 31.7384 29.8709 30.474 31.1055 28.9375L31.2393 28.7715L31.0645 28.6484L21.0518 21.6377L20.7373 21.417V34.2451ZM19.0488 5.76953C16.6069 5.93297 14.248 6.72177 12.1992 8.06055C10.1504 9.39938 8.48076 11.2432 7.35059 13.4141C6.22047 15.5849 5.66782 18.0099 5.74609 20.4561C5.82441 22.9023 6.53111 25.2876 7.79785 27.3818L7.9082 27.5645L8.08301 27.4424L19.1768 19.6768L19.2627 19.6162V5.75488L19.0488 5.76953ZM20.7373 19.6162L20.8232 19.6768L31.917 27.4424L32.0918 27.5645L32.2021 27.3818C33.5537 25.1571 34.2668 22.6031 34.2627 20C34.2582 16.3834 32.8817 12.9029 30.4111 10.2617C27.9405 7.62049 24.5595 6.01516 20.9512 5.76953L20.7373 5.75488V19.6162Z" fill="white" stroke="#1D1C20" stroke-width="0.4"/>
</svg>
