<svg width="40" height="40" viewBox="0 0 40 40" fill="none" xmlns="http://www.w3.org/2000/svg">
<mask id="path-1-inside-1_1556_7217" fill="white">
<path fill-rule="evenodd" clip-rule="evenodd" d="M20.9876 38.7601L20.9693 38.7635L20.851 38.8218L20.8176 38.8285L20.7943 38.8218L20.676 38.7635C20.6582 38.7579 20.6449 38.7607 20.636 38.7718L20.6293 38.7885L20.601 39.5018L20.6093 39.5351L20.626 39.5568L20.7993 39.6801L20.8243 39.6868L20.8443 39.6801L21.0176 39.5568L21.0376 39.5301L21.0443 39.5018L21.016 38.7901C21.0115 38.7724 21.0021 38.7624 20.9876 38.7601ZM21.4293 38.5718L21.4076 38.5751L21.0993 38.7301L21.0826 38.7468L21.0776 38.7651L21.1076 39.4818L21.116 39.5018L21.1293 39.5135L21.4643 39.6685C21.4854 39.674 21.5015 39.6696 21.5126 39.6551L21.5193 39.6318L21.4626 38.6085C21.4571 38.5885 21.446 38.5763 21.4293 38.5718ZM20.2376 38.5751C20.2303 38.5707 20.2215 38.5692 20.2131 38.5711C20.2048 38.573 20.1974 38.578 20.1926 38.5851L20.1826 38.6085L20.126 39.6318C20.1271 39.6518 20.1365 39.6651 20.1543 39.6718L20.1793 39.6685L20.5143 39.5135L20.531 39.5001L20.5376 39.4818L20.566 38.7651L20.561 38.7451L20.5443 38.7285L20.2376 38.5751Z"/>
</mask>
<path fill-rule="evenodd" clip-rule="evenodd" d="M20.9876 38.7601L20.9693 38.7635L20.851 38.8218L20.8176 38.8285L20.7943 38.8218L20.676 38.7635C20.6582 38.7579 20.6449 38.7607 20.636 38.7718L20.6293 38.7885L20.601 39.5018L20.6093 39.5351L20.626 39.5568L20.7993 39.6801L20.8243 39.6868L20.8443 39.6801L21.0176 39.5568L21.0376 39.5301L21.0443 39.5018L21.016 38.7901C21.0115 38.7724 21.0021 38.7624 20.9876 38.7601ZM21.4293 38.5718L21.4076 38.5751L21.0993 38.7301L21.0826 38.7468L21.0776 38.7651L21.1076 39.4818L21.116 39.5018L21.1293 39.5135L21.4643 39.6685C21.4854 39.674 21.5015 39.6696 21.5126 39.6551L21.5193 39.6318L21.4626 38.6085C21.4571 38.5885 21.446 38.5763 21.4293 38.5718ZM20.2376 38.5751C20.2303 38.5707 20.2215 38.5692 20.2131 38.5711C20.2048 38.573 20.1974 38.578 20.1926 38.5851L20.1826 38.6085L20.126 39.6318C20.1271 39.6518 20.1365 39.6651 20.1543 39.6718L20.1793 39.6685L20.5143 39.5135L20.531 39.5001L20.5376 39.4818L20.566 38.7651L20.561 38.7451L20.5443 38.7285L20.2376 38.5751Z" fill="white"/>
<path d="M20.9876 38.7601L21.1397 37.7718L20.9738 37.7462L20.8087 37.7763L20.9876 38.7601ZM20.9693 38.7635L20.7904 37.7796L20.6527 37.8047L20.5272 37.8665L20.9693 38.7635ZM20.851 38.8218L21.0471 39.8024L21.1756 39.7767L21.2931 39.7187L20.851 38.8218ZM20.8176 38.8285L20.5429 39.79L20.776 39.8566L21.0138 39.8091L20.8176 38.8285ZM20.7943 38.8218L20.3522 39.7187L20.433 39.7586L20.5196 39.7833L20.7943 38.8218ZM20.676 38.7635L21.1181 37.8665L21.0484 37.8322L20.9743 37.809L20.676 38.7635ZM20.636 38.7718L19.8551 38.1471L19.7625 38.2628L19.7075 38.4004L20.636 38.7718ZM20.6293 38.7885L19.7008 38.4171L19.6369 38.5769L19.6301 38.7488L20.6293 38.7885ZM20.601 39.5018L19.6018 39.4621L19.5961 39.6053L19.6308 39.7443L20.601 39.5018ZM20.6093 39.5351L19.6392 39.7777L19.6897 39.9797L19.8167 40.1448L20.6093 39.5351ZM20.626 39.5568L19.8333 40.1665L19.9245 40.285L20.0462 40.3716L20.626 39.5568ZM20.7993 39.6801L20.2196 40.4949L20.3669 40.5998L20.5417 40.6464L20.7993 39.6801ZM20.8243 39.6868L20.5667 40.653L20.8562 40.7303L21.1405 40.6355L20.8243 39.6868ZM20.8443 39.6801L21.1605 40.6288L21.3023 40.5816L21.4241 40.4949L20.8443 39.6801ZM21.0176 39.5568L21.5974 40.3716L21.7242 40.2813L21.8177 40.1568L21.0176 39.5568ZM21.0376 39.5301L21.8377 40.1301L21.9632 39.9628L22.0111 39.7592L21.0376 39.5301ZM21.0443 39.5018L22.0177 39.7308L22.0489 39.5982L22.0435 39.462L21.0443 39.5018ZM21.016 38.7901L22.0152 38.7504L22.0111 38.6475L21.9861 38.5476L21.016 38.7901ZM21.4293 38.5718L21.687 37.6056L21.4845 37.5516L21.2773 37.5834L21.4293 38.5718ZM21.4076 38.5751L21.2557 37.5868L21.0996 37.6108L20.9585 37.6817L21.4076 38.5751ZM21.0993 38.7301L20.6502 37.8367L20.5062 37.9091L20.3922 38.023L21.0993 38.7301ZM21.0826 38.7468L20.3755 38.0397L20.1877 38.2275L20.1179 38.4837L21.0826 38.7468ZM21.0776 38.7651L20.1129 38.5021L20.072 38.6518L20.0785 38.807L21.0776 38.7651ZM21.1076 39.4818L20.1085 39.5236L20.116 39.7018L20.1846 39.8665L21.1076 39.4818ZM21.116 39.5018L20.1929 39.8865L20.2824 40.1012L20.4575 40.2544L21.116 39.5018ZM21.1293 39.5135L20.4708 40.2661L20.579 40.3607L20.7094 40.421L21.1293 39.5135ZM21.4643 39.6685L21.0444 40.576L21.1245 40.6131L21.2098 40.6355L21.4643 39.6685ZM21.5126 39.6551L22.3053 40.2648L22.4217 40.1135L22.4742 39.9298L21.5126 39.6551ZM21.5193 39.6318L22.4808 39.9065L22.5271 39.7446L22.5178 39.5765L21.5193 39.6318ZM21.4626 38.6085L22.4611 38.5532L22.4551 38.4451L22.4262 38.3408L21.4626 38.6085ZM20.2376 38.5751L19.7194 39.4303L19.7541 39.4514L19.7904 39.4696L20.2376 38.5751ZM20.1926 38.5851L19.3609 38.0299L19.3098 38.1065L19.2735 38.1912L20.1926 38.5851ZM20.1826 38.6085L19.2635 38.2145L19.1939 38.3768L19.1842 38.5532L20.1826 38.6085ZM20.126 39.6318L19.1275 39.5765L19.1244 39.6319L19.1275 39.6873L20.126 39.6318ZM20.1543 39.6718L19.8032 40.6081L20.038 40.6962L20.2865 40.663L20.1543 39.6718ZM20.1793 39.6685L20.3115 40.6597L20.4617 40.6397L20.5992 40.576L20.1793 39.6685ZM20.5143 39.5135L20.9342 40.421L21.0443 40.3701L21.139 40.2944L20.5143 39.5135ZM20.531 39.5001L21.1556 40.281L21.3748 40.1057L21.4708 39.8419L20.531 39.5001ZM20.5376 39.4818L21.4774 39.8235L21.5307 39.6771L21.5369 39.5213L20.5376 39.4818ZM20.566 38.7651L21.5652 38.8046L21.5709 38.6615L21.5361 38.5226L20.566 38.7651ZM20.561 38.7451L21.5311 38.5026L21.4639 38.2339L21.2681 38.038L20.561 38.7451ZM20.5443 38.7285L21.2514 38.0214L21.1367 37.9066L20.9915 37.834L20.5443 38.7285ZM20.9876 38.7601L20.8087 37.7763L20.7904 37.7796L20.9693 38.7635L21.1483 39.7473L21.1666 39.744L20.9876 38.7601ZM20.9693 38.7635L20.5272 37.8665L20.4088 37.9249L20.851 38.8218L21.2931 39.7187L21.4115 39.6604L20.9693 38.7635ZM20.851 38.8218L20.6549 37.8412L20.6215 37.8479L20.8176 38.8285L21.0138 39.8091L21.0471 39.8024L20.851 38.8218ZM20.8176 38.8285L21.0923 37.8669L21.069 37.8603L20.7943 38.8218L20.5196 39.7833L20.5429 39.79L20.8176 38.8285ZM20.7943 38.8218L21.2365 37.9249L21.1181 37.8665L20.676 38.7635L20.2338 39.6604L20.3522 39.7187L20.7943 38.8218ZM20.676 38.7635L20.9743 37.809C20.8599 37.7733 20.6723 37.7358 20.4487 37.7824C20.2036 37.8335 19.9978 37.9688 19.8551 38.1471L20.636 38.7718L21.4168 39.3965C21.283 39.5637 21.0883 39.6921 20.8565 39.7404C20.6463 39.7842 20.4743 39.7481 20.3777 39.718L20.676 38.7635ZM20.636 38.7718L19.7075 38.4004L19.7008 38.4171L20.6293 38.7885L21.5578 39.1598L21.5645 39.1432L20.636 38.7718ZM20.6293 38.7885L19.6301 38.7488L19.6018 39.4621L20.601 39.5018L21.6002 39.5415L21.6285 38.8282L20.6293 38.7885ZM20.601 39.5018L19.6308 39.7443L19.6392 39.7777L20.6093 39.5351L21.5795 39.2926L21.5711 39.2593L20.601 39.5018ZM20.6093 39.5351L19.8167 40.1448L19.8333 40.1665L20.626 39.5568L21.4186 38.9471L21.4019 38.9254L20.6093 39.5351ZM20.626 39.5568L20.0462 40.3716L20.2196 40.4949L20.7993 39.6801L21.3791 38.8653L21.2057 38.742L20.626 39.5568ZM20.7993 39.6801L20.5417 40.6464L20.5667 40.653L20.8243 39.6868L21.0819 38.7206L21.0569 38.7139L20.7993 39.6801ZM20.8243 39.6868L21.1405 40.6355L21.1605 40.6288L20.8443 39.6801L20.5281 38.7314L20.5081 38.7381L20.8243 39.6868ZM20.8443 39.6801L21.4241 40.4949L21.5974 40.3716L21.0176 39.5568L20.4379 38.742L20.2646 38.8653L20.8443 39.6801ZM21.0176 39.5568L21.8177 40.1568L21.8377 40.1301L21.0376 39.5301L20.2376 38.9302L20.2176 38.9568L21.0176 39.5568ZM21.0376 39.5301L22.0111 39.7592L22.0177 39.7308L21.0443 39.5018L20.0709 39.2728L20.0642 39.3011L21.0376 39.5301ZM21.0443 39.5018L22.0435 39.462L22.0152 38.7504L21.016 38.7901L20.0168 38.8299L20.0451 39.5416L21.0443 39.5018ZM21.016 38.7901L21.9861 38.5476C21.9556 38.4257 21.8878 38.2471 21.7326 38.0827C21.5652 37.9054 21.3521 37.8044 21.1397 37.7718L20.9876 38.7601L20.8356 39.7485C20.6376 39.7181 20.4365 39.6232 20.2785 39.4559C20.1327 39.3015 20.0719 39.1368 20.0458 39.0327L21.016 38.7901ZM21.4293 38.5718L21.2773 37.5834L21.2557 37.5868L21.4076 38.5751L21.5596 39.5635L21.5813 39.5602L21.4293 38.5718ZM21.4076 38.5751L20.9585 37.6817L20.6502 37.8367L21.0993 38.7301L21.5485 39.6236L21.8568 39.4686L21.4076 38.5751ZM21.0993 38.7301L20.3922 38.023L20.3755 38.0397L21.0826 38.7468L21.7897 39.4539L21.8064 39.4372L21.0993 38.7301ZM21.0826 38.7468L20.1179 38.4837L20.1129 38.5021L21.0776 38.7651L22.0424 39.0282L22.0474 39.0099L21.0826 38.7468ZM21.0776 38.7651L20.0785 38.807L20.1085 39.5236L21.1076 39.4818L22.1068 39.44L22.0768 38.7233L21.0776 38.7651ZM21.1076 39.4818L20.1846 39.8665L20.1929 39.8865L21.116 39.5018L22.039 39.1172L22.0307 39.0972L21.1076 39.4818ZM21.116 39.5018L20.4575 40.2544L20.4708 40.2661L21.1293 39.5135L21.7878 38.7609L21.7745 38.7492L21.116 39.5018ZM21.1293 39.5135L20.7094 40.421L21.0444 40.576L21.4643 39.6685L21.8842 38.7609L21.5492 38.6059L21.1293 39.5135ZM21.4643 39.6685L21.2098 40.6355C21.3401 40.6698 21.5355 40.6947 21.7581 40.6333C21.9948 40.568 22.1799 40.4278 22.3053 40.2648L21.5126 39.6551L20.72 39.0454C20.8342 38.8969 21.0058 38.7661 21.2263 38.7053C21.4329 38.6483 21.6096 38.6727 21.7188 38.7014L21.4643 39.6685ZM21.5126 39.6551L22.4742 39.9298L22.4808 39.9065L21.5193 39.6318L20.5578 39.3571L20.5511 39.3804L21.5126 39.6551ZM21.5193 39.6318L22.5178 39.5765L22.4611 38.5532L21.4626 38.6085L20.4642 38.6638L20.5208 39.6871L21.5193 39.6318ZM21.4626 38.6085L22.4262 38.3408C22.3484 38.0609 22.1207 37.7212 21.687 37.6056L21.4293 38.5718L21.1716 39.538C21.003 39.4931 20.8398 39.3995 20.7102 39.257C20.5871 39.1216 20.5277 38.979 20.4991 38.8761L21.4626 38.6085ZM20.2376 38.5751L20.7559 37.7199C20.5281 37.5819 20.256 37.5372 19.9962 37.5949L20.2131 38.5711L20.4301 39.5473C20.1871 39.6013 19.9325 39.5595 19.7194 39.4303L20.2376 38.5751ZM20.2131 38.5711L19.9962 37.5949C19.7364 37.6527 19.5088 37.8084 19.3609 38.0299L20.1926 38.5851L21.0244 39.1403C20.886 39.3475 20.6731 39.4933 20.4301 39.5473L20.2131 38.5711ZM20.1926 38.5851L19.2735 38.1912L19.2635 38.2145L20.1826 38.6085L21.1018 39.0024L21.1118 38.9791L20.1926 38.5851ZM20.1826 38.6085L19.1842 38.5532L19.1275 39.5765L20.126 39.6318L21.1244 39.6871L21.1811 38.6638L20.1826 38.6085ZM20.126 39.6318L19.1275 39.6873C19.1361 39.8426 19.1821 40.0432 19.3179 40.2348C19.4561 40.4299 19.6381 40.5462 19.8032 40.6081L20.1543 39.6718L20.5054 38.7355C20.6527 38.7907 20.8212 38.897 20.9499 39.0788C21.0762 39.2571 21.1169 39.441 21.1244 39.5763L20.126 39.6318ZM20.1543 39.6718L20.2865 40.663L20.3115 40.6597L20.1793 39.6685L20.0471 38.6773L20.0221 38.6806L20.1543 39.6718ZM20.1793 39.6685L20.5992 40.576L20.9342 40.421L20.5143 39.5135L20.0944 38.6059L19.7594 38.7609L20.1793 39.6685ZM20.5143 39.5135L21.139 40.2944L21.1556 40.281L20.531 39.5001L19.9063 38.7192L19.8897 38.7326L20.5143 39.5135ZM20.531 39.5001L21.4708 39.8419L21.4774 39.8235L20.5376 39.4818L19.5978 39.1401L19.5912 39.1584L20.531 39.5001ZM20.5376 39.4818L21.5369 39.5213L21.5652 38.8046L20.566 38.7651L19.5668 38.7256L19.5384 39.4423L20.5376 39.4818ZM20.566 38.7651L21.5361 38.5226L21.5311 38.5026L20.561 38.7451L19.5908 38.9877L19.5958 39.0077L20.566 38.7651ZM20.561 38.7451L21.2681 38.038L21.2514 38.0214L20.5443 38.7285L19.8372 39.4356L19.8539 39.4522L20.561 38.7451ZM20.5443 38.7285L20.9915 37.834L20.6849 37.6807L20.2376 38.5751L19.7904 39.4696L20.0971 39.6229L20.5443 38.7285Z" fill="#1D1C20" mask="url(#path-1-inside-1_1556_7217)"/>
<path d="M16.5684 4.10449C16.9113 4.06694 17.258 4.09442 17.5898 4.18555L17.7314 4.22852L30.8652 8.60742C31.4088 8.7889 31.8816 9.13669 32.2168 9.60156C32.552 10.0665 32.733 10.625 32.7334 11.1982V33.9316H35C35.2828 33.9317 35.554 34.0442 35.7539 34.2441C35.9538 34.4442 36.0664 34.7152 36.0664 34.998C36.0664 35.2809 35.9538 35.5519 35.7539 35.752C35.554 35.9519 35.2828 36.0644 35 36.0645H5C4.7171 36.0645 4.44516 35.952 4.24512 35.752C4.0453 35.5519 3.93262 35.2808 3.93262 34.998C3.93263 34.7153 4.04528 34.4441 4.24512 34.2441C4.44516 34.0441 4.7171 33.9316 5 33.9316H7.2666V10.9414C7.2666 10.4694 7.38855 10.0055 7.62109 9.59473C7.85365 9.18398 8.18901 8.8405 8.59375 8.59766L15.46 4.47754C15.7982 4.27467 16.1763 4.14743 16.5684 4.10449ZM9.69141 10.4268L9.39941 10.6016V33.9316H15.5996V6.88184L9.69141 10.4268ZM30.5996 10.7656L30.1895 10.6289L18.5225 6.74219L17.7334 6.47949V33.9316H30.5996V10.7656Z" fill="white" stroke="#1D1C20" stroke-width="1.2"/>
</svg>
