<svg width="48" height="48" viewBox="0 0 48 48" fill="none" xmlns="http://www.w3.org/2000/svg">
<path d="M19.4286 42.2849H28.5715M24.0001 5.71345V3.42773M35.4286 10.2849L37.7144 7.99916M12.5715 10.2849L10.2858 7.99916M35.4286 30.8563L37.7144 33.142M12.5715 30.8563L10.2858 33.142M8.00007 19.4277H5.71436M42.2858 19.4277H40.0001M24.0001 11.4277C26.3208 11.4263 28.5738 12.2097 30.3929 13.6507C32.2121 15.0917 33.4905 17.1055 34.0204 19.3649C34.5503 21.6243 34.3005 23.9965 33.3117 26.096C32.3229 28.1955 30.6531 29.8989 28.5738 30.9294L28.5715 33.142C28.5715 34.3544 28.0899 35.5172 27.2326 36.3745C26.3752 37.2318 25.2125 37.7135 24.0001 37.7135C22.7877 37.7135 21.6249 37.2318 20.7676 36.3745C19.9103 35.5172 19.4286 34.3544 19.4286 33.142V30.9294C17.3495 29.899 15.6798 28.1958 14.691 26.0965C13.7021 23.9972 13.4522 21.6253 13.9818 19.366C14.5114 17.1067 15.7894 15.0929 17.6082 13.6518C19.4269 12.2106 21.6796 11.4268 24.0001 11.4277Z" stroke="#1B1A1F" stroke-linecap="round" stroke-linejoin="round"/>
</svg>
