<svg width="48" height="48" viewBox="0 0 48 48" fill="none" xmlns="http://www.w3.org/2000/svg">
<path d="M31.689 15.1561C31.596 15.0627 31.4856 14.9885 31.3639 14.9378C31.2423 14.8871 31.1119 14.8608 30.9801 14.8606C30.8483 14.8603 30.7178 14.886 30.5959 14.9362C30.4741 14.9864 30.3633 15.0601 30.27 15.1531L30.267 15.1561L29.451 15.9721C26.596 13.1171 20.564 10.9221 16.606 12.5141C15.023 13.1511 15.501 14.3701 17.004 14.4491C20.774 14.6501 24.354 16.8141 26.635 18.7891L12.57 32.8521C12.3919 33.0209 12.2496 33.2237 12.1512 33.4484C12.0528 33.6732 12.0005 33.9154 11.9972 34.1607C11.994 34.406 12.0399 34.6495 12.1323 34.8767C12.2247 35.104 12.3616 35.3105 12.5351 35.4839C12.7086 35.6574 12.9151 35.7944 13.1423 35.8868C13.3696 35.9792 13.6131 36.0251 13.8584 36.0218C14.1037 36.0186 14.3459 35.9662 14.5706 35.8679C14.7954 35.7695 14.9981 35.6271 15.167 35.4491L29.237 21.3811C31.08 23.4591 33.113 25.8581 33.733 29.1841C33.859 29.8571 34.003 31.2731 34.817 31.3701C35.282 31.4261 35.605 30.8701 35.75 30.4141C36.68 27.4771 34.92 21.4061 32.05 18.5691L32.865 17.7531C32.9585 17.6601 33.0328 17.5496 33.0836 17.4279C33.1344 17.3062 33.1607 17.1756 33.161 17.0437C33.1613 16.9118 33.1355 16.7812 33.0853 16.6592C33.035 16.5373 32.9611 16.4265 32.868 16.3331L32.865 16.3311L31.689 15.1561Z" stroke="#1B1A1F" stroke-linecap="round" stroke-linejoin="round"/>
<path d="M38.5 5.5H9.5C7.29086 5.5 5.5 7.29086 5.5 9.5V38.5C5.5 40.7091 7.29086 42.5 9.5 42.5H38.5C40.7091 42.5 42.5 40.7091 42.5 38.5V9.5C42.5 7.29086 40.7091 5.5 38.5 5.5Z" stroke="#1B1A1F" stroke-linecap="round" stroke-linejoin="round"/>
</svg>
