<svg width="48" height="48" viewBox="0 0 48 48" fill="none" xmlns="http://www.w3.org/2000/svg">
<path d="M40.5 21.8142V14.5442C40.5 12.8862 39.234 11.5022 37.594 11.2562C35.692 10.9722 33.234 10.5042 31.438 9.81218C29.624 9.11418 27.444 7.79818 25.914 6.80218C25.344 6.43285 24.6792 6.23633 24 6.23633C23.3208 6.23633 22.656 6.43285 22.086 6.80218C20.558 7.79818 18.376 9.11418 16.562 9.81218C14.764 10.5042 12.308 10.9722 10.406 11.2562C8.766 11.5022 7.5 12.8862 7.5 14.5442V21.8142C7.49973 25.4865 8.49758 29.0897 10.3869 32.2388C12.2761 35.3878 14.9857 37.9641 18.226 39.6922L18.686 39.9382L22.61 41.8302C23.0435 42.0393 23.5187 42.1478 24 42.1478C24.4813 42.1478 24.9565 42.0393 25.39 41.8302L29.312 39.9382L29.772 39.6922C33.0126 37.9643 35.7227 35.3881 37.6123 32.2391C39.5019 29.0901 40.5001 25.4867 40.5 21.8142Z" stroke="#1B1A1F" stroke-linecap="round" stroke-linejoin="round"/>
<path d="M31.0179 20L22.8659 28.152C22.7545 28.2636 22.6221 28.3521 22.4765 28.4125C22.3308 28.4729 22.1746 28.5039 22.0169 28.5039C21.8592 28.5039 21.7031 28.4729 21.5574 28.4125C21.4117 28.3521 21.2794 28.2636 21.1679 28.152L16.9819 23.972" stroke="#1B1A1F" stroke-linecap="round" stroke-linejoin="round"/>
</svg>
