<svg width="32" height="32" viewBox="0 0 32 32" fill="none" xmlns="http://www.w3.org/2000/svg">
<mask id="path-1-inside-1_465_2126" fill="white">
<path d="M10.7766 3.12713L9.71956 3.45122C8.77833 3.74009 7.93778 4.2966 7.29683 5.05523C6.65588 5.81386 6.24121 6.74305 6.10162 7.73343C5.66376 10.8363 6.64269 14.4643 9.00305 18.625C11.3575 22.7752 13.9493 25.449 16.8021 26.6193C17.7187 26.9953 18.7221 27.0954 19.6931 26.9079C20.664 26.7204 21.5616 26.2531 22.2791 25.5615L23.0782 24.7903C23.5971 24.2905 23.92 23.616 23.987 22.8921C24.054 22.1682 23.8605 21.4442 23.4424 20.8547L21.4432 18.0339C21.1729 17.653 20.7923 17.3678 20.3548 17.2182C19.9172 17.0686 19.4446 17.0621 19.0032 17.1996L15.9794 18.1404L15.9013 18.1554C15.5681 18.2049 14.7985 17.4712 13.8402 15.7817C12.8377 14.0142 12.6313 12.9804 12.907 12.7133L14.4447 11.2534C15.0065 10.7196 15.3902 10.0204 15.5422 9.25363C15.6942 8.48689 15.6069 7.69096 15.2924 6.97722L14.3164 4.77009C14.023 4.10592 13.5022 3.57302 12.8512 3.27073C12.2002 2.96845 11.4619 2.91741 10.7766 3.12713ZM12.9748 5.38527L13.9479 7.59239C14.1367 8.02049 14.1893 8.49795 14.0984 8.95799C14.0075 9.41803 13.7775 9.83764 13.4407 10.1581L11.8986 11.6195C10.9108 12.5708 11.2381 14.1943 12.565 16.5319C13.8122 18.7316 14.9504 19.8179 16.1741 19.6288L16.3569 19.5898L19.4352 18.634C19.5824 18.588 19.74 18.5901 19.8859 18.6398C20.0319 18.6896 20.1588 18.7847 20.249 18.9116L22.2482 21.7324C22.4575 22.0272 22.5545 22.3893 22.5212 22.7514C22.4878 23.1135 22.3264 23.4509 22.0668 23.701L21.2663 24.4722C20.7537 24.9659 20.1127 25.2994 19.4194 25.4332C18.726 25.567 18.0095 25.4954 17.355 25.2269C14.8516 24.2006 12.4854 21.7594 10.2813 17.8748C8.07129 13.9812 7.17639 10.6698 7.56118 7.94649C7.66079 7.23894 7.95696 6.57507 8.41483 6.03307C8.8727 5.49106 9.4732 5.09348 10.1456 4.88712L11.2027 4.56303C11.5454 4.45823 11.9139 4.48385 12.2394 4.63514C12.5649 4.78643 12.8253 5.05304 12.9719 5.38527"/>
</mask>
<path d="M10.7766 3.12713L9.71956 3.45122C8.77833 3.74009 7.93778 4.2966 7.29683 5.05523C6.65588 5.81386 6.24121 6.74305 6.10162 7.73343C5.66376 10.8363 6.64269 14.4643 9.00305 18.625C11.3575 22.7752 13.9493 25.449 16.8021 26.6193C17.7187 26.9953 18.7221 27.0954 19.6931 26.9079C20.664 26.7204 21.5616 26.2531 22.2791 25.5615L23.0782 24.7903C23.5971 24.2905 23.92 23.616 23.987 22.8921C24.054 22.1682 23.8605 21.4442 23.4424 20.8547L21.4432 18.0339C21.1729 17.653 20.7923 17.3678 20.3548 17.2182C19.9172 17.0686 19.4446 17.0621 19.0032 17.1996L15.9794 18.1404L15.9013 18.1554C15.5681 18.2049 14.7985 17.4712 13.8402 15.7817C12.8377 14.0142 12.6313 12.9804 12.907 12.7133L14.4447 11.2534C15.0065 10.7196 15.3902 10.0204 15.5422 9.25363C15.6942 8.48689 15.6069 7.69096 15.2924 6.97722L14.3164 4.77009C14.023 4.10592 13.5022 3.57302 12.8512 3.27073C12.2002 2.96845 11.4619 2.91741 10.7766 3.12713ZM12.9748 5.38527L13.9479 7.59239C14.1367 8.02049 14.1893 8.49795 14.0984 8.95799C14.0075 9.41803 13.7775 9.83764 13.4407 10.1581L11.8986 11.6195C10.9108 12.5708 11.2381 14.1943 12.565 16.5319C13.8122 18.7316 14.9504 19.8179 16.1741 19.6288L16.3569 19.5898L19.4352 18.634C19.5824 18.588 19.74 18.5901 19.8859 18.6398C20.0319 18.6896 20.1588 18.7847 20.249 18.9116L22.2482 21.7324C22.4575 22.0272 22.5545 22.3893 22.5212 22.7514C22.4878 23.1135 22.3264 23.4509 22.0668 23.701L21.2663 24.4722C20.7537 24.9659 20.1127 25.2994 19.4194 25.4332C18.726 25.567 18.0095 25.4954 17.355 25.2269C14.8516 24.2006 12.4854 21.7594 10.2813 17.8748C8.07129 13.9812 7.17639 10.6698 7.56118 7.94649C7.66079 7.23894 7.95696 6.57507 8.41483 6.03307C8.8727 5.49106 9.4732 5.09348 10.1456 4.88712L11.2027 4.56303C11.5454 4.45823 11.9139 4.48385 12.2394 4.63514C12.5649 4.78643 12.8253 5.05304 12.9719 5.38527" fill="#2C2C2C"/>
<path d="M10.7766 3.12713L10.6888 2.84026L10.6887 2.8403L10.7766 3.12713ZM9.71956 3.45122L9.63162 3.16439L9.63154 3.16442L9.71956 3.45122ZM6.10162 7.73343L6.39868 7.77535L6.39869 7.7753L6.10162 7.73343ZM9.00305 18.625L8.74212 18.7731L8.74212 18.7731L9.00305 18.625ZM16.8021 26.6193L16.6882 26.8968L16.6883 26.8968L16.8021 26.6193ZM22.2791 25.5615L22.4873 25.7775L22.4875 25.7773L22.2791 25.5615ZM23.0782 24.7903L22.8701 24.5742L22.8699 24.5744L23.0782 24.7903ZM23.4424 20.8547L23.1976 21.0281L23.1977 21.0282L23.4424 20.8547ZM21.4432 18.0339L21.688 17.8604L21.6879 17.8602L21.4432 18.0339ZM19.0032 17.1996L19.0924 17.4861L19.0925 17.486L19.0032 17.1996ZM15.9794 18.1404L16.036 18.435L16.0525 18.4318L16.0686 18.4268L15.9794 18.1404ZM15.9013 18.1554L15.9454 18.4524L15.9579 18.45L15.9013 18.1554ZM13.8402 15.7817L13.5793 15.9297L13.5793 15.9297L13.8402 15.7817ZM12.907 12.7133L12.7004 12.4958L12.6983 12.4979L12.907 12.7133ZM14.4447 11.2534L14.6513 11.471L14.6514 11.4709L14.4447 11.2534ZM15.2924 6.97722L15.567 6.85627L15.5668 6.85589L15.2924 6.97722ZM14.3164 4.77009L14.042 4.89134L14.0421 4.89142L14.3164 4.77009ZM13.9479 7.59239L13.6734 7.71341L13.6734 7.71347L13.9479 7.59239ZM13.4407 10.1581L13.6471 10.3759L13.6475 10.3755L13.4407 10.1581ZM11.8986 11.6195L11.6922 11.4018L11.6905 11.4034L11.8986 11.6195ZM12.565 16.5319L12.8259 16.384L12.8259 16.3838L12.565 16.5319ZM16.1741 19.6288L16.2199 19.9253L16.2283 19.924L16.2367 19.9222L16.1741 19.6288ZM16.3569 19.5898L16.4195 19.8832L16.4328 19.8803L16.4458 19.8763L16.3569 19.5898ZM19.4352 18.634L19.5242 18.9205L19.5247 18.9204L19.4352 18.634ZM20.249 18.9116L20.4938 18.7381L20.4936 18.7379L20.249 18.9116ZM22.2482 21.7324L22.0034 21.9059L22.0036 21.9061L22.2482 21.7324ZM22.0668 23.701L22.275 23.917L22.275 23.917L22.0668 23.701ZM21.2663 24.4722L21.4744 24.6883L21.4744 24.6882L21.2663 24.4722ZM17.355 25.2269L17.4688 24.9493L17.4688 24.9493L17.355 25.2269ZM10.2813 17.8748L10.5422 17.7268L10.5422 17.7267L10.2813 17.8748ZM7.56118 7.94649L7.85823 7.98846L7.85825 7.98831L7.56118 7.94649ZM10.1456 4.88712L10.0577 4.6003L10.0576 4.60032L10.1456 4.88712ZM11.2027 4.56303L11.115 4.27615L11.1148 4.27621L11.2027 4.56303ZM10.7766 3.12713L10.6887 2.8403L9.63162 3.16439L9.71956 3.45122L9.8075 3.73804L10.8646 3.41395L10.7766 3.12713ZM9.71956 3.45122L9.63154 3.16442C8.6348 3.47033 7.74541 4.05944 7.06767 4.86162L7.29683 5.05523L7.52599 5.24884C8.13015 4.53376 8.92187 4.00985 9.80758 3.73801L9.71956 3.45122ZM7.29683 5.05523L7.06767 4.86162C6.38997 5.66375 5.95197 6.64564 5.80456 7.69156L6.10162 7.73343L6.39869 7.7753C6.53044 6.84047 6.92179 5.96398 7.52599 5.24884L7.29683 5.05523ZM6.10162 7.73343L5.80457 7.69151C5.35359 10.8873 6.36598 14.5846 8.74212 18.7731L9.00305 18.625L9.26399 18.477C6.91941 14.3441 5.97392 10.7853 6.39868 7.77535L6.10162 7.73343ZM9.00305 18.625L8.74212 18.7731C11.112 22.9504 13.7467 25.6901 16.6882 26.8968L16.8021 26.6193L16.916 26.3417C14.152 25.2078 11.603 22.6 9.26398 18.477L9.00305 18.625ZM16.8021 26.6193L16.6883 26.8968C17.6588 27.2949 18.7216 27.4011 19.75 27.2025L19.6931 26.9079L19.6362 26.6134C18.7227 26.7898 17.7786 26.6956 16.916 26.3417L16.8021 26.6193ZM19.6931 26.9079L19.75 27.2025C20.7783 27.0039 21.7284 26.509 22.4873 25.7775L22.2791 25.5615L22.071 25.3455C21.3948 25.9971 20.5497 26.4369 19.6362 26.6134L19.6931 26.9079ZM22.2791 25.5615L22.4875 25.7773L23.2866 25.0061L23.0782 24.7903L22.8699 24.5744L22.0708 25.3456L22.2791 25.5615ZM23.0782 24.7903L23.2863 25.0063C23.8575 24.4561 24.2122 23.7145 24.2857 22.9197L23.987 22.8921L23.6883 22.8645C23.6279 23.5174 23.3366 24.1248 22.8701 24.5742L23.0782 24.7903ZM23.987 22.8921L24.2857 22.9197C24.3593 22.125 24.1469 21.3295 23.6871 20.6811L23.4424 20.8547L23.1977 21.0282C23.574 21.5589 23.7487 22.2115 23.6883 22.8645L23.987 22.8921ZM23.4424 20.8547L23.6871 20.6812L21.688 17.8604L21.4432 18.0339L21.1985 18.2073L23.1976 21.0281L23.4424 20.8547ZM21.4432 18.0339L21.6879 17.8602C21.3815 17.4286 20.9496 17.1045 20.4518 16.9344L20.3548 17.2182L20.2577 17.5021C20.6351 17.6311 20.9643 17.8774 21.1986 18.2075L21.4432 18.0339ZM20.3548 17.2182L20.4518 16.9344C19.954 16.7642 19.4162 16.7568 18.914 16.9132L19.0032 17.1996L19.0925 17.486C19.473 17.3675 19.8804 17.3731 20.2577 17.5021L20.3548 17.2182ZM19.0032 17.1996L18.9141 16.9132L15.8903 17.8539L15.9794 18.1404L16.0686 18.4268L19.0924 17.4861L19.0032 17.1996ZM15.9794 18.1404L15.9229 17.8458L15.8447 17.8608L15.9013 18.1554L15.9579 18.45L16.036 18.435L15.9794 18.1404ZM15.9013 18.1554L15.8572 17.8586C15.8868 17.8543 15.8558 17.8697 15.7384 17.7924C15.6329 17.7229 15.4945 17.6025 15.327 17.4186C14.9932 17.0523 14.5738 16.4669 14.1012 15.6337L13.8402 15.7817L13.5793 15.9297C14.065 16.786 14.5095 17.4122 14.8834 17.8227C15.0697 18.0272 15.2461 18.1866 15.4085 18.2935C15.5591 18.3927 15.7493 18.4813 15.9454 18.4521L15.9013 18.1554ZM13.8402 15.7817L14.1012 15.6337C13.6062 14.7611 13.3167 14.0846 13.1833 13.6046C13.1164 13.3636 13.0926 13.1855 13.0955 13.0638C13.0984 12.9346 13.1295 12.9154 13.1157 12.9288L12.907 12.7133L12.6983 12.4979C12.5466 12.6448 12.5001 12.855 12.4956 13.0499C12.4909 13.2524 12.5297 13.4933 12.6052 13.7652C12.7568 14.3107 13.0717 15.0348 13.5793 15.9297L13.8402 15.7817ZM12.907 12.7133L13.1136 12.9309L14.6513 11.471L14.4447 11.2534L14.2381 11.0359L12.7004 12.4958L12.907 12.7133ZM14.4447 11.2534L14.6514 11.4709C15.2585 10.8939 15.6725 10.139 15.8364 9.31197L15.5422 9.25363L15.2479 9.1953C15.1078 9.90179 14.7544 10.5452 14.238 11.036L14.4447 11.2534ZM15.5422 9.25363L15.8364 9.31197C16.0004 8.485 15.9063 7.62647 15.567 6.85627L15.2924 6.97722L15.0179 7.09816C15.3074 7.75545 15.388 8.48878 15.2479 9.1953L15.5422 9.25363ZM15.2924 6.97722L15.5668 6.85589L14.5908 4.64876L14.3164 4.77009L14.0421 4.89142L15.0181 7.09854L15.2924 6.97722ZM14.3164 4.77009L14.5908 4.64884C14.2683 3.91894 13.6954 3.33197 12.9775 2.99864L12.8512 3.27073L12.7248 3.54283C13.309 3.81407 13.7776 4.29289 14.042 4.89134L14.3164 4.77009ZM12.8512 3.27073L12.9775 2.99864C12.2595 2.66523 11.4449 2.60886 10.6888 2.84026L10.7766 3.12713L10.8644 3.41399C11.4788 3.22596 12.1408 3.27167 12.7248 3.54283L12.8512 3.27073ZM12.9748 5.38527L12.7003 5.50629L13.6734 7.71341L13.9479 7.59239L14.2224 7.47137L13.2493 5.26425L12.9748 5.38527ZM13.9479 7.59239L13.6734 7.71347C13.8373 8.08513 13.8831 8.5 13.8041 8.89982L14.0984 8.95799L14.3927 9.01617C14.4955 8.4959 14.4361 7.95585 14.2223 7.47132L13.9479 7.59239ZM14.0984 8.95799L13.8041 8.89982C13.7251 9.2996 13.5254 9.66344 13.2339 9.94079L13.4407 10.1581L13.6475 10.3755C14.0296 10.0118 14.2899 9.53646 14.3927 9.01617L14.0984 8.95799ZM13.4407 10.1581L13.2343 9.94036L11.6922 11.4018L11.8986 11.6195L12.1049 11.8373L13.6471 10.3759L13.4407 10.1581ZM11.8986 11.6195L11.6905 11.4034C11.1076 11.9648 10.9328 12.7168 11.0672 13.6009C11.1997 14.4724 11.6347 15.5008 12.3041 16.68L12.565 16.5319L12.8259 16.3838C12.1683 15.2254 11.7763 14.2732 11.6604 13.5107C11.5464 12.7609 11.7018 12.2256 12.1067 11.8356L11.8986 11.6195ZM12.565 16.5319L12.304 16.6799C12.9335 17.7901 13.5494 18.6455 14.18 19.2012C14.8162 19.7618 15.4927 20.0376 16.2199 19.9253L16.1741 19.6288L16.1283 19.3323C15.6317 19.409 15.1274 19.2363 14.5767 18.751C14.0205 18.2609 13.4437 17.4734 12.8259 16.384L12.565 16.5319ZM16.1741 19.6288L16.2367 19.9222L16.4195 19.8832L16.3569 19.5898L16.2943 19.2964L16.1114 19.3354L16.1741 19.6288ZM16.3569 19.5898L16.4458 19.8763L19.5242 18.9205L19.4352 18.634L19.3463 18.3475L16.2679 19.3033L16.3569 19.5898ZM19.4352 18.634L19.5247 18.9204C19.6111 18.8934 19.7034 18.8946 19.7891 18.9238L19.8859 18.6398L19.9828 18.3559C19.7765 18.2856 19.5537 18.2827 19.3457 18.3477L19.4352 18.634ZM19.8859 18.6398L19.7891 18.9238C19.8748 18.953 19.9503 19.0092 20.0045 19.0854L20.249 18.9116L20.4936 18.7379C20.3673 18.5601 20.1889 18.4262 19.9828 18.3559L19.8859 18.6398ZM20.249 18.9116L20.0043 19.0851L22.0034 21.9059L22.2482 21.7324L22.4929 21.5589L20.4938 18.7381L20.249 18.9116ZM22.2482 21.7324L22.0036 21.9061C22.1712 22.142 22.2493 22.4327 22.2224 22.7239L22.5212 22.7514L22.8199 22.7789C22.8598 22.3459 22.7439 21.9123 22.4928 21.5587L22.2482 21.7324ZM22.5212 22.7514L22.2224 22.7239C22.1956 23.015 22.0659 23.2853 21.8587 23.4849L22.0668 23.701L22.275 23.917C22.5869 23.6165 22.78 23.212 22.8199 22.7789L22.5212 22.7514ZM22.0668 23.701L21.8587 23.4849L21.0582 24.2561L21.2663 24.4722L21.4744 24.6882L22.275 23.917L22.0668 23.701ZM21.2663 24.4722L21.0582 24.2561C20.5871 24.7099 19.9985 25.0159 19.3625 25.1386L19.4194 25.4332L19.4762 25.7278C20.227 25.5829 20.9204 25.2218 21.4744 24.6883L21.2663 24.4722ZM19.4194 25.4332L19.3625 25.1386C18.7266 25.2613 18.0694 25.1957 17.4688 24.9493L17.355 25.2269L17.2411 25.5044C17.9496 25.795 18.7254 25.8726 19.4762 25.7278L19.4194 25.4332ZM17.355 25.2269L17.4688 24.9493C15.0558 23.9601 12.7322 21.5866 10.5422 17.7268L10.2813 17.8748L10.0203 18.0229C12.2385 21.9322 14.6474 24.4411 17.2412 25.5045L17.355 25.2269ZM10.2813 17.8748L10.5422 17.7267C8.34663 13.8586 7.48682 10.6171 7.85823 7.98846L7.56118 7.94649L7.26413 7.90452C6.86597 10.7225 7.79595 14.1039 10.0204 18.0229L10.2813 17.8748ZM7.56118 7.94649L7.85825 7.98831C7.95004 7.33632 8.22289 6.72516 8.64401 6.22666L8.41483 6.03307L8.18566 5.83947C7.69104 6.42498 7.37154 7.14156 7.26411 7.90467L7.56118 7.94649ZM8.41483 6.03307L8.64401 6.22666C9.06508 5.72821 9.61674 5.36324 10.2336 5.17392L10.1456 4.88712L10.0576 4.60032C9.32967 4.82372 8.68033 5.25391 8.18566 5.83947L8.41483 6.03307ZM10.1456 4.88712L10.2336 5.17395L11.2906 4.84985L11.2027 4.56303L11.1148 4.27621L10.0577 4.6003L10.1456 4.88712ZM11.2027 4.56303L11.2904 4.84992C11.5623 4.76679 11.8545 4.78705 12.113 4.90719L12.2394 4.63514L12.3658 4.36309C11.9733 4.18066 11.5286 4.14966 11.115 4.27615L11.2027 4.56303ZM12.2394 4.63514L12.113 4.90719C12.3716 5.02741 12.5798 5.23991 12.6974 5.50639L12.9719 5.38527L13.2463 5.26414C13.0707 4.86617 12.7582 4.54545 12.3658 4.36309L12.2394 4.63514Z" fill="white" mask="url(#path-1-inside-1_465_2126)"/>
</svg>
