<svg width="40" height="40" viewBox="0 0 40 40" fill="none" xmlns="http://www.w3.org/2000/svg">
<path d="M7.33053 32.6698C10.573 35.9123 15.0522 37.9173 19.9997 37.9173C24.9472 37.9173 29.4272 35.9115 32.6689 32.6698C34.2645 31.0793 35.5443 29.2009 36.4405 27.134M32.6689 7.33148C34.3352 8.99332 35.6566 10.9681 36.5571 13.1423C37.4577 15.3165 37.9196 17.6473 37.9164 20.0007M2.08303 20.0007C2.08303 10.1057 10.1047 2.08398 19.9997 2.08398C22.1864 2.21565 24.3855 2.75315 26.4914 3.73482M2.08303 20.0007H8.0622C8.0622 18.3523 8.39553 16.7823 9.00053 15.354M2.08303 20.0007C2.07948 22.2534 2.50278 24.4864 3.33053 26.5815M14.0414 20.0007C14.0414 18.3557 14.708 16.8657 15.7864 15.7873C16.8647 14.709 18.3547 14.0423 19.9997 14.0423V8.06315M15.7864 24.214C16.8647 25.2923 18.3547 25.959 19.9997 25.959V31.9382C18.4316 31.9402 16.8786 31.6324 15.4299 31.0323C13.9812 30.4322 12.6653 29.5518 11.558 28.4415M24.213 15.7873C25.2914 16.8657 25.958 18.3557 25.958 20.0007M25.958 20.0007C25.958 21.6457 25.2914 23.1357 24.213 24.214M25.958 20.0007H31.9372C31.9393 21.5687 31.6314 23.1218 31.0314 24.5705C30.4313 26.0192 29.5508 27.335 28.4405 28.4423M11.558 11.559C13.7189 9.39898 16.703 8.06315 19.9997 8.06315M19.9997 8.06315C23.2964 8.06315 26.2805 9.39898 28.4414 11.5598L32.6639 7.33648M11.5589 28.4415L7.33303 32.6673M11.5664 11.5673L7.33303 7.33398M28.423 28.424L32.6597 32.6607" stroke="white" stroke-linecap="round" stroke-linejoin="round"/>
<path d="M19.9997 21.6673C20.9201 21.6673 21.6663 20.9211 21.6663 20.0007C21.6663 19.0802 20.9201 18.334 19.9997 18.334C19.0792 18.334 18.333 19.0802 18.333 20.0007C18.333 20.9211 19.0792 21.6673 19.9997 21.6673Z" stroke="white" stroke-width="0.5" stroke-linecap="round" stroke-linejoin="round"/>
</svg>
