<svg width="40" height="40" viewBox="0 0 40 40" fill="none" xmlns="http://www.w3.org/2000/svg">
<path d="M27.9163 19.9991H33.9697C34.2537 19.9993 34.5329 20.072 34.7809 20.2104C35.0289 20.3487 35.2374 20.5482 35.3867 20.7898C35.5359 21.0314 35.621 21.3071 35.6338 21.5908C35.6465 21.8745 35.5866 22.1568 35.4597 22.4108L32.0697 29.1925C31.9411 29.4494 31.7483 29.6688 31.51 29.8293C31.2717 29.9898 30.9959 30.0859 30.7094 30.1084C30.423 30.1309 30.1356 30.0789 29.8751 29.9576C29.6147 29.8362 29.3901 29.6496 29.223 29.4158L25.683 24.4658M3.33301 31.6658H9.59968C10.2209 31.6701 10.831 31.5008 11.361 31.1768C11.8911 30.8529 12.3201 30.3872 12.5997 29.8325L14.9997 24.9991M3.33301 34.9991V28.3325M11.6663 14.9991H11.683M28.5097 15.0875C28.9047 15.2852 29.2051 15.6317 29.3447 16.0508C29.4844 16.4699 29.452 16.9273 29.2547 17.3225L24.078 27.6741C23.9801 27.8699 23.8446 28.0445 23.6792 28.188C23.5138 28.3314 23.3217 28.4408 23.114 28.51C22.9063 28.5792 22.687 28.6068 22.4686 28.5912C22.2503 28.5756 22.0371 28.5171 21.8413 28.4191L6.01634 20.4991C4.8669 19.9202 3.9936 18.9094 3.58754 17.6881C3.18148 16.4668 3.27574 15.1344 3.84967 13.9825L6.14967 9.33246C6.43634 8.76116 6.83274 8.25193 7.31624 7.83385C7.79973 7.41577 8.36085 7.09703 8.96754 6.89583C9.57424 6.69463 10.2146 6.61491 10.8521 6.66123C11.4896 6.70756 12.1118 6.87901 12.683 7.16579L28.5097 15.0875Z" stroke="white" stroke-linecap="round" stroke-linejoin="round"/>
</svg>
