<svg width="40" height="40" viewBox="0 0 40 40" fill="none" xmlns="http://www.w3.org/2000/svg">
<path d="M24.1673 15.0007C24.1673 16.1057 23.7283 17.1655 22.9469 17.9469C22.1655 18.7283 21.1057 19.1673 20.0007 19.1673C18.8956 19.1673 17.8358 18.7283 17.0544 17.9469C16.273 17.1655 15.834 16.1057 15.834 15.0007C15.834 13.8956 16.273 12.8358 17.0544 12.0544C17.8358 11.273 18.8956 10.834 20.0007 10.834C21.1057 10.834 22.1655 11.273 22.9469 12.0544C23.7283 12.8358 24.1673 13.8956 24.1673 15.0007Z" stroke="#373833"/>
<path d="M22.0955 29.1573C21.5325 29.6989 20.7817 30.0015 20.0005 30.0015C19.2193 30.0015 18.4684 29.6989 17.9055 29.1573C12.7571 24.169 5.85881 18.5973 9.22214 10.5073C11.0438 6.13232 15.4105 3.33398 20.0005 3.33398C24.5905 3.33398 28.9588 6.13398 30.7788 10.5073C34.1388 18.5857 27.2571 24.1856 22.0955 29.1573Z" stroke="#373833"/>
<path d="M30 33.334C30 35.1757 25.5233 36.6673 20 36.6673C14.4767 36.6673 10 35.1757 10 33.334" stroke="#373833" stroke-linecap="round"/>
</svg>
