<svg width="40" height="40" viewBox="0 0 40 40" fill="none" xmlns="http://www.w3.org/2000/svg">
<path d="M33.4815 32.963H29.8519V7.03704H31.4074C31.5449 7.03704 31.6768 6.98241 31.7741 6.88517C31.8713 6.78793 31.9259 6.65604 31.9259 6.51852C31.9259 6.381 31.8713 6.24911 31.7741 6.15187C31.6768 6.05463 31.5449 6 31.4074 6H8.59259C8.45507 6 8.32319 6.05463 8.22594 6.15187C8.1287 6.24911 8.07407 6.381 8.07407 6.51852C8.07407 6.65604 8.1287 6.78793 8.22594 6.88517C8.32319 6.98241 8.45507 7.03704 8.59259 7.03704H10.1481V32.963H6.51852C6.381 32.963 6.24911 33.0176 6.15187 33.1148C6.05463 33.2121 6 33.344 6 33.4815C6 33.619 6.05463 33.7509 6.15187 33.8481C6.24911 33.9454 6.381 34 6.51852 34H33.4815C33.619 34 33.7509 33.9454 33.8481 33.8481C33.9454 33.7509 34 33.619 34 33.4815C34 33.344 33.9454 33.2121 33.8481 33.1148C33.7509 33.0176 33.619 32.963 33.4815 32.963ZM11.1852 7.03704H28.8148V32.963H23.6296V27.2593C23.6296 27.1217 23.575 26.9899 23.4778 26.8926C23.3805 26.7954 23.2486 26.7407 23.1111 26.7407H16.8889C16.7514 26.7407 16.6195 26.7954 16.5222 26.8926C16.425 26.9899 16.3704 27.1217 16.3704 27.2593V32.963H11.1852V7.03704ZM22.5926 32.963H17.4074V27.7778H22.5926V32.963ZM15.3333 11.7037C15.3333 11.5662 15.388 11.4343 15.4852 11.3371C15.5824 11.2398 15.7143 11.1852 15.8519 11.1852H17.9259C18.0634 11.1852 18.1953 11.2398 18.2926 11.3371C18.3898 11.4343 18.4444 11.5662 18.4444 11.7037C18.4444 11.8412 18.3898 11.9731 18.2926 12.0704C18.1953 12.1676 18.0634 12.2222 17.9259 12.2222H15.8519C15.7143 12.2222 15.5824 12.1676 15.4852 12.0704C15.388 11.9731 15.3333 11.8412 15.3333 11.7037ZM21.5556 11.7037C21.5556 11.5662 21.6102 11.4343 21.7074 11.3371C21.8047 11.2398 21.9366 11.1852 22.0741 11.1852H24.1481C24.2857 11.1852 24.4176 11.2398 24.5148 11.3371C24.612 11.4343 24.6667 11.5662 24.6667 11.7037C24.6667 11.8412 24.612 11.9731 24.5148 12.0704C24.4176 12.1676 24.2857 12.2222 24.1481 12.2222H22.0741C21.9366 12.2222 21.8047 12.1676 21.7074 12.0704C21.6102 11.9731 21.5556 11.8412 21.5556 11.7037ZM15.3333 16.8889C15.3333 16.7514 15.388 16.6195 15.4852 16.5222C15.5824 16.425 15.7143 16.3704 15.8519 16.3704H17.9259C18.0634 16.3704 18.1953 16.425 18.2926 16.5222C18.3898 16.6195 18.4444 16.7514 18.4444 16.8889C18.4444 17.0264 18.3898 17.1583 18.2926 17.2555C18.1953 17.3528 18.0634 17.4074 17.9259 17.4074H15.8519C15.7143 17.4074 15.5824 17.3528 15.4852 17.2555C15.388 17.1583 15.3333 17.0264 15.3333 16.8889ZM21.5556 16.8889C21.5556 16.7514 21.6102 16.6195 21.7074 16.5222C21.8047 16.425 21.9366 16.3704 22.0741 16.3704H24.1481C24.2857 16.3704 24.4176 16.425 24.5148 16.5222C24.612 16.6195 24.6667 16.7514 24.6667 16.8889C24.6667 17.0264 24.612 17.1583 24.5148 17.2555C24.4176 17.3528 24.2857 17.4074 24.1481 17.4074H22.0741C21.9366 17.4074 21.8047 17.3528 21.7074 17.2555C21.6102 17.1583 21.5556 17.0264 21.5556 16.8889ZM15.8519 22.5926C15.7143 22.5926 15.5824 22.538 15.4852 22.4407C15.388 22.3435 15.3333 22.2116 15.3333 22.0741C15.3333 21.9366 15.388 21.8047 15.4852 21.7074C15.5824 21.6102 15.7143 21.5556 15.8519 21.5556H17.9259C18.0634 21.5556 18.1953 21.6102 18.2926 21.7074C18.3898 21.8047 18.4444 21.9366 18.4444 22.0741C18.4444 22.2116 18.3898 22.3435 18.2926 22.4407C18.1953 22.538 18.0634 22.5926 17.9259 22.5926H15.8519ZM21.5556 22.0741C21.5556 21.9366 21.6102 21.8047 21.7074 21.7074C21.8047 21.6102 21.9366 21.5556 22.0741 21.5556H24.1481C24.2857 21.5556 24.4176 21.6102 24.5148 21.7074C24.612 21.8047 24.6667 21.9366 24.6667 22.0741C24.6667 22.2116 24.612 22.3435 24.5148 22.4407C24.4176 22.538 24.2857 22.5926 24.1481 22.5926H22.0741C21.9366 22.5926 21.8047 22.538 21.7074 22.4407C21.6102 22.3435 21.5556 22.2116 21.5556 22.0741Z" fill="#373833"/>
</svg>
