<svg width="40" height="40" viewBox="0 0 40 40" fill="none" xmlns="http://www.w3.org/2000/svg">
<path d="M4.58301 34.6468H35.4163M14.218 5.35352H25.7813C27.008 5.35352 28.1844 5.84079 29.0517 6.70815C29.9191 7.5755 30.4063 8.75189 30.4063 9.97852V34.6452H9.59301V9.97852C9.59301 8.75189 10.0803 7.5755 10.9476 6.70815C11.815 5.84079 12.9914 5.35352 14.218 5.35352Z" stroke="white" stroke-linecap="round" stroke-linejoin="round"/>
<path d="M18.4583 23.8548H21.5417C21.8452 23.8548 22.1458 23.9146 22.4263 24.0308C22.7068 24.147 22.9616 24.3172 23.1763 24.5319C23.3909 24.7465 23.5612 25.0014 23.6774 25.2818C23.7935 25.5623 23.8533 25.8629 23.8533 26.1665V34.6465H16.1483V26.1665C16.1483 25.5534 16.3919 24.9654 16.8254 24.5319C17.2589 24.0984 17.8469 23.8548 18.46 23.8548M15.375 11.5215H24.625M15.375 17.6882H24.625" stroke="white" stroke-linecap="round" stroke-linejoin="round"/>
</svg>
