<svg width="40" height="40" viewBox="0 0 40 40" fill="none" xmlns="http://www.w3.org/2000/svg">
<path d="M36.6666 35V16.0167C36.6666 13.8133 36.6666 12.71 36.0933 11.8567C35.5199 11.0033 34.5049 10.5933 32.4766 9.77333L22.4766 5.74C21.2533 5.24667 20.6433 5 19.9999 5C19.3566 5 18.7466 5.24667 17.5233 5.74L7.52325 9.77333C5.49492 10.5933 4.47992 11.0033 3.90659 11.8567C3.33325 12.71 3.33325 13.8133 3.33325 16.0167V35M26.6666 31.6667V35M13.3333 31.6667V35" stroke="white" stroke-linecap="round" stroke-linejoin="round"/>
<path d="M12.5 23.3346L12.905 21.718C13.51 19.293 13.8133 18.0796 14.7183 17.3746C15.6217 16.668 16.8717 16.668 19.3717 16.668H20.6283C23.1283 16.668 24.3783 16.668 25.2817 17.3746C26.1867 18.0796 26.49 19.2913 27.095 21.718L27.5 23.3346M14.1667 27.4846V27.5013M25.8333 27.4846V27.5013M28.3333 23.3346H11.6667C11.2246 23.3346 10.8007 23.5102 10.4882 23.8228C10.1756 24.1354 10 24.5593 10 25.0013V30.0013C10 30.4433 10.1756 30.8673 10.4882 31.1798C10.8007 31.4924 11.2246 31.668 11.6667 31.668H28.3333C28.7754 31.668 29.1993 31.4924 29.5118 31.1798C29.8244 30.8673 30 30.4433 30 30.0013V25.0013C30 24.5593 29.8244 24.1354 29.5118 23.8228C29.1993 23.5102 28.7754 23.3346 28.3333 23.3346Z" stroke="white" stroke-linecap="round" stroke-linejoin="round"/>
</svg>
