<svg width="40" height="40" viewBox="0 0 40 40" fill="none" xmlns="http://www.w3.org/2000/svg">
<path d="M20 13.334L30 8.33398L20 3.33398V20.0007" stroke="#373833" stroke-linecap="round" stroke-linejoin="round"/>
<path d="M13.3329 19.9844L4.1662 25.2177C3.90971 25.3631 3.69636 25.5739 3.54793 25.8286C3.39949 26.0833 3.32129 26.3729 3.32129 26.6677C3.32129 26.9625 3.39949 27.2521 3.54793 27.5068C3.69636 27.7615 3.90971 27.9723 4.1662 28.1177L18.3329 36.2177C18.8396 36.5103 19.4144 36.6643 19.9995 36.6643C20.5847 36.6643 21.1595 36.5103 21.6662 36.2177L35.8329 28.1177C36.0894 27.9723 36.3027 27.7615 36.4511 27.5068C36.5996 27.2521 36.6778 26.9625 36.6778 26.6677C36.6778 26.3729 36.5996 26.0833 36.4511 25.8286C36.3027 25.5739 36.0894 25.3631 35.8329 25.2177L26.6662 20.001M10.8162 21.4177L29.1829 31.9177M29.1829 21.4177L10.8329 31.9177" stroke="#373833" stroke-linecap="round" stroke-linejoin="round"/>
</svg>
