<svg width="40" height="40" viewBox="0 0 40 40" fill="none" xmlns="http://www.w3.org/2000/svg">
<path d="M15.9151 23.0745H7.74512L9.47845 15.7279H16.4926M15.9151 23.0745L16.4926 15.7279M15.9151 23.0745L15.1101 33.317H24.8901L24.0851 23.0745M15.9151 23.0745H24.0851M16.4926 15.7279H23.5076M16.4926 15.7279L17.3693 4.58203H22.6309L23.5076 15.7279M24.0851 23.0745H32.2551L30.5218 15.7279H23.5076M24.0851 23.0745L23.5076 15.7279" stroke="white" stroke-linecap="round" stroke-linejoin="round"/>
<path d="M15.7501 25.1746H7.74512V23.0771H15.9151L15.7501 25.1746ZM32.2551 25.1746H24.2501L24.0851 23.0771H32.2551V25.1746ZM16.4926 15.7305H23.5068V17.8288H16.4926V15.7305ZM15.1101 33.3196H24.891V35.418H15.1101V33.3196Z" stroke="white" stroke-linecap="round" stroke-linejoin="round"/>
</svg>
