<svg width="40" height="40" viewBox="0 0 40 40" fill="none" xmlns="http://www.w3.org/2000/svg">
<path d="M5 8.33398H14.05C14.5986 8.33407 15.1388 8.19872 15.6226 7.93997C16.1064 7.68121 16.5188 7.30704 16.8233 6.85065L18.1767 4.81732C18.4812 4.36093 18.8936 3.98676 19.3774 3.728C19.8612 3.46924 20.4014 3.3339 20.95 3.33398H28.43C29.1299 3.33382 29.8121 3.55395 30.3798 3.96318C30.9476 4.3724 31.3722 4.94996 31.5933 5.61398L32.5 8.33398M35 8.33398H13.3333" stroke="white" stroke-linecap="round"/>
<path d="M32.5 8.33398L31.4667 24.844C31.4322 25.3884 31.3983 25.8979 31.365 26.3723M7.5 8.33398L8.50833 24.829C8.765 28.8523 8.895 30.8623 9.965 32.3106C10.4933 33.0256 11.175 33.629 11.965 34.0823C13.565 35.0006 15.705 35.0007 19.9883 35.0007H24.1667" stroke="white" stroke-linecap="round"/>
<path d="M33.333 31.668C33.333 30.3419 32.8062 29.0701 31.8685 28.1324C30.9309 27.1948 29.6591 26.668 28.333 26.668C27.0069 26.668 25.7352 27.1948 24.7975 28.1324C23.8598 29.0701 23.333 30.3419 23.333 31.668C23.333 32.9941 23.8598 34.2658 24.7975 35.2035C25.7352 36.1412 27.0069 36.668 28.333 36.668C29.6591 36.668 30.9309 36.1412 31.8685 35.2035C32.8062 34.2658 33.333 32.9941 33.333 31.668Z" stroke="white"/>
</svg>
