<svg width="40" height="40" viewBox="0 0 40 40" fill="none" xmlns="http://www.w3.org/2000/svg">
<path d="M7.82507 20.2911H19.1667C19.3877 20.2911 19.5997 20.3789 19.756 20.5351C19.9123 20.6914 20.0001 20.9034 20.0001 21.1244V25.2911H6.9834V21.1244C6.98339 21.0143 7.00522 20.9052 7.04762 20.8036C7.09002 20.7019 7.15215 20.6097 7.23042 20.5322C7.30868 20.4547 7.40153 20.3935 7.5036 20.3521C7.60567 20.3107 7.71493 20.29 7.82507 20.2911Z" stroke="white" stroke-linecap="round" stroke-linejoin="round"/>
<path d="M6.98368 21.1336V12.7336C6.98368 12.422 7.10748 12.1231 7.32783 11.9027C7.54819 11.6824 7.84705 11.5586 8.15868 11.5586H18.8254C19.137 11.5586 19.4358 11.6824 19.6562 11.9027C19.8766 12.1231 20.0004 12.422 20.0004 12.7336M20.0004 12.7336V21.1336M20.0004 12.7336C20.0004 12.422 20.1241 12.1231 20.3445 11.9027C20.5649 11.6824 20.8637 11.5586 21.1754 11.5586H31.842C32.1536 11.5586 32.4525 11.6824 32.6729 11.9027C32.8932 12.1231 33.017 12.422 33.017 12.7336V21.1336M4.46702 16.3086H6.26702C6.45709 16.3086 6.63938 16.3841 6.77378 16.5185C6.90818 16.6529 6.98368 16.8352 6.98368 17.0253V25.3586H4.64202C4.52279 25.3586 4.40476 25.3348 4.29492 25.2884C4.18507 25.242 4.08564 25.1741 4.00251 25.0887C3.91937 25.0032 3.85422 24.9019 3.81091 24.7908C3.7676 24.6798 3.74701 24.5611 3.75035 24.4419V17.0253C3.75035 16.8352 3.82586 16.6529 3.96026 16.5185C4.09466 16.3841 4.27695 16.3086 4.46702 16.3086ZM35.3587 25.3419H33.017V17.0086C33.017 16.8185 33.0925 16.6362 33.2269 16.5018C33.3613 16.3674 33.5436 16.2919 33.7337 16.2919H35.5337C35.7238 16.2919 35.906 16.3674 36.0404 16.5018C36.1748 16.6362 36.2504 16.8185 36.2504 17.0086V24.4253C36.2504 24.6617 36.1564 24.8885 35.9892 25.0558C35.822 25.223 35.5952 25.3169 35.3587 25.3169V25.3419Z" stroke="white" stroke-linecap="round" stroke-linejoin="round"/>
<path d="M20.8334 20.291H32.1751C32.3961 20.291 32.608 20.3788 32.7643 20.5351C32.9206 20.6914 33.0084 20.9033 33.0084 21.1243V25.291H20.0001V21.1243C20.0001 20.9033 20.0879 20.6914 20.2441 20.5351C20.4004 20.3788 20.6124 20.291 20.8334 20.291ZM6.9834 25.341H9.54173V28.4493H6.9834V25.341ZM30.4584 25.341H33.0167V28.4493H30.4584V25.341Z" stroke="white" stroke-linecap="round" stroke-linejoin="round"/>
</svg>
