<svg width="40" height="40" viewBox="0 0 40 40" fill="none" xmlns="http://www.w3.org/2000/svg">
<path d="M13.517 26.4827L26.482 13.516M3.33366 36.666L6.41366 33.586M36.667 3.33268L33.587 6.41268M3.50033 16.4627L23.5353 36.4993L23.2403 36.7927L20.3453 36.446C17.4287 36.096 14.4753 36.676 11.8487 37.9894L11.162 38.3327L1.66699 28.8377L2.01033 28.151C3.32366 25.5244 3.90366 22.571 3.55366 19.6544L3.20699 16.7593L3.50033 16.4627ZM16.467 3.50268L36.5003 23.536L36.7953 23.241L36.4487 20.346C36.0987 17.4294 36.6787 14.476 37.992 11.8493L38.3337 11.161L28.8387 1.66602L28.1503 2.00935C25.5253 3.32268 22.5703 3.90268 19.6553 3.55268L16.7587 3.20602L16.467 3.50268Z" stroke="white"/>
</svg>
