<svg width="32" height="32" viewBox="0 0 32 32" fill="none" xmlns="http://www.w3.org/2000/svg">
<path d="M6.15332 7.15039H25.8467C26.4217 7.15039 26.8944 7.34475 27.2754 7.7334C27.6567 8.12239 27.8488 8.60549 27.8496 9.19336V23.8086C27.8495 24.3961 27.6574 24.8787 27.2754 25.2676C26.8934 25.6564 26.4207 25.8505 25.8467 25.8496H6.1543C5.57832 25.8495 5.10551 25.6553 4.72461 25.2676C4.34347 24.8796 4.15123 24.3964 4.15039 23.8066V9.19336C4.15039 8.60468 4.34263 8.12136 4.72461 7.7334C5.10657 7.3456 5.57926 7.15129 6.15332 7.15039ZM5.47266 8.35742H5.18359V24.793H25.8467C26.1219 24.793 26.3584 24.7014 26.543 24.5137C26.7275 24.3258 26.8164 24.0854 26.8164 23.8066V9.27637L26.584 9.43164L15.999 16.4766L5.4834 9.47754V8.36426L5.66113 8.48242L15.917 15.2676L16 15.3223L16.083 15.2676L26.3389 8.48242L26.7549 8.20703H5.24512L5.47266 8.35742Z" fill="#2C2C2C" stroke="white" stroke-width="0.3"/>
</svg>
