<svg width="32" height="32" viewBox="0 0 32 32" fill="none" xmlns="http://www.w3.org/2000/svg">
<path d="M6.10039 25.8996C8.63406 28.4333 12.1341 30 16 30C19.866 30 23.3666 28.4327 25.8996 25.8996C27.1464 24.6568 28.1464 23.1891 28.8468 21.574M25.8996 6.10037C27.2017 7.39892 28.2342 8.94201 28.9379 10.6409C29.6416 12.3399 30.0025 14.1611 30 16M2.00002 16C2.00002 8.26809 8.2681 2 16 2C17.7087 2.10288 19.4271 2.52288 21.0726 3.28995M2.00002 16H6.67211C6.67211 14.712 6.93257 13.4852 7.40531 12.3691M2.00002 16C1.99725 17.7603 2.32801 19.5051 2.97481 21.1422M11.3442 16C11.3442 14.7146 11.8651 13.5503 12.7077 12.7077C13.5503 11.8651 14.7146 11.3442 16 11.3442V6.67209M12.7077 19.2923C13.5503 20.1349 14.7146 20.6558 16 20.6558V25.3279C14.7747 25.3295 13.5612 25.089 12.4292 24.6201C11.2972 24.1512 10.269 23.4632 9.40373 22.5956M19.2923 12.7077C20.1349 13.5503 20.6558 14.7146 20.6558 16M20.6558 16C20.6558 17.2854 20.1349 18.4497 19.2923 19.2923M20.6558 16H25.3279C25.3295 17.2253 25.089 18.4388 24.6201 19.5708C24.1512 20.7028 23.4632 21.731 22.5956 22.5963M9.40373 9.40372C11.0922 7.71591 13.424 6.67209 16 6.67209M16 6.67209C18.576 6.67209 20.9078 7.71591 22.5963 9.40437L25.8957 6.10428M9.40438 22.5956L6.10234 25.8977M9.41024 9.41023L6.10234 6.10233M22.5819 22.582L25.8925 25.8925" stroke="#373833" stroke-linecap="round" stroke-linejoin="round"/>
<path d="M15.9993 17.3346C16.7357 17.3346 17.3327 16.7377 17.3327 16.0013C17.3327 15.2649 16.7357 14.668 15.9993 14.668C15.263 14.668 14.666 15.2649 14.666 16.0013C14.666 16.7377 15.263 17.3346 15.9993 17.3346Z" stroke="#373833" stroke-width="0.5" stroke-linecap="round" stroke-linejoin="round"/>
</svg>
