<svg width="32" height="32" viewBox="0 0 32 32" fill="none" xmlns="http://www.w3.org/2000/svg">
<path d="M23.093 16H3M16.186 9.91304C16.186 10.6155 17.0212 11.8146 17.7282 12.7057C18.3414 13.4903 19.0814 14.1735 19.9196 14.729C20.8326 15.3243 22.0884 16 23.0805 16C22.0884 16 20.8326 16.6769 19.9196 17.271C19.0814 17.8265 18.3414 18.5097 17.7282 19.2943C17.0212 20.1854 16.186 21.3845 16.186 22.087M12.4186 9.91304V4.43478H12.8318C18.3881 4.43489 23.9153 3.6579 29.2427 2.12783L29.686 2H30V30H29.686L29.2427 29.8722C23.9153 28.3421 18.3881 27.5651 12.8318 27.5652H12.4186V22.087" stroke="#373833"/>
</svg>
