<svg width="32" height="32" viewBox="0 0 32 32" fill="none" xmlns="http://www.w3.org/2000/svg">
<path d="M11.4027 20.5973L20.5961 11.4027M4.18182 27.8182L6.36582 25.6342M27.8182 4.18182L25.6342 6.36582M4.3 13.4922L18.5066 27.7L18.2975 27.908L16.2446 27.6622C14.1765 27.414 12.0823 27.8253 10.2197 28.7565L9.73282 29L3 22.2672L3.24345 21.7803C4.17473 19.9177 4.586 17.8235 4.33782 15.7554L4.092 13.7025L4.3 13.4922ZM13.4945 4.30236L27.7 18.5078L27.9092 18.2986L27.6634 16.2458C27.4152 14.1776 27.8265 12.0835 28.7577 10.2209L29 9.73282L22.2672 3L21.7791 3.24345C19.9177 4.17473 17.8224 4.586 15.7554 4.33782L13.7014 4.092L13.4945 4.30236Z" stroke="#373833"/>
</svg>
