<svg width="32" height="32" viewBox="0 0 32 32" fill="none" xmlns="http://www.w3.org/2000/svg">
<path d="M3 29C3.89511 29 4.75355 28.6427 5.38649 28.0067C6.01942 27.3707 6.375 26.5081 6.375 25.6087C6.375 26.5081 6.73058 27.3707 7.36351 28.0067C7.99645 28.6427 8.85489 29 9.75 29C10.6451 29 11.5036 28.6427 12.1365 28.0067C12.7694 27.3707 13.125 26.5081 13.125 25.6087C13.125 26.5081 13.4806 27.3707 14.1135 28.0067C14.7464 28.6427 15.6049 29 16.5 29C17.3951 29 18.2536 28.6427 18.8865 28.0067C19.5194 27.3707 19.875 26.5081 19.875 25.6087C19.875 26.5081 20.2306 27.3707 20.8635 28.0067C21.4964 28.6427 22.3549 29 23.25 29C24.1451 29 25.0036 28.6427 25.6365 28.0067C26.2694 27.3707 26.625 26.5081 26.625 25.6087C26.625 26.5081 26.9806 27.3707 27.6135 28.0067C28.2465 28.6427 29.1049 29 30 29M6.375 5.82609V5.26087C6.375 4.66125 6.61205 4.08619 7.03401 3.66219C7.45597 3.2382 8.02826 3 8.625 3C9.22174 3 9.79403 3.2382 10.216 3.66219C10.6379 4.08619 10.875 4.66125 10.875 5.26087V16.5652C10.875 18.5853 11.325 21.0576 12.6244 21.9642C12.9304 22.1778 13.3151 22.2174 13.6875 22.2174M17.625 5.82609V5.26087C17.625 4.66125 17.8621 4.08619 18.284 3.66219C18.706 3.2382 19.2783 3 19.875 3C20.4717 3 21.044 3.2382 21.466 3.66219C21.8879 4.08619 22.125 4.66125 22.125 5.26087V16.5652C22.125 18.5853 22.575 21.0576 23.8744 21.9642C24.1804 22.1778 24.5651 22.2174 24.9375 22.2174M10.875 13.1739H22.125M10.875 8.65217H22.125M10.9211 17.6957H22.1711" stroke="#373833"/>
</svg>
