<svg width="32" height="32" viewBox="0 0 32 32" fill="none" xmlns="http://www.w3.org/2000/svg">
<path d="M16 17.7951V30M21.3328 7.26556V2M10.6672 7.26556V2M24 10.3767V14.684C24 15.5091 23.6629 16.3004 23.0627 16.8839C22.4626 17.4673 21.6487 17.7951 20.8 17.7951H11.2C10.3513 17.7951 9.53737 17.4673 8.93726 16.8839C8.33714 16.3004 8 15.5091 8 14.684V10.3751C8 9.54999 8.33714 8.75867 8.93726 8.17522C9.53737 7.59178 10.3513 7.264 11.2 7.264H20.8C21.6487 7.264 22.4626 7.59178 23.0627 8.17522C23.6629 8.75867 24 9.54999 24 10.3751V10.3767Z" stroke="#373833" stroke-linecap="round"/>
</svg>
