<svg width="40" height="40" viewBox="0 0 40 40" fill="none" xmlns="http://www.w3.org/2000/svg">
<path d="M5 8.33203H14.05C14.5986 8.33211 15.1388 8.19677 15.6226 7.93801C16.1064 7.67926 16.5188 7.30509 16.8233 6.8487L18.1767 4.81536C18.4812 4.35898 18.8936 3.98481 19.3774 3.72605C19.8612 3.46729 20.4014 3.33195 20.95 3.33203H28.43C29.1299 3.33186 29.8121 3.552 30.3798 3.96122C30.9476 4.37045 31.3722 4.94801 31.5933 5.61203L32.5 8.33203M35 8.33203H13.3333" stroke="white" stroke-linecap="round"/>
<path d="M32.5 8.33203L31.6667 19.1654M7.5 8.33203L8.50833 25.892C8.765 30.1754 8.895 32.3187 9.965 33.8587C10.4933 34.622 11.175 35.2637 11.965 35.747C12.935 36.3404 14.105 36.5737 15.8333 36.6654" stroke="white" stroke-linecap="round"/>
<path d="M18.3335 25.8303L20.2268 28.2736C20.5707 26.9899 21.2905 25.8382 22.2936 24.9665C23.2968 24.0948 24.5376 23.5428 25.8568 23.3814C27.176 23.22 28.5133 23.4565 29.697 24.0607C30.8807 24.6648 31.8569 25.609 32.5002 26.7719M35.0002 34.1636L33.1068 31.7236C32.7657 32.9973 32.0545 34.1413 31.0631 35.0108C30.0718 35.8803 28.8449 36.4363 27.5375 36.6084C26.2302 36.7806 24.9012 36.5612 23.7185 35.978C22.5359 35.3948 21.5528 34.4739 20.8935 33.3319" stroke="white" stroke-linecap="round" stroke-linejoin="round"/>
</svg>
