<svg width="40" height="40" viewBox="0 0 40 40" fill="none" xmlns="http://www.w3.org/2000/svg">
<path d="M19.9998 20.8346H9.99984V22.5013H19.9998V20.8346ZM29.9998 20.8346H19.9998V22.5013H29.9998V20.8346ZM34.1665 16.668C34.1665 17.2151 34.0587 17.757 33.8493 18.2625C33.6399 18.768 33.333 19.2273 32.9461 19.6142C32.5592 20.0012 32.0999 20.3081 31.5944 20.5175C31.0888 20.7269 30.547 20.8346 29.9998 20.8346V22.5013C31.5469 22.5013 33.0307 21.8867 34.1246 20.7928C35.2186 19.6988 35.8332 18.2151 35.8332 16.668H34.1665ZM29.9998 12.5013C30.547 12.5013 31.0888 12.6091 31.5944 12.8185C32.0999 13.0279 32.5592 13.3348 32.9461 13.7217C33.333 14.1086 33.6399 14.5679 33.8493 15.0735C34.0587 15.579 34.1665 16.1208 34.1665 16.668H35.8332C35.8332 15.1209 35.2186 13.6371 34.1246 12.5432C33.0307 11.4492 31.5469 10.8346 29.9998 10.8346V12.5013ZM28.3665 9.58464C27.643 7.97091 26.4682 6.60091 24.9837 5.63981C23.4992 4.67871 21.7683 4.16756 19.9998 4.16797V5.83464C21.4471 5.83419 22.8637 6.25253 24.0785 7.03917C25.2934 7.82582 26.2547 8.94718 26.8465 10.268L28.3665 9.58464ZM19.9998 4.16797C18.2314 4.16756 16.5005 4.67871 15.016 5.63981C13.5315 6.60091 12.3566 7.97091 11.6332 9.58464L13.1532 10.268C13.745 8.94718 14.7063 7.82582 15.9211 7.03917C17.136 6.25253 18.5525 5.83419 19.9998 5.83464V4.16797ZM9.99984 10.8346C8.45274 10.8346 6.96901 11.4492 5.87505 12.5432C4.78109 13.6371 4.1665 15.1209 4.1665 16.668H5.83317C5.83317 15.5629 6.27216 14.5031 7.05356 13.7217C7.83496 12.9403 8.89477 12.5013 9.99984 12.5013V10.8346ZM4.1665 16.668C4.1665 18.2151 4.78109 19.6988 5.87505 20.7928C6.96901 21.8867 8.45274 22.5013 9.99984 22.5013V20.8346C8.89477 20.8346 7.83496 20.3956 7.05356 19.6142C6.27216 18.8328 5.83317 17.773 5.83317 16.668H4.1665ZM11.6332 9.58464C11.2848 10.358 10.6415 10.8346 9.99984 10.8346V12.5013C11.4915 12.5013 12.6282 11.4396 13.1532 10.268L11.6332 9.58464ZM29.9998 10.8346C29.3582 10.8346 28.7148 10.358 28.3665 9.58464L26.8465 10.268C27.3732 11.4396 28.5082 12.5013 29.9998 12.5013V10.8346Z" fill="white"/>
<path d="M19.9998 31.6693V28.3359M28.3332 33.3359V28.3359M11.6665 35.0026V28.3359" stroke="white" stroke-linecap="round"/>
</svg>
