<svg width="40" height="40" viewBox="0 0 40 40" fill="none" xmlns="http://www.w3.org/2000/svg">
<path d="M15.77 10.9033H24.2319C25.5005 10.9034 26.586 11.3175 27.4976 12.1494L27.6772 12.3213C28.6237 13.2689 29.0952 14.4136 29.0952 15.7666V29.0928H10.9048V15.7666C10.9048 14.414 11.3803 13.2691 12.3345 12.3213C13.2882 11.3741 14.4298 10.9033 15.77 10.9033ZM15.7671 12.1699C14.7772 12.1699 13.9258 12.5236 13.2251 13.2266C12.5246 13.9294 12.1714 14.7809 12.1714 15.7686V27.8262H19.3667V20.6318H16.5464V19.3652H19.3667V12.1699H15.7671ZM20.6333 19.3652H23.4536V20.6318H20.6333V27.8262H27.8286V15.7666C27.8286 14.7799 27.4743 13.9293 26.772 13.2256L26.771 13.2246C26.0683 12.5232 25.2176 12.1699 24.23 12.1699H20.6333V19.3652ZM33.3267 13.7266V26.2734L32.0601 26.2715V13.7266H33.3267ZM7.94189 13.7227V26.2734H6.67529V13.7227H7.94189Z" fill="white" stroke="#1D1C20" stroke-width="0.4"/>
</svg>
