<svg width="40" height="40" viewBox="0 0 40 40" fill="none" xmlns="http://www.w3.org/2000/svg">
<path d="M23.8417 2.91C24.9073 3.00147 25.9049 3.47157 26.6538 4.23515C27.4027 4.99874 27.8534 6.0053 27.9242 7.0725C28.1233 9.83917 28.3333 14.1442 28.3333 20C28.3333 27.1708 28.1758 32.3633 28.0633 35.1517C28.037 35.7857 27.7657 36.3848 27.3066 36.8228C26.8474 37.2608 26.2362 37.5036 25.6017 37.5H5.24C4.60353 37.5027 3.99083 37.2584 3.53079 36.8186C3.07074 36.3787 2.79922 35.7776 2.77333 35.1417C2.66083 32.2883 2.5 26.9858 2.5 20C2.5 14.285 2.715 9.93167 2.91667 7.11083C2.98713 6.0347 3.44031 5.01929 4.19427 4.24821C4.94824 3.47712 5.95322 3.00126 7.0275 2.90667C9.24833 2.70167 12.2408 2.5 15.4167 2.5C18.6092 2.5 21.6167 2.70333 23.8417 2.91Z" stroke="white" stroke-linecap="round" stroke-linejoin="round"/>
<path d="M25.6018 37.5H34.8268C35.4648 37.5029 36.0791 37.2582 36.5404 36.8175C37.0017 36.3767 37.2741 35.7742 37.3002 35.1367C37.3885 32.8967 37.5002 29.3033 37.5002 25.4167C37.5002 22.4475 37.3702 19.7708 37.2293 17.7483C37.0727 15.4817 35.316 13.7 33.0485 13.5425C31.4465 13.431 29.8417 13.364 28.236 13.3417M19.5135 37.5L19.5185 37.4125C19.5543 36.4958 19.5835 35.1817 19.5835 33.3333C19.5835 31.485 19.5543 30.1708 19.5185 29.2542C19.4693 28.0142 18.7768 26.9658 17.5477 26.7958C16.8411 26.7049 16.1292 26.6617 15.4168 26.6667C14.7045 26.6617 13.9926 26.7049 13.286 26.7958C12.0568 26.9658 11.3643 28.0142 11.3152 29.2542C11.2793 30.1708 11.2502 31.485 11.2502 33.3333C11.2461 34.7225 11.2695 36.1117 11.3202 37.5M10.8335 10V11.6667M10.8335 19.1667V20.8333M20.0002 10V11.6667M20.0002 19.1667V20.8333" stroke="white" stroke-linecap="round" stroke-linejoin="round"/>
</svg>
