<svg width="40" height="40" viewBox="0 0 40 40" fill="none" xmlns="http://www.w3.org/2000/svg">
<path d="M35.7334 26.9336V29.0664H32.4004V35.7334H6.93359V29.0664H3.59961V26.9336H35.7334ZM9.06641 33.5996H30.2666V29.0664H9.06641V33.5996ZM22.8838 18.5996C23.0187 18.5998 23.1161 18.698 23.1162 18.833V18.8965L22.4922 23.8242C22.4723 23.9148 22.4322 23.9787 22.3926 24.0156C22.3552 24.0503 22.3149 24.0664 22.2666 24.0664H17.0664C17.0182 24.0663 16.9787 24.0502 16.9414 24.0156C16.9025 23.9795 16.8621 23.9179 16.8418 23.8301L16.2119 18.8652C16.2056 18.802 16.225 18.739 16.2637 18.6885C16.2972 18.6448 16.3438 18.6138 16.3965 18.5996H22.8838ZM30.9766 3.59961L35.041 11.0283C35.0701 11.122 35.0865 11.2192 35.084 11.3174L35.083 11.3252V11.333C35.083 11.9311 34.6058 12.4004 34.0166 12.4004H30.7334V24.0664H28.5996V12.4004H20.7334V15.7334H18.5996V12.4004H10.7334V24.0664H8.59961V12.4004H5.69336C5.5108 12.4022 5.33091 12.3565 5.1709 12.2686C5.01073 12.1805 4.87568 12.0527 4.7793 11.8975C4.68296 11.7422 4.62792 11.5644 4.62012 11.3818C4.61238 11.1994 4.65266 11.0183 4.73535 10.8555L4.73633 10.8525L8.37012 3.59961H30.9766ZM9.53027 6.06543L7.86328 9.39844L7.42871 10.2666H31.9043L31.4697 9.39844L29.8037 6.06543L29.6377 5.7334H9.69629L9.53027 6.06543Z" fill="white" stroke="#1B1A1F" stroke-width="1.2"/>
</svg>
